Truculenta-ExpandedBlack.ufo
<glyph name="exclam" format="2">
  <advance width="402"/>
  <unicode hex="0021"/>
  <outline>
    <contour>
      <point x="119" y="230" type="curve"/>
      <point x="242" y="232" type="line"/>
      <point x="246" y="353"/>
      <point x="248" y="409"/>
      <point x="253" y="478" type="curve" smooth="yes"/>
      <point x="259" y="563"/>
      <point x="261" y="589"/>
      <point x="272" y="711" type="curve"/>
      <point x="96" y="704" type="line"/>
      <point x="102" y="597"/>
      <point x="105" y="553"/>
      <point x="108" y="485" type="curve" smooth="yes"/>
      <point x="111" y="414"/>
      <point x="115" y="339"/>
    </contour>
    <contour>
      <point x="264" y="0" type="line"/>
      <point x="254" y="171" type="line"/>
      <point x="104" y="169" type="line"/>
      <point x="100" y="0" type="line"/>
    </contour>
  </outline>
</glyph>
<glyph name="quotedbl" format="2">
  <advance width="537"/>
  <unicode hex="0022"/>
  <outline>
    <contour>
      <point x="268" y="540" type="curve"/>
      <point x="383" y="549" type="line"/>
      <point x="383" y="543"/>
      <point x="393" y="627"/>
      <point x="402" y="672" type="curve" smooth="yes"/>
      <point x="411" y="717"/>
      <point x="424" y="767"/>
      <point x="422" y="763" type="curve"/>
      <point x="275" y="769" type="line"/>
      <point x="275" y="772"/>
      <point x="275" y="719"/>
      <point x="273" y="663" type="curve" smooth="yes"/>
      <point x="271" y="600"/>
      <point x="268" y="537"/>
    </contour>
    <contour>
      <point x="95" y="535" type="curve"/>
      <point x="209" y="552" type="line"/>
      <point x="208" y="548"/>
      <point x="211" y="633"/>
      <point x="216" y="678" type="curve" smooth="yes"/>
      <point x="220" y="723"/>
      <point x="229" y="773"/>
      <point x="229" y="771" type="curve"/>
      <point x="81" y="763" type="line"/>
      <point x="81" y="766"/>
      <point x="87" y="714"/>
      <point x="89" y="658" type="curve" smooth="yes"/>
      <point x="91" y="595"/>
      <point x="96" y="531"/>
    </contour>
  </outline>
</glyph>
<glyph name="numbersign" format="2">
  <advance width="956"/>
  <unicode hex="0023"/>
  <outline>
    <contour>
      <point x="159" y="3" type="line"/>
      <point x="314" y="0" type="line"/>
      <point x="396" y="369" type="line"/>
      <point x="477" y="696" type="line"/>
      <point x="324" y="699" type="line"/>
      <point x="259" y="390" type="line"/>
    </contour>
    <contour>
      <point x="78" y="127" type="line"/>
      <point x="171" y="129"/>
      <point x="347" y="132"/>
      <point x="471" y="131" type="curve" smooth="yes"/>
      <point x="600" y="130"/>
      <point x="737" y="131"/>
      <point x="831" y="129" type="curve"/>
      <point x="826" y="260" type="line"/>
      <point x="744" y="258"/>
      <point x="595" y="257"/>
      <point x="474" y="257" type="curve" smooth="yes"/>
      <point x="359" y="257"/>
      <point x="173" y="258"/>
      <point x="80" y="260" type="curve"/>
    </contour>
    <contour>
      <point x="472" y="2" type="line"/>
      <point x="627" y="-2" type="line"/>
      <point x="706" y="358" type="line"/>
      <point x="787" y="682" type="line"/>
      <point x="634" y="690" type="line"/>
      <point x="572" y="390" type="line"/>
    </contour>
    <contour>
      <point x="128" y="414" type="line"/>
      <point x="221" y="415"/>
      <point x="398" y="419"/>
      <point x="522" y="418" type="curve" smooth="yes"/>
      <point x="650" y="417"/>
      <point x="772" y="417"/>
      <point x="877" y="415" type="curve"/>
      <point x="877" y="547" type="line"/>
      <point x="773" y="544"/>
      <point x="645" y="544"/>
      <point x="524" y="544" type="curve" smooth="yes"/>
      <point x="409" y="544"/>
      <point x="212" y="546"/>
      <point x="119" y="547" type="curve"/>
    </contour>
  </outline>
</glyph>
<glyph name="dollar" format="2">
  <advance width="640"/>
  <unicode hex="0024"/>
  <outline>
    <contour>
      <point x="312" y="-10" type="curve" smooth="yes"/>
      <point x="521" y="-10"/>
      <point x="583" y="81"/>
      <point x="583" y="171" type="curve" smooth="yes"/>
      <point x="583" y="310"/>
      <point x="461" y="345"/>
      <point x="323" y="399" type="curve" smooth="yes"/>
      <point x="247" y="429"/>
      <point x="231" y="454"/>
      <point x="231" y="502" type="curve" smooth="yes"/>
      <point x="231" y="544"/>
      <point x="256" y="577"/>
      <point x="319" y="577" type="curve" smooth="yes"/>
      <point x="376" y="577"/>
      <point x="402" y="546"/>
      <point x="402" y="472" type="curve" smooth="yes"/>
      <point x="402" y="450"/>
      <point x="400" y="425"/>
      <point x="396" y="396" type="curve"/>
      <point x="574" y="396" type="line"/>
      <point x="581" y="430"/>
      <point x="585" y="462"/>
      <point x="585" y="491" type="curve" smooth="yes"/>
      <point x="585" y="630"/>
      <point x="502" y="705"/>
      <point x="325" y="705" type="curve" smooth="yes"/>
      <point x="130" y="705"/>
      <point x="54" y="597"/>
      <point x="54" y="488" type="curve" smooth="yes"/>
      <point x="54" y="325"/>
      <point x="176" y="286"/>
      <point x="277" y="247" type="curve" smooth="yes"/>
      <point x="367" y="212"/>
      <point x="405" y="206"/>
      <point x="405" y="165" type="curve" smooth="yes"/>
      <point x="405" y="132"/>
      <point x="383" y="113"/>
      <point x="310" y="113" type="curve" smooth="yes"/>
      <point x="260" y="113"/>
      <point x="228" y="141"/>
      <point x="228" y="190" type="curve" smooth="yes"/>
      <point x="228" y="203"/>
      <point x="230" y="216"/>
      <point x="234" y="231" type="curve"/>
      <point x="64" y="231" type="line"/>
      <point x="58" y="208"/>
      <point x="55" y="186"/>
      <point x="55" y="166" type="curve" smooth="yes"/>
      <point x="55" y="54"/>
      <point x="146" y="-10"/>
    </contour>
    <contour>
      <point x="363" y="-110" type="line"/>
      <point x="357" y="4"/>
      <point x="354" y="159"/>
      <point x="354" y="311" type="curve" smooth="yes"/>
      <point x="354" y="462"/>
      <point x="360" y="694"/>
      <point x="367" y="798" type="curve"/>
      <point x="279" y="802" type="line"/>
      <point x="280" y="718"/>
      <point x="282" y="549"/>
      <point x="282" y="322" type="curve" smooth="yes"/>
      <point x="282" y="96"/>
      <point x="280" y="-22"/>
      <point x="275" y="-109" type="curve"/>
    </contour>
  </outline>
</glyph>
<glyph name="ampersand" format="2">
  <advance width="693"/>
  <unicode hex="0026"/>
  <outline>
    <contour>
      <point x="273" y="-10" type="curve" smooth="yes"/>
      <point x="491" y="-10"/>
      <point x="666" y="111"/>
      <point x="666" y="380" type="curve"/>
      <point x="523" y="392" type="line"/>
      <point x="536" y="221"/>
      <point x="436" y="111"/>
      <point x="276" y="111" type="curve" smooth="yes"/>
      <point x="211" y="111"/>
      <point x="178" y="138"/>
      <point x="178" y="185" type="curve" smooth="yes"/>
      <point x="178" y="226"/>
      <point x="210" y="246"/>
      <point x="283" y="286" type="curve" smooth="yes"/>
      <point x="402" y="351"/>
      <point x="529" y="395"/>
      <point x="529" y="544" type="curve" smooth="yes"/>
      <point x="529" y="672"/>
      <point x="433" y="715"/>
      <point x="322" y="715" type="curve" smooth="yes"/>
      <point x="189" y="715"/>
      <point x="86" y="654"/>
      <point x="86" y="530" type="curve" smooth="yes"/>
      <point x="86" y="391"/>
      <point x="245" y="253"/>
      <point x="432" y="61" type="curve" smooth="yes"/>
      <point x="501" y="-11"/>
      <point x="578" y="-25"/>
      <point x="693" y="-8" type="curve"/>
      <point x="706" y="96" type="line"/>
      <point x="624" y="89"/>
      <point x="612" y="85"/>
      <point x="554" y="141" type="curve" smooth="yes"/>
      <point x="402" y="287"/>
      <point x="254" y="417"/>
      <point x="254" y="532" type="curve" smooth="yes"/>
      <point x="254" y="578"/>
      <point x="288" y="593"/>
      <point x="314" y="593" type="curve" smooth="yes"/>
      <point x="335" y="593"/>
      <point x="364" y="582"/>
      <point x="364" y="538" type="curve" smooth="yes"/>
      <point x="364" y="474"/>
      <point x="321" y="444"/>
      <point x="235" y="403" type="curve" smooth="yes"/>
      <point x="130" y="353"/>
      <point x="0" y="294"/>
      <point x="0" y="169" type="curve" smooth="yes"/>
      <point x="0" y="47"/>
      <point x="105" y="-10"/>
    </contour>
  </outline>
</glyph>
<glyph name="quotesingle" format="2">
  <advance width="343"/>
  <unicode hex="0027"/>
  <outline>
    <contour>
      <point x="95" y="535" type="curve"/>
      <point x="208" y="552" type="line"/>
      <point x="208" y="548"/>
      <point x="211" y="633"/>
      <point x="215" y="678" type="curve" smooth="yes"/>
      <point x="220" y="723"/>
      <point x="229" y="773"/>
      <point x="229" y="771" type="curve"/>
      <point x="81" y="763" type="line"/>
      <point x="80" y="766"/>
      <point x="87" y="714"/>
      <point x="89" y="658" type="curve" smooth="yes"/>
      <point x="91" y="595"/>
      <point x="95" y="531"/>
    </contour>
  </outline>
</glyph>
<glyph name="parenleft" format="2">
  <advance width="504"/>
  <unicode hex="0028"/>
  <outline>
    <contour>
      <point x="372" y="-162" type="curve"/>
      <point x="399" y="-42" type="line"/>
      <point x="293" y="2"/>
      <point x="245" y="100"/>
      <point x="245" y="281" type="curve" smooth="yes"/>
      <point x="245" y="463"/>
      <point x="292" y="564"/>
      <point x="399" y="605" type="curve"/>
      <point x="372" y="725" type="line"/>
      <point x="218" y="699"/>
      <point x="85" y="578"/>
      <point x="85" y="281" type="curve" smooth="yes"/>
      <point x="85" y="-15"/>
      <point x="218" y="-136"/>
    </contour>
  </outline>
</glyph>
<glyph name="parenright" format="2">
  <advance width="504"/>
  <unicode hex="0029"/>
  <outline>
    <contour>
      <point x="123" y="725" type="curve"/>
      <point x="96" y="605" type="line"/>
      <point x="202" y="561"/>
      <point x="250" y="463"/>
      <point x="250" y="282" type="curve" smooth="yes"/>
      <point x="250" y="100"/>
      <point x="203" y="-1"/>
      <point x="96" y="-42" type="curve"/>
      <point x="123" y="-162" type="line"/>
      <point x="277" y="-136"/>
      <point x="410" y="-15"/>
      <point x="410" y="282" type="curve" smooth="yes"/>
      <point x="410" y="578"/>
      <point x="277" y="699"/>
    </contour>
  </outline>
</glyph>
<glyph name="asterisk" format="2">
  <advance width="686"/>
  <unicode hex="002A"/>
  <outline>
    <contour>
      <point x="469" y="441" type="curve"/>
      <point x="562" y="523" type="line"/>
      <point x="454" y="579"/>
      <point x="410" y="589"/>
      <point x="328" y="641" type="curve" smooth="yes"/>
      <point x="274" y="675"/>
      <point x="243" y="706"/>
      <point x="162" y="772" type="curve"/>
      <point x="90" y="675" type="line"/>
      <point x="85" y="678"/>
      <point x="233" y="607"/>
      <point x="293" y="573" type="curve" smooth="yes"/>
      <point x="349" y="542"/>
      <point x="473" y="438"/>
    </contour>
    <contour>
      <point x="149" y="425" type="line"/>
      <point x="143" y="420"/>
      <point x="294" y="540"/>
      <point x="350" y="573" type="curve" smooth="yes"/>
      <point x="409" y="608"/>
      <point x="547" y="671"/>
      <point x="542" y="669" type="curve"/>
      <point x="499" y="777" type="line"/>
      <point x="409" y="708"/>
      <point x="362" y="669"/>
      <point x="292" y="624" type="curve" smooth="yes"/>
      <point x="213" y="573"/>
      <point x="180" y="558"/>
      <point x="108" y="512" type="curve"/>
    </contour>
    <contour>
      <point x="385" y="366" type="line"/>
      <point x="385" y="361"/>
      <point x="363" y="540"/>
      <point x="363" y="615" type="curve" smooth="yes"/>
      <point x="363" y="692"/>
      <point x="383" y="828"/>
      <point x="383" y="824" type="curve"/>
      <point x="264" y="832" type="line"/>
      <point x="263" y="837"/>
      <point x="279" y="688"/>
      <point x="281" y="614" type="curve" smooth="yes"/>
      <point x="282" y="543"/>
      <point x="264" y="372"/>
      <point x="265" y="378" type="curve"/>
    </contour>
  </outline>
</glyph>
<glyph name="comma" format="2">
  <advance width="356"/>
  <unicode hex="002C"/>
  <outline>
    <contour>
      <point x="161" y="-178" type="line"/>
      <point x="216" y="-123"/>
      <point x="226" y="-61"/>
      <point x="226" y="18" type="curve" smooth="yes"/>
      <point x="226" y="186" type="line"/>
      <point x="96" y="178" type="line"/>
      <point x="98" y="1" type="line"/>
      <point x="156" y="-2" type="line"/>
      <point x="156" y="-47"/>
      <point x="150" y="-90"/>
      <point x="107" y="-141" type="curve"/>
    </contour>
  </outline>
</glyph>
<glyph name="period" format="2">
  <advance width="360"/>
  <unicode hex="002E"/>
  <outline>
    <contour>
      <point x="230" y="-3" type="line"/>
      <point x="229" y="195" type="line"/>
      <point x="96" y="187" type="line"/>
      <point x="99" y="-3" type="line"/>
    </contour>
  </outline>
</glyph>
<glyph name="slash" format="2">
  <advance width="412"/>
  <unicode hex="002F"/>
  <outline>
    <contour>
      <point x="-18" y="-1" type="curve"/>
      <point x="151" y="0" type="line"/>
      <point x="195" y="119"/>
      <point x="243" y="236"/>
      <point x="298" y="366" type="curve" smooth="yes"/>
      <point x="351" y="492"/>
      <point x="389" y="597"/>
      <point x="430" y="698" type="curve"/>
      <point x="259" y="700" type="line"/>
      <point x="223" y="579"/>
      <point x="190" y="483"/>
      <point x="142" y="367" type="curve" smooth="yes"/>
      <point x="90" y="241"/>
      <point x="44" y="128"/>
    </contour>
  </outline>
</glyph>
<glyph name="zero" format="2">
  <advance width="666"/>
  <unicode hex="0030"/>
  <outline>
    <contour>
      <point x="323" y="-10" type="curve" smooth="yes"/>
      <point x="562" y="-10"/>
      <point x="618" y="177"/>
      <point x="618" y="342" type="curve" smooth="yes"/>
      <point x="618" y="515"/>
      <point x="587" y="707"/>
      <point x="339" y="707" type="curve" smooth="yes"/>
      <point x="97" y="707"/>
      <point x="46" y="502"/>
      <point x="46" y="343" type="curve" smooth="yes"/>
      <point x="46" y="171"/>
      <point x="87" y="-10"/>
    </contour>
    <contour>
      <point x="329" y="128" type="curve" smooth="yes"/>
      <point x="248" y="128"/>
      <point x="221" y="191"/>
      <point x="221" y="338" type="curve" smooth="yes"/>
      <point x="221" y="498"/>
      <point x="255" y="566"/>
      <point x="336" y="566" type="curve" smooth="yes"/>
      <point x="416" y="566"/>
      <point x="445" y="509"/>
      <point x="445" y="353" type="curve" smooth="yes"/>
      <point x="445" y="191"/>
      <point x="416" y="128"/>
    </contour>
  </outline>
</glyph>
<glyph name="one" format="2">
  <advance width="404"/>
  <unicode hex="0031"/>
  <outline>
    <contour>
      <point x="186" y="0" type="curve"/>
      <point x="366" y="0" type="line"/>
      <point x="364" y="91"/>
      <point x="361" y="165"/>
      <point x="361" y="341" type="curve" smooth="yes"/>
      <point x="361" y="517"/>
      <point x="365" y="609"/>
      <point x="367" y="694" type="curve"/>
      <point x="288" y="694" type="line"/>
      <point x="189" y="621" type="line"/>
      <point x="190" y="545"/>
      <point x="191" y="421"/>
      <point x="191" y="342" type="curve" smooth="yes"/>
      <point x="191" y="223"/>
      <point x="191" y="98"/>
    </contour>
    <contour>
      <point x="21" y="506" type="line"/>
      <point x="72" y="505"/>
      <point x="209" y="506"/>
      <point x="306" y="529" type="curve"/>
      <point x="288" y="694" type="line"/>
      <point x="250" y="662"/>
      <point x="112" y="641"/>
      <point x="15" y="636" type="curve"/>
    </contour>
  </outline>
</glyph>
<glyph name="two" format="2">
  <advance width="621"/>
  <unicode hex="0032"/>
  <outline>
    <contour>
      <point x="206" y="76" type="line"/>
      <point x="383" y="149"/>
      <point x="582" y="310"/>
      <point x="582" y="489" type="curve" smooth="yes"/>
      <point x="582" y="656"/>
      <point x="450" y="700"/>
      <point x="322" y="700" type="curve" smooth="yes"/>
      <point x="126" y="700"/>
      <point x="52" y="584"/>
      <point x="52" y="464" type="curve" smooth="yes"/>
      <point x="52" y="437"/>
      <point x="56" y="410"/>
      <point x="63" y="384" type="curve"/>
      <point x="231" y="385" type="line"/>
      <point x="222" y="415"/>
      <point x="218" y="443"/>
      <point x="218" y="468" type="curve" smooth="yes"/>
      <point x="218" y="534"/>
      <point x="260" y="561"/>
      <point x="314" y="561" type="curve" smooth="yes"/>
      <point x="367" y="561"/>
      <point x="408" y="539"/>
      <point x="408" y="484" type="curve" smooth="yes"/>
      <point x="408" y="317"/>
      <point x="193" y="200"/>
      <point x="37" y="116" type="curve"/>
    </contour>
    <contour>
      <point x="35" y="-6" type="line"/>
      <point x="42" y="-5"/>
      <point x="305" y="0"/>
      <point x="310" y="0" type="curve" smooth="yes"/>
      <point x="336" y="0"/>
      <point x="581" y="0"/>
      <point x="590" y="0" type="curve"/>
      <point x="589" y="126" type="line"/>
      <point x="560" y="119"/>
      <point x="373" y="119"/>
      <point x="321" y="117" type="curve" smooth="yes"/>
      <point x="294" y="116"/>
      <point x="135" y="116"/>
      <point x="37" y="116" type="curve"/>
    </contour>
  </outline>
</glyph>
<glyph name="three" format="2">
  <advance width="580"/>
  <unicode hex="0033"/>
  <outline>
    <contour>
      <point x="279" y="-10" type="curve" smooth="yes"/>
      <point x="481" y="-10"/>
      <point x="558" y="81"/>
      <point x="560" y="182" type="curve" smooth="yes"/>
      <point x="561" y="245"/>
      <point x="527" y="302"/>
      <point x="429" y="314" type="curve"/>
      <point x="502" y="341"/>
      <point x="562" y="408"/>
      <point x="562" y="491" type="curve" smooth="yes"/>
      <point x="562" y="597"/>
      <point x="510" y="697"/>
      <point x="287" y="697" type="curve" smooth="yes"/>
      <point x="86" y="697"/>
      <point x="31" y="593"/>
      <point x="31" y="490" type="curve"/>
      <point x="203" y="489" type="line"/>
      <point x="204" y="518"/>
      <point x="218" y="556"/>
      <point x="289" y="556" type="curve" smooth="yes"/>
      <point x="359" y="556"/>
      <point x="387" y="527"/>
      <point x="387" y="477" type="curve" smooth="yes"/>
      <point x="387" y="421"/>
      <point x="352" y="369"/>
      <point x="234" y="369" type="curve" smooth="yes"/>
      <point x="180" y="369"/>
      <point x="135" y="369"/>
      <point x="117" y="370" type="curve"/>
      <point x="117" y="237" type="line"/>
      <point x="138" y="238"/>
      <point x="191" y="238"/>
      <point x="249" y="238" type="curve" smooth="yes"/>
      <point x="344" y="238"/>
      <point x="386" y="230"/>
      <point x="385" y="180" type="curve" smooth="yes"/>
      <point x="384" y="137"/>
      <point x="348" y="123"/>
      <point x="282" y="123" type="curve" smooth="yes"/>
      <point x="214" y="123"/>
      <point x="189" y="140"/>
      <point x="190" y="175" type="curve"/>
      <point x="17" y="175" type="line"/>
      <point x="17" y="75"/>
      <point x="72" y="-10"/>
    </contour>
  </outline>
</glyph>
<glyph name="four" format="2">
  <advance width="630"/>
  <unicode hex="0034"/>
  <outline>
    <contour>
      <point x="160" y="184" type="line"/>
      <point x="194" y="235"/>
      <point x="236" y="305"/>
      <point x="279" y="375" type="curve" smooth="yes"/>
      <point x="342" y="477"/>
      <point x="406" y="584"/>
      <point x="450" y="645" type="curve"/>
      <point x="467" y="691"/>
      <point x="517" y="698"/>
      <point x="515" y="696" type="curve"/>
      <point x="306" y="702" type="line"/>
      <point x="272" y="641"/>
      <point x="221" y="555"/>
      <point x="167" y="465" type="curve" smooth="yes"/>
      <point x="120" y="386"/>
      <point x="70" y="306"/>
      <point x="27" y="237" type="curve"/>
    </contour>
    <contour>
      <point x="43" y="95" type="line"/>
      <point x="119" y="97"/>
      <point x="254" y="99"/>
      <point x="318" y="100" type="curve" smooth="yes"/>
      <point x="426" y="102"/>
      <point x="566" y="99"/>
      <point x="601" y="100" type="curve"/>
      <point x="600" y="244" type="line"/>
      <point x="573" y="239"/>
      <point x="427" y="238"/>
      <point x="316" y="235" type="curve" smooth="yes"/>
      <point x="247" y="233"/>
      <point x="81" y="233"/>
      <point x="27" y="237" type="curve"/>
    </contour>
    <contour>
      <point x="343" y="-3" type="curve"/>
      <point x="514" y="0" type="line"/>
      <point x="513" y="49"/>
      <point x="511" y="107"/>
      <point x="511" y="306" type="curve" smooth="yes"/>
      <point x="511" y="483"/>
      <point x="512" y="601"/>
      <point x="515" y="696" type="curve"/>
      <point x="348" y="686" type="line"/>
      <point x="353" y="536"/>
      <point x="348" y="357"/>
      <point x="348" y="251" type="curve" smooth="yes"/>
      <point x="348" y="202"/>
      <point x="346" y="171"/>
    </contour>
  </outline>
</glyph>
<glyph name="five" format="2">
  <advance width="610"/>
  <unicode hex="0035"/>
  <outline>
    <contour>
      <point x="289" y="-10" type="curve" smooth="yes"/>
      <point x="514" y="-10"/>
      <point x="591" y="120"/>
      <point x="591" y="238" type="curve" smooth="yes"/>
      <point x="591" y="392"/>
      <point x="510" y="482"/>
      <point x="333" y="482" type="curve" smooth="yes"/>
      <point x="229" y="482"/>
      <point x="154" y="440"/>
      <point x="108" y="345" type="curve"/>
      <point x="201" y="297" type="line"/>
      <point x="221" y="320"/>
      <point x="249" y="340"/>
      <point x="309" y="340" type="curve" smooth="yes"/>
      <point x="382" y="340"/>
      <point x="417" y="301"/>
      <point x="417" y="235" type="curve" smooth="yes"/>
      <point x="417" y="188"/>
      <point x="385" y="122"/>
      <point x="295" y="122" type="curve" smooth="yes"/>
      <point x="208" y="122"/>
      <point x="188" y="157"/>
      <point x="191" y="208" type="curve"/>
      <point x="18" y="201" type="line"/>
      <point x="12" y="92"/>
      <point x="69" y="-10"/>
    </contour>
    <contour>
      <point x="201" y="297" type="line"/>
      <point x="201" y="291"/>
      <point x="205" y="433"/>
      <point x="209" y="502" type="curve" smooth="yes"/>
      <point x="211" y="540"/>
      <point x="211" y="624"/>
      <point x="217" y="695" type="curve"/>
      <point x="46" y="703" type="line"/>
      <point x="46" y="708"/>
      <point x="48" y="593"/>
      <point x="46" y="505" type="curve" smooth="yes"/>
      <point x="44" y="421"/>
      <point x="36" y="288"/>
      <point x="36" y="293" type="curve"/>
    </contour>
    <contour>
      <point x="71" y="552" type="line"/>
      <point x="69" y="552"/>
      <point x="154" y="554"/>
      <point x="307" y="554" type="curve" smooth="yes"/>
      <point x="406" y="554"/>
      <point x="517" y="553"/>
      <point x="544" y="552" type="curve"/>
      <point x="548" y="697" type="line"/>
      <point x="523" y="696"/>
      <point x="407" y="698"/>
      <point x="305" y="698" type="curve" smooth="yes"/>
      <point x="155" y="698"/>
      <point x="142" y="699"/>
      <point x="45" y="703" type="curve"/>
    </contour>
  </outline>
</glyph>
<glyph name="six" format="2">
  <advance width="641"/>
  <unicode hex="0036"/>
  <outline>
    <contour>
      <point x="318" y="-10" type="curve" smooth="yes"/>
      <point x="518" y="-10"/>
      <point x="596" y="97"/>
      <point x="596" y="207" type="curve" smooth="yes"/>
      <point x="596" y="330"/>
      <point x="508" y="405"/>
      <point x="352" y="405" type="curve" smooth="yes"/>
      <point x="247" y="405"/>
      <point x="176" y="359"/>
      <point x="161" y="251" type="curve"/>
      <point x="204" y="200" type="line"/>
      <point x="204" y="253"/>
      <point x="254" y="264"/>
      <point x="321" y="264" type="curve" smooth="yes"/>
      <point x="386" y="264"/>
      <point x="423" y="248"/>
      <point x="423" y="201" type="curve" smooth="yes"/>
      <point x="423" y="151"/>
      <point x="386" y="133"/>
      <point x="316" y="133" type="curve" smooth="yes"/>
      <point x="236" y="133"/>
      <point x="204" y="154"/>
      <point x="204" y="200" type="curve" smooth="yes"/>
      <point x="204" y="417"/>
      <point x="218" y="572"/>
      <point x="325" y="572" type="curve" smooth="yes"/>
      <point x="383" y="572"/>
      <point x="413" y="540"/>
      <point x="413" y="486" type="curve" smooth="yes"/>
      <point x="413" y="472"/>
      <point x="412" y="458"/>
      <point x="409" y="443" type="curve"/>
      <point x="582" y="445" type="line"/>
      <point x="586" y="465"/>
      <point x="587" y="485"/>
      <point x="587" y="504" type="curve" smooth="yes"/>
      <point x="587" y="620"/>
      <point x="519" y="713"/>
      <point x="327" y="713" type="curve" smooth="yes"/>
      <point x="109" y="713"/>
      <point x="30" y="566"/>
      <point x="30" y="321" type="curve" smooth="yes"/>
      <point x="30" y="104"/>
      <point x="95" y="-10"/>
    </contour>
  </outline>
</glyph>
<glyph name="seven" format="2">
  <advance width="509"/>
  <unicode hex="0037"/>
  <outline>
    <contour>
      <point x="95" y="-1" type="curve"/>
      <point x="284" y="0" type="line"/>
      <point x="276" y="106"/>
      <point x="299" y="218"/>
      <point x="338" y="324" type="curve" smooth="yes"/>
      <point x="373" y="420"/>
      <point x="420" y="480"/>
      <point x="474" y="558" type="curve"/>
      <point x="474" y="700" type="line"/>
      <point x="320" y="612"/>
      <point x="227" y="498"/>
      <point x="171" y="368" type="curve" smooth="yes"/>
      <point x="122" y="255"/>
      <point x="95" y="130"/>
    </contour>
    <contour>
      <point x="15" y="551" type="line"/>
      <point x="43" y="553"/>
      <point x="177" y="553"/>
      <point x="226" y="553" type="curve" smooth="yes"/>
      <point x="275" y="553"/>
      <point x="392" y="555"/>
      <point x="422" y="555" type="curve"/>
      <point x="474" y="700" type="line"/>
      <point x="448" y="698"/>
      <point x="290" y="697"/>
      <point x="239" y="698" type="curve" smooth="yes"/>
      <point x="188" y="699"/>
      <point x="52" y="699"/>
      <point x="14" y="700" type="curve"/>
    </contour>
  </outline>
</glyph>
<glyph name="eight" format="2">
  <advance width="615"/>
  <unicode hex="0038"/>
  <outline>
    <contour>
      <point x="293" y="237" type="curve" smooth="yes"/>
      <point x="499" y="237"/>
      <point x="572" y="347"/>
      <point x="572" y="468" type="curve" smooth="yes"/>
      <point x="572" y="608"/>
      <point x="504" y="707"/>
      <point x="305" y="707" type="curve" smooth="yes"/>
      <point x="105" y="707"/>
      <point x="31" y="594"/>
      <point x="31" y="459" type="curve" smooth="yes"/>
      <point x="31" y="344"/>
      <point x="106" y="237"/>
    </contour>
    <contour>
      <point x="291" y="-10" type="curve" smooth="yes"/>
      <point x="514" y="-10"/>
      <point x="596" y="75"/>
      <point x="596" y="174" type="curve" smooth="yes"/>
      <point x="596" y="294"/>
      <point x="508" y="366"/>
      <point x="306" y="366" type="curve" smooth="yes"/>
      <point x="99" y="366"/>
      <point x="7" y="288"/>
      <point x="7" y="166" type="curve" smooth="yes"/>
      <point x="7" y="77"/>
      <point x="90" y="-10"/>
    </contour>
    <contour>
      <point x="297" y="120" type="curve" smooth="yes"/>
      <point x="212" y="120"/>
      <point x="180" y="139"/>
      <point x="180" y="179" type="curve" smooth="yes"/>
      <point x="180" y="219"/>
      <point x="221" y="236"/>
      <point x="301" y="236" type="curve" smooth="yes"/>
      <point x="387" y="236"/>
      <point x="424" y="227"/>
      <point x="424" y="178" type="curve" smooth="yes"/>
      <point x="424" y="139"/>
      <point x="384" y="120"/>
    </contour>
    <contour>
      <point x="301" y="367" type="curve" smooth="yes"/>
      <point x="239" y="367"/>
      <point x="206" y="406"/>
      <point x="206" y="464" type="curve" smooth="yes"/>
      <point x="206" y="528"/>
      <point x="236" y="571"/>
      <point x="304" y="571" type="curve" smooth="yes"/>
      <point x="373" y="571"/>
      <point x="398" y="537"/>
      <point x="398" y="457" type="curve" smooth="yes"/>
      <point x="398" y="412"/>
      <point x="366" y="367"/>
    </contour>
  </outline>
</glyph>
<glyph name="nine" format="2">
  <advance width="641"/>
  <unicode hex="0039"/>
  <outline>
    <contour>
      <point x="299" y="-10" type="curve" smooth="yes"/>
      <point x="517" y="-10"/>
      <point x="596" y="137"/>
      <point x="596" y="382" type="curve" smooth="yes"/>
      <point x="596" y="599"/>
      <point x="531" y="713"/>
      <point x="308" y="713" type="curve" smooth="yes"/>
      <point x="108" y="713"/>
      <point x="30" y="594"/>
      <point x="30" y="466" type="curve" smooth="yes"/>
      <point x="30" y="323"/>
      <point x="113" y="238"/>
      <point x="284" y="238" type="curve" smooth="yes"/>
      <point x="374" y="238"/>
      <point x="444" y="282"/>
      <point x="465" y="422" type="curve"/>
      <point x="422" y="473" type="line"/>
      <point x="422" y="398"/>
      <point x="372" y="378"/>
      <point x="305" y="378" type="curve" smooth="yes"/>
      <point x="240" y="378"/>
      <point x="203" y="413"/>
      <point x="203" y="472" type="curve" smooth="yes"/>
      <point x="203" y="535"/>
      <point x="240" y="570"/>
      <point x="310" y="570" type="curve" smooth="yes"/>
      <point x="390" y="570"/>
      <point x="422" y="537"/>
      <point x="422" y="473" type="curve" smooth="yes"/>
      <point x="422" y="256"/>
      <point x="408" y="131"/>
      <point x="301" y="131" type="curve" smooth="yes"/>
      <point x="249" y="131"/>
      <point x="216" y="147"/>
      <point x="216" y="187" type="curve" smooth="yes"/>
      <point x="216" y="191"/>
      <point x="216" y="195"/>
      <point x="217" y="200" type="curve"/>
      <point x="44" y="198" type="line"/>
      <point x="42" y="185"/>
      <point x="41" y="173"/>
      <point x="41" y="161" type="curve" smooth="yes"/>
      <point x="41" y="58"/>
      <point x="124" y="-10"/>
    </contour>
  </outline>
</glyph>
<glyph name="colon" format="2">
  <advance width="360"/>
  <unicode hex="003A"/>
  <outline>
    <contour>
      <point x="230" y="-3" type="line"/>
      <point x="230" y="194" type="line"/>
      <point x="96" y="179" type="line"/>
      <point x="99" y="-3" type="line"/>
    </contour>
    <contour>
      <point x="230" y="363" type="line"/>
      <point x="230" y="559" type="line"/>
      <point x="96" y="545" type="line"/>
      <point x="99" y="363" type="line"/>
    </contour>
  </outline>
</glyph>
<glyph name="semicolon" format="2">
  <advance width="358"/>
  <unicode hex="003B"/>
  <outline>
    <contour>
      <point x="158" y="-178" type="line"/>
      <point x="212" y="-123"/>
      <point x="222" y="-61"/>
      <point x="222" y="18" type="curve" smooth="yes"/>
      <point x="222" y="186" type="line"/>
      <point x="96" y="178" type="line"/>
      <point x="98" y="1" type="line"/>
      <point x="153" y="-2" type="line"/>
      <point x="153" y="-47"/>
      <point x="146" y="-90"/>
      <point x="103" y="-141" type="curve"/>
    </contour>
    <contour>
      <point x="228" y="363" type="line"/>
      <point x="228" y="559" type="line"/>
      <point x="100" y="545" type="line"/>
      <point x="103" y="363" type="line"/>
    </contour>
  </outline>
</glyph>
<glyph name="less" format="2">
  <advance width="638"/>
  <unicode hex="003C"/>
  <outline>
    <contour>
      <point x="609" y="542" type="line"/>
      <point x="535" y="523"/>
      <point x="433" y="496"/>
      <point x="328" y="471" type="curve" smooth="yes"/>
      <point x="216" y="442"/>
      <point x="98" y="415"/>
      <point x="3" y="390" type="curve"/>
      <point x="7" y="275" type="line"/>
      <point x="75" y="290"/>
      <point x="239" y="327"/>
      <point x="381" y="359" type="curve" smooth="yes"/>
      <point x="483" y="382"/>
      <point x="573" y="403"/>
      <point x="607" y="411" type="curve"/>
    </contour>
    <contour>
      <point x="607" y="117" type="curve"/>
      <point x="611" y="250" type="line"/>
      <point x="570" y="258"/>
      <point x="482" y="279"/>
      <point x="384" y="302" type="curve" smooth="yes"/>
      <point x="238" y="335"/>
      <point x="69" y="375"/>
      <point x="3" y="390" type="curve"/>
      <point x="7" y="275" type="line"/>
      <point x="89" y="253"/>
      <point x="210" y="222"/>
      <point x="327" y="190" type="curve" smooth="yes"/>
      <point x="432" y="163"/>
      <point x="536" y="135"/>
    </contour>
  </outline>
</glyph>
<glyph name="greater" format="2">
  <advance width="638"/>
  <unicode hex="003E"/>
  <outline>
    <contour>
      <point x="4" y="117" type="line"/>
      <point x="79" y="136"/>
      <point x="180" y="163"/>
      <point x="286" y="188" type="curve" smooth="yes"/>
      <point x="398" y="217"/>
      <point x="516" y="244"/>
      <point x="611" y="268" type="curve"/>
      <point x="607" y="384" type="line"/>
      <point x="539" y="368"/>
      <point x="375" y="332"/>
      <point x="233" y="300" type="curve" smooth="yes"/>
      <point x="131" y="277"/>
      <point x="41" y="256"/>
      <point x="7" y="247" type="curve"/>
    </contour>
    <contour>
      <point x="7" y="542" type="curve"/>
      <point x="3" y="409" type="line"/>
      <point x="44" y="400"/>
      <point x="132" y="379"/>
      <point x="230" y="356" type="curve" smooth="yes"/>
      <point x="376" y="323"/>
      <point x="545" y="284"/>
      <point x="611" y="268" type="curve"/>
      <point x="607" y="384" type="line"/>
      <point x="525" y="406"/>
      <point x="404" y="437"/>
      <point x="287" y="469" type="curve" smooth="yes"/>
      <point x="182" y="496"/>
      <point x="78" y="524"/>
    </contour>
  </outline>
</glyph>
<glyph name="question" format="2">
  <advance width="696"/>
  <unicode hex="003F"/>
  <outline>
    <contour>
      <point x="421" y="213" type="line"/>
      <point x="413" y="248"/>
      <point x="410" y="270"/>
      <point x="410" y="286" type="curve" smooth="yes"/>
      <point x="410" y="318"/>
      <point x="455" y="339"/>
      <point x="503" y="368" type="curve" smooth="yes"/>
      <point x="558" y="401"/>
      <point x="617" y="446"/>
      <point x="617" y="531" type="curve" smooth="yes"/>
      <point x="617" y="645"/>
      <point x="526" y="716"/>
      <point x="355" y="716" type="curve" smooth="yes"/>
      <point x="162" y="716"/>
      <point x="77" y="616"/>
      <point x="77" y="512" type="curve" smooth="yes"/>
      <point x="77" y="487"/>
      <point x="82" y="461"/>
      <point x="92" y="436" type="curve"/>
      <point x="260" y="435" type="line"/>
      <point x="252" y="454"/>
      <point x="247" y="475"/>
      <point x="247" y="497" type="curve" smooth="yes"/>
      <point x="247" y="553"/>
      <point x="281" y="580"/>
      <point x="349" y="580" type="curve" smooth="yes"/>
      <point x="401" y="580"/>
      <point x="450" y="564"/>
      <point x="450" y="518" type="curve" smooth="yes"/>
      <point x="450" y="481"/>
      <point x="424" y="457"/>
      <point x="392" y="436" type="curve" smooth="yes"/>
      <point x="336" y="399"/>
      <point x="260" y="368"/>
      <point x="260" y="285" type="curve" smooth="yes"/>
      <point x="260" y="266"/>
      <point x="263" y="246"/>
      <point x="270" y="214" type="curve"/>
    </contour>
    <contour>
      <point x="421" y="-3" type="line"/>
      <point x="409" y="167" type="line"/>
      <point x="277" y="165" type="line"/>
      <point x="276" y="0" type="line"/>
    </contour>
  </outline>
</glyph>
<glyph name="A" format="2">
  <advance width="564"/>
  <unicode hex="0041"/>
  <anchor x="273" y="0" name="bottom"/>
  <anchor x="462" y="-1" name="ogonek"/>
  <anchor x="284" y="693" name="top"/>
  <outline>
    <contour>
      <point x="382" y="-5" type="curve"/>
      <point x="573" y="0" type="line"/>
      <point x="544" y="99"/>
      <point x="509" y="221"/>
      <point x="475" y="346" type="curve" smooth="yes"/>
      <point x="441" y="471"/>
      <point x="408" y="598"/>
      <point x="382" y="705" type="curve"/>
      <point x="188" y="697" type="line"/>
      <point x="245" y="638" type="line"/>
      <point x="270" y="524"/>
      <point x="294" y="416"/>
      <point x="315" y="317" type="curve" smooth="yes"/>
      <point x="341" y="195"/>
      <point x="364" y="86"/>
    </contour>
    <contour>
      <point x="123" y="97" type="line"/>
      <point x="439" y="104" type="line"/>
      <point x="439" y="235" type="line"/>
      <point x="123" y="238" type="line"/>
    </contour>
    <contour>
      <point x="183" y="6" type="line"/>
      <point x="209" y="126"/>
      <point x="233" y="233"/>
      <point x="252" y="323" type="curve" smooth="yes"/>
      <point x="289" y="497"/>
      <point x="314" y="608"/>
      <point x="321" y="630" type="curve"/>
      <point x="382" y="705" type="line"/>
      <point x="188" y="697" type="line"/>
      <point x="163" y="602"/>
      <point x="128" y="472"/>
      <point x="93" y="346" type="curve" smooth="yes"/>
      <point x="56" y="212"/>
      <point x="20" y="83"/>
      <point x="-3" y="7" type="curve"/>
    </contour>
  </outline>
</glyph>
<glyph name="B" format="2">
  <advance width="572"/>
  <unicode hex="0042"/>
  <outline>
    <contour>
      <point x="131" y="240" type="line"/>
      <point x="381" y="240"/>
      <point x="557" y="304"/>
      <point x="557" y="487" type="curve" smooth="yes"/>
      <point x="557" y="659"/>
      <point x="438" y="719"/>
      <point x="206" y="719" type="curve" smooth="yes"/>
      <point x="158" y="719"/>
      <point x="92" y="717"/>
      <point x="35" y="713" type="curve"/>
      <point x="100" y="570" type="line"/>
      <point x="154" y="575"/>
      <point x="201" y="579"/>
      <point x="242" y="579" type="curve" smooth="yes"/>
      <point x="325" y="579"/>
      <point x="389" y="564"/>
      <point x="389" y="471" type="curve" smooth="yes"/>
      <point x="389" y="349"/>
      <point x="319" y="338"/>
      <point x="127" y="338" type="curve"/>
    </contour>
    <contour>
      <point x="223" y="-10" type="curve" smooth="yes"/>
      <point x="454" y="-10"/>
      <point x="564" y="31"/>
      <point x="564" y="157" type="curve" smooth="yes"/>
      <point x="564" y="262"/>
      <point x="428" y="339"/>
      <point x="127" y="338" type="curve"/>
      <point x="131" y="203" type="line"/>
      <point x="189" y="204"/>
      <point x="239" y="206"/>
      <point x="282" y="206" type="curve" smooth="yes"/>
      <point x="335" y="206"/>
      <point x="396" y="205"/>
      <point x="396" y="159" type="curve" smooth="yes"/>
      <point x="396" y="113"/>
      <point x="333" y="106"/>
      <point x="269" y="106" type="curve" smooth="yes"/>
      <point x="222" y="106"/>
      <point x="168" y="110"/>
      <point x="108" y="116" type="curve"/>
      <point x="39" y="-5" type="line"/>
      <point x="99" y="-8"/>
      <point x="182" y="-10"/>
    </contour>
    <contour>
      <point x="39" y="-5" type="curve"/>
      <point x="221" y="3" type="line"/>
      <point x="221" y="3"/>
      <point x="218" y="268"/>
      <point x="218" y="353" type="curve"/>
      <point x="218" y="468"/>
      <point x="220" y="704"/>
      <point x="220" y="704" type="curve"/>
      <point x="35" y="713" type="line"/>
      <point x="35" y="713"/>
      <point x="43" y="525"/>
      <point x="43" y="355" type="curve"/>
      <point x="43" y="187"/>
      <point x="39" y="-5"/>
    </contour>
  </outline>
</glyph>
<glyph name="C" format="2">
  <advance width="528"/>
  <unicode hex="0043"/>
  <anchor x="272" y="0" name="bottom"/>
  <anchor x="280" y="693" name="top"/>
  <outline>
    <contour>
      <point x="270" y="-10" type="curve"/>
      <point x="424" y="-10"/>
      <point x="508" y="59"/>
      <point x="508" y="186" type="curve" smooth="yes"/>
      <point x="508" y="195"/>
      <point x="507" y="206"/>
      <point x="506" y="216" type="curve"/>
      <point x="336" y="214" type="line"/>
      <point x="337" y="208"/>
      <point x="337" y="202"/>
      <point x="337" y="197" type="curve" smooth="yes"/>
      <point x="337" y="161"/>
      <point x="318" y="135"/>
      <point x="278" y="135" type="curve" smooth="yes"/>
      <point x="243" y="135"/>
      <point x="223" y="154"/>
      <point x="213" y="196" type="curve" smooth="yes"/>
      <point x="206" y="226"/>
      <point x="203" y="268"/>
      <point x="203" y="323" type="curve" smooth="yes"/>
      <point x="203" y="389"/>
      <point x="206" y="447"/>
      <point x="217" y="489" type="curve" smooth="yes"/>
      <point x="228" y="531"/>
      <point x="246" y="557"/>
      <point x="278" y="557" type="curve" smooth="yes"/>
      <point x="324" y="557"/>
      <point x="339" y="524"/>
      <point x="339" y="461" type="curve" smooth="yes"/>
      <point x="339" y="429"/>
      <point x="336" y="390"/>
      <point x="330" y="343" type="curve"/>
      <point x="505" y="343" type="line"/>
      <point x="511" y="385"/>
      <point x="514" y="424"/>
      <point x="514" y="459" type="curve" smooth="yes"/>
      <point x="514" y="612"/>
      <point x="452" y="701"/>
      <point x="280" y="701" type="curve" smooth="yes"/>
      <point x="167" y="701"/>
      <point x="95" y="646"/>
      <point x="57" y="560" type="curve" smooth="yes"/>
      <point x="32" y="503"/>
      <point x="20" y="432"/>
      <point x="20" y="355" type="curve" smooth="yes"/>
      <point x="20" y="264"/>
      <point x="30" y="183"/>
      <point x="58" y="121" type="curve" smooth="yes"/>
      <point x="94" y="40"/>
      <point x="159" y="-10"/>
    </contour>
  </outline>
</glyph>
<glyph name="D" format="2">
  <advance width="571"/>
  <unicode hex="0044"/>
  <anchor x="164" y="348" name="center"/>
  <anchor x="275" y="693" name="top"/>
  <outline>
    <contour>
      <point x="182" y="-11" type="curve" smooth="yes"/>
      <point x="444" y="-11"/>
      <point x="548" y="78"/>
      <point x="548" y="360" type="curve" smooth="yes"/>
      <point x="548" y="613"/>
      <point x="459" y="708"/>
      <point x="229" y="708" type="curve" smooth="yes"/>
      <point x="179" y="708"/>
      <point x="108" y="703"/>
      <point x="44" y="695" type="curve"/>
      <point x="119" y="558" type="line"/>
      <point x="167" y="566"/>
      <point x="218" y="570"/>
      <point x="252" y="570" type="curve" smooth="yes"/>
      <point x="334" y="570"/>
      <point x="363" y="506"/>
      <point x="363" y="362" type="curve" smooth="yes"/>
      <point x="363" y="204"/>
      <point x="344" y="127"/>
      <point x="245" y="127" type="curve" smooth="yes"/>
      <point x="214" y="127"/>
      <point x="149" y="129"/>
      <point x="108" y="134" type="curve"/>
      <point x="47" y="-6" type="line"/>
      <point x="90" y="-9"/>
      <point x="145" y="-11"/>
    </contour>
    <contour>
      <point x="47" y="-6" type="curve"/>
      <point x="229" y="-4" type="line"/>
      <point x="228" y="98"/>
      <point x="226" y="265"/>
      <point x="226" y="350" type="curve"/>
      <point x="226" y="454"/>
      <point x="227" y="548"/>
      <point x="229" y="691" type="curve"/>
      <point x="44" y="695" type="line"/>
      <point x="47" y="610"/>
      <point x="51" y="457"/>
      <point x="51" y="350" type="curve"/>
      <point x="51" y="227"/>
      <point x="49" y="74"/>
    </contour>
  </outline>
</glyph>
<glyph name="E" format="2">
  <advance width="520"/>
  <unicode hex="0045"/>
  <anchor x="267" y="0" name="bottom"/>
  <anchor x="375" y="-1" name="ogonek"/>
  <anchor x="269" y="693" name="top"/>
  <outline>
    <contour>
      <point x="58" y="-1" type="curve"/>
      <point x="243" y="3" type="line"/>
      <point x="243" y="3"/>
      <point x="240" y="223"/>
      <point x="240" y="341" type="curve"/>
      <point x="240" y="457"/>
      <point x="243" y="688"/>
      <point x="243" y="688" type="curve"/>
      <point x="54" y="702" type="line"/>
      <point x="54" y="702"/>
      <point x="62" y="513"/>
      <point x="62" y="342" type="curve"/>
      <point x="62" y="173"/>
      <point x="58" y="-1"/>
    </contour>
    <contour>
      <point x="58" y="-1" type="line"/>
      <point x="473" y="0" type="line"/>
      <point x="472" y="126" type="line"/>
      <point x="129" y="131" type="line"/>
    </contour>
    <contour>
      <point x="125" y="211" type="line"/>
      <point x="468" y="216" type="line"/>
      <point x="470" y="354" type="line"/>
      <point x="125" y="358" type="line"/>
    </contour>
    <contour>
      <point x="116" y="560" type="line"/>
      <point x="461" y="561" type="line"/>
      <point x="461" y="693" type="line"/>
      <point x="54" y="702" type="line"/>
    </contour>
  </outline>
</glyph>
<glyph name="F" format="2">
  <advance width="470"/>
  <unicode hex="0046"/>
  <outline>
    <contour>
      <point x="48" y="4" type="curve"/>
      <point x="234" y="4" type="line"/>
      <point x="234" y="4"/>
      <point x="231" y="238"/>
      <point x="231" y="361" type="curve"/>
      <point x="231" y="477"/>
      <point x="234" y="693"/>
      <point x="234" y="693" type="curve"/>
      <point x="44" y="707" type="line"/>
      <point x="44" y="707"/>
      <point x="52" y="532"/>
      <point x="52" y="361" type="curve"/>
      <point x="52" y="192"/>
      <point x="48" y="4"/>
    </contour>
    <contour>
      <point x="115" y="231" type="line"/>
      <point x="438" y="234" type="line"/>
      <point x="436" y="379" type="line"/>
      <point x="115" y="382" type="line"/>
    </contour>
    <contour>
      <point x="103" y="560" type="line"/>
      <point x="433" y="560" type="line"/>
      <point x="436" y="698" type="line"/>
      <point x="44" y="707" type="line"/>
    </contour>
  </outline>
</glyph>
<glyph name="G" format="2">
  <advance width="537"/>
  <unicode hex="0047"/>
  <anchor x="283" y="0" name="bottom"/>
  <anchor x="278" y="693" name="top"/>
  <outline>
    <contour>
      <point x="17" y="340" type="curve" smooth="yes"/>
      <point x="17" y="252"/>
      <point x="29" y="172"/>
      <point x="59" y="111" type="curve" smooth="yes"/>
      <point x="95" y="38"/>
      <point x="160" y="-8"/>
      <point x="260" y="-8" type="curve" smooth="yes"/>
      <point x="316" y="-8"/>
      <point x="353" y="12"/>
      <point x="379" y="53" type="curve"/>
      <point x="394" y="0" type="line"/>
      <point x="512" y="0" type="line"/>
      <point x="510" y="317" type="line"/>
      <point x="282" y="319" type="line"/>
      <point x="282" y="190" type="line"/>
      <point x="356" y="192" type="line"/>
      <point x="357" y="188"/>
      <point x="357" y="185"/>
      <point x="357" y="181" type="curve" smooth="yes"/>
      <point x="357" y="154"/>
      <point x="332" y="131"/>
      <point x="282" y="131" type="curve" smooth="yes"/>
      <point x="245" y="131"/>
      <point x="223" y="154"/>
      <point x="212" y="199" type="curve" smooth="yes"/>
      <point x="205" y="229"/>
      <point x="201" y="269"/>
      <point x="201" y="318" type="curve" smooth="yes"/>
      <point x="201" y="396"/>
      <point x="204" y="463"/>
      <point x="216" y="508" type="curve" smooth="yes"/>
      <point x="227" y="551"/>
      <point x="246" y="576"/>
      <point x="279" y="576" type="curve" smooth="yes"/>
      <point x="318" y="576"/>
      <point x="333" y="547"/>
      <point x="333" y="493" type="curve" smooth="yes"/>
      <point x="333" y="467"/>
      <point x="330" y="435"/>
      <point x="324" y="398" type="curve"/>
      <point x="499" y="397" type="line"/>
      <point x="507" y="433"/>
      <point x="511" y="467"/>
      <point x="511" y="498" type="curve" smooth="yes"/>
      <point x="511" y="625"/>
      <point x="444" y="714"/>
      <point x="283" y="714" type="curve" smooth="yes"/>
      <point x="170" y="714"/>
      <point x="99" y="657"/>
      <point x="59" y="570" type="curve" smooth="yes"/>
      <point x="30" y="506"/>
      <point x="17" y="426"/>
    </contour>
  </outline>
</glyph>
<glyph name="H" format="2">
  <advance width="623"/>
  <unicode hex="0048"/>
  <anchor x="312" y="0" name="bottom"/>
  <anchor x="311" y="459" name="center"/>
  <anchor x="311" y="693" name="top"/>
  <outline>
    <contour>
      <point x="373" y="0" type="curve"/>
      <point x="564" y="0" type="line"/>
      <point x="561" y="97"/>
      <point x="560" y="241"/>
      <point x="560" y="383" type="curve" smooth="yes"/>
      <point x="560" y="518"/>
      <point x="564" y="619"/>
      <point x="567" y="708" type="curve"/>
      <point x="377" y="706" type="line"/>
      <point x="379" y="627"/>
      <point x="380" y="463"/>
      <point x="380" y="381" type="curve" smooth="yes"/>
      <point x="380" y="297"/>
      <point x="377" y="118"/>
    </contour>
    <contour>
      <point x="124" y="308" type="line"/>
      <point x="124" y="164" type="line"/>
      <point x="508" y="159" type="line"/>
      <point x="508" y="314" type="line"/>
    </contour>
    <contour>
      <point x="59" y="2" type="curve"/>
      <point x="245" y="3" type="line"/>
      <point x="245" y="80"/>
      <point x="242" y="285"/>
      <point x="242" y="352" type="curve" smooth="yes"/>
      <point x="242" y="440"/>
      <point x="245" y="623"/>
      <point x="245" y="698" type="curve"/>
      <point x="56" y="694" type="line"/>
      <point x="58" y="621"/>
      <point x="63" y="480"/>
      <point x="63" y="353" type="curve" smooth="yes"/>
      <point x="63" y="233"/>
      <point x="62" y="98"/>
    </contour>
  </outline>
</glyph>
<glyph name="I" format="2">
  <advance width="265"/>
  <unicode hex="0049"/>
  <anchor x="129" y="0" name="bottom"/>
  <anchor x="109" y="0" name="ogonek"/>
  <anchor x="131" y="693" name="top"/>
  <outline>
    <contour>
      <point x="42" y="702" type="line"/>
      <point x="46" y="626"/>
      <point x="46" y="470"/>
      <point x="46" y="396" type="curve"/>
      <point x="46" y="296"/>
      <point x="38" y="0"/>
      <point x="38" y="0" type="curve"/>
      <point x="228" y="1" type="line"/>
      <point x="228" y="1"/>
      <point x="225" y="212"/>
      <point x="225" y="398" type="curve"/>
      <point x="225" y="585"/>
      <point x="231" y="704"/>
      <point x="231" y="704" type="curve"/>
    </contour>
  </outline>
</glyph>
<glyph name="J" format="2">
  <advance width="515"/>
  <unicode hex="004A"/>
  <anchor x="413" y="693" name="top"/>
  <outline>
    <contour>
      <point x="239" y="-10" type="curve" smooth="yes"/>
      <point x="437" y="-10"/>
      <point x="488" y="102"/>
      <point x="488" y="238" type="curve" smooth="yes"/>
      <point x="488" y="308"/>
      <point x="488" y="357"/>
      <point x="488" y="425" type="curve"/>
      <point x="488" y="515"/>
      <point x="488" y="606"/>
      <point x="490" y="699" type="curve"/>
      <point x="320" y="697" type="line"/>
      <point x="324" y="610"/>
      <point x="325" y="487"/>
      <point x="325" y="419" type="curve"/>
      <point x="326" y="334"/>
      <point x="326" y="300"/>
      <point x="326" y="250" type="curve" smooth="yes"/>
      <point x="326" y="193"/>
      <point x="314" y="124"/>
      <point x="242" y="124" type="curve" smooth="yes"/>
      <point x="191" y="124"/>
      <point x="166" y="157"/>
      <point x="166" y="213" type="curve" smooth="yes"/>
      <point x="166" y="236"/>
      <point x="168" y="262"/>
      <point x="172" y="291" type="curve"/>
      <point x="10" y="292" type="line"/>
      <point x="4" y="258"/>
      <point x="1" y="227"/>
      <point x="1" y="198" type="curve" smooth="yes"/>
      <point x="1" y="70"/>
      <point x="61" y="-10"/>
    </contour>
  </outline>
</glyph>
<glyph name="K" format="2">
  <advance width="537"/>
  <unicode hex="004B"/>
  <anchor x="274" y="0" name="bottom"/>
  <outline>
    <contour>
      <point x="354" y="1" type="curve"/>
      <point x="576" y="6" type="line"/>
      <point x="461" y="128"/>
      <point x="396" y="209"/>
      <point x="330" y="297" type="curve"/>
      <point x="389" y="401"/>
      <point x="496" y="592"/>
      <point x="571" y="705" type="curve"/>
      <point x="368" y="702" type="line"/>
      <point x="317" y="596"/>
      <point x="226" y="422"/>
      <point x="134" y="271" type="curve"/>
      <point x="213" y="191"/>
      <point x="281" y="102"/>
    </contour>
    <contour>
      <point x="39" y="2" type="curve"/>
      <point x="225" y="3" type="line"/>
      <point x="223" y="80"/>
      <point x="222" y="285"/>
      <point x="222" y="352" type="curve" smooth="yes"/>
      <point x="222" y="440"/>
      <point x="225" y="623"/>
      <point x="225" y="698" type="curve"/>
      <point x="36" y="704" type="line"/>
      <point x="38" y="631"/>
      <point x="43" y="480"/>
      <point x="43" y="353" type="curve" smooth="yes"/>
      <point x="43" y="233"/>
      <point x="42" y="98"/>
    </contour>
  </outline>
</glyph>
<glyph name="L" format="2">
  <advance width="460"/>
  <unicode hex="004C"/>
  <anchor x="263" y="0" name="bottom"/>
  <anchor x="214" y="377" name="center"/>
  <anchor x="173" y="693" name="top"/>
  <anchor x="268" y="478" name="topright"/>
  <outline>
    <contour>
      <point x="56" y="-4" type="curve"/>
      <point x="242" y="3" type="line"/>
      <point x="241" y="99"/>
      <point x="240" y="258"/>
      <point x="240" y="343" type="curve"/>
      <point x="240" y="428"/>
      <point x="241" y="598"/>
      <point x="242" y="703" type="curve"/>
      <point x="52" y="696" type="line"/>
      <point x="55" y="619"/>
      <point x="60" y="470"/>
      <point x="60" y="345" type="curve"/>
      <point x="60" y="222"/>
      <point x="58" y="73"/>
    </contour>
    <contour>
      <point x="56" y="-4" type="line"/>
      <point x="456" y="-1" type="line"/>
      <point x="456" y="130" type="line"/>
      <point x="127" y="133" type="line"/>
    </contour>
  </outline>
</glyph>
<glyph name="M" format="2">
  <advance width="829"/>
  <unicode hex="004D"/>
  <outline>
    <contour>
      <point x="53" y="-1" type="curve"/>
      <point x="224" y="-1" type="line"/>
      <point x="224" y="52"/>
      <point x="223" y="137"/>
      <point x="222" y="216" type="curve" smooth="yes"/>
      <point x="221" y="289"/>
      <point x="221" y="358"/>
      <point x="221" y="393" type="curve"/>
      <point x="238" y="342"/>
      <point x="253" y="293"/>
      <point x="268" y="246" type="curve" smooth="yes"/>
      <point x="295" y="161"/>
      <point x="318" y="85"/>
      <point x="341" y="18" type="curve"/>
      <point x="481" y="12" type="line"/>
      <point x="499" y="70"/>
      <point x="523" y="152"/>
      <point x="547" y="231" type="curve" smooth="yes"/>
      <point x="568" y="299"/>
      <point x="587" y="366"/>
      <point x="602" y="413" type="curve"/>
      <point x="602" y="345"/>
      <point x="602" y="286"/>
      <point x="602" y="236" type="curve" smooth="yes"/>
      <point x="602" y="89"/>
      <point x="602" y="16"/>
      <point x="601" y="0" type="curve"/>
      <point x="776" y="-2" type="line"/>
      <point x="775" y="59"/>
      <point x="774" y="180"/>
      <point x="773" y="305" type="curve" smooth="yes"/>
      <point x="772" y="464"/>
      <point x="773" y="632"/>
      <point x="775" y="697" type="curve"/>
      <point x="546" y="697" type="line"/>
      <point x="514" y="591"/>
      <point x="488" y="498"/>
      <point x="462" y="413" type="curve" smooth="yes"/>
      <point x="445" y="358"/>
      <point x="430" y="307"/>
      <point x="413" y="257" type="curve"/>
      <point x="401" y="294"/>
      <point x="389" y="332"/>
      <point x="377" y="371" type="curve" smooth="yes"/>
      <point x="344" y="478"/>
      <point x="313" y="593"/>
      <point x="281" y="704" type="curve"/>
      <point x="54" y="702" type="line"/>
      <point x="55" y="600"/>
      <point x="56" y="441"/>
      <point x="55" y="294" type="curve" smooth="yes"/>
      <point x="54" y="178"/>
      <point x="54" y="69"/>
    </contour>
  </outline>
</glyph>
<glyph name="P" format="2">
  <advance width="529"/>
  <unicode hex="0050"/>
  <outline>
    <contour>
      <point x="135" y="196" type="line"/>
      <point x="386" y="196"/>
      <point x="537" y="266"/>
      <point x="537" y="476" type="curve" smooth="yes"/>
      <point x="537" y="665"/>
      <point x="433" y="718"/>
      <point x="215" y="718" type="curve" smooth="yes"/>
      <point x="170" y="718"/>
      <point x="91" y="716"/>
      <point x="38" y="712" type="curve"/>
      <point x="103" y="570" type="line"/>
      <point x="150" y="576"/>
      <point x="209" y="580"/>
      <point x="247" y="580" type="curve" smooth="yes"/>
      <point x="303" y="580"/>
      <point x="354" y="554"/>
      <point x="354" y="473" type="curve" smooth="yes"/>
      <point x="354" y="361"/>
      <point x="302" y="327"/>
      <point x="135" y="336" type="curve"/>
    </contour>
    <contour>
      <point x="42" y="-5" type="curve"/>
      <point x="229" y="5" type="line"/>
      <point x="228" y="99"/>
      <point x="226" y="258"/>
      <point x="226" y="354" type="curve"/>
      <point x="224" y="464"/>
      <point x="223" y="601"/>
      <point x="228" y="702" type="curve"/>
      <point x="38" y="712" type="line"/>
      <point x="41" y="631"/>
      <point x="46" y="477"/>
      <point x="46" y="352" type="curve"/>
      <point x="46" y="228"/>
      <point x="44" y="75"/>
    </contour>
  </outline>
</glyph>
<glyph name="Q" format="2">
  <advance width="557"/>
  <unicode hex="0051"/>
  <outline>
    <contour>
      <point x="272" y="-5" type="curve"/>
      <point x="372" y="-5"/>
      <point x="437" y="36"/>
      <point x="477" y="102" type="curve" smooth="yes"/>
      <point x="516" y="166"/>
      <point x="530" y="256"/>
      <point x="530" y="356" type="curve" smooth="yes"/>
      <point x="530" y="429"/>
      <point x="523" y="494"/>
      <point x="506" y="548" type="curve" smooth="yes"/>
      <point x="475" y="645"/>
      <point x="409" y="706"/>
      <point x="284" y="706" type="curve" smooth="yes"/>
      <point x="165" y="706"/>
      <point x="94" y="647"/>
      <point x="58" y="553" type="curve" smooth="yes"/>
      <point x="37" y="498"/>
      <point x="27" y="431"/>
      <point x="27" y="357" type="curve" smooth="yes"/>
      <point x="27" y="265"/>
      <point x="36" y="183"/>
      <point x="64" y="121" type="curve" smooth="yes"/>
      <point x="99" y="43"/>
      <point x="162" y="-5"/>
    </contour>
    <contour>
      <point x="280" y="141" type="curve"/>
      <point x="248" y="141"/>
      <point x="230" y="162"/>
      <point x="220" y="205" type="curve" smooth="yes"/>
      <point x="212" y="238"/>
      <point x="210" y="286"/>
      <point x="210" y="346" type="curve" smooth="yes"/>
      <point x="210" y="407"/>
      <point x="212" y="456"/>
      <point x="220" y="493" type="curve" smooth="yes"/>
      <point x="229" y="537"/>
      <point x="248" y="561"/>
      <point x="281" y="561" type="curve" smooth="yes"/>
      <point x="313" y="561"/>
      <point x="331" y="536"/>
      <point x="340" y="487" type="curve" smooth="yes"/>
      <point x="346" y="455"/>
      <point x="348" y="412"/>
      <point x="348" y="359" type="curve" smooth="yes"/>
      <point x="348" y="296"/>
      <point x="344" y="240"/>
      <point x="334" y="201" type="curve" smooth="yes"/>
      <point x="324" y="163"/>
      <point x="306" y="141"/>
    </contour>
    <contour>
      <point x="396" y="-97" type="line"/>
      <point x="534" y="0" type="line"/>
      <point x="313" y="246" type="line"/>
      <point x="244" y="197" type="line"/>
    </contour>
  </outline>
</glyph>
<glyph name="R" format="2">
  <advance width="569"/>
  <unicode hex="0052"/>
  <anchor x="292" y="0" name="bottom"/>
  <anchor x="272" y="712" name="top"/>
  <outline>
    <contour>
      <point x="130" y="206" type="line"/>
      <point x="387" y="206"/>
      <point x="532" y="276"/>
      <point x="532" y="476" type="curve" smooth="yes"/>
      <point x="532" y="665"/>
      <point x="428" y="718"/>
      <point x="210" y="718" type="curve" smooth="yes"/>
      <point x="165" y="718"/>
      <point x="86" y="716"/>
      <point x="33" y="712" type="curve"/>
      <point x="98" y="570" type="line"/>
      <point x="145" y="576"/>
      <point x="214" y="580"/>
      <point x="252" y="580" type="curve" smooth="yes"/>
      <point x="308" y="580"/>
      <point x="349" y="559"/>
      <point x="349" y="478" type="curve" smooth="yes"/>
      <point x="349" y="367"/>
      <point x="279" y="337"/>
      <point x="130" y="346" type="curve"/>
    </contour>
    <contour>
      <point x="37" y="-5" type="curve"/>
      <point x="224" y="5" type="line"/>
      <point x="223" y="118"/>
      <point x="221" y="296"/>
      <point x="221" y="374" type="curve"/>
      <point x="219" y="484"/>
      <point x="218" y="635"/>
      <point x="223" y="702" type="curve"/>
      <point x="33" y="712" type="line"/>
      <point x="36" y="631"/>
      <point x="41" y="477"/>
      <point x="41" y="352" type="curve"/>
      <point x="41" y="228"/>
      <point x="39" y="75"/>
    </contour>
    <contour>
      <point x="394" y="-6" type="curve"/>
      <point x="602" y="-3" type="line"/>
      <point x="530" y="108"/>
      <point x="478" y="206"/>
      <point x="428" y="305" type="curve"/>
      <point x="257" y="274" type="line"/>
      <point x="307" y="175"/>
      <point x="354" y="86"/>
    </contour>
  </outline>
</glyph>
<glyph name="S" format="2">
  <advance width="558"/>
  <unicode hex="0053"/>
  <anchor x="288" y="0" name="bottom"/>
  <anchor x="288" y="701" name="top"/>
  <outline>
    <contour>
      <point x="276" y="-10" type="curve" smooth="yes"/>
      <point x="485" y="-10"/>
      <point x="547" y="81"/>
      <point x="547" y="171" type="curve" smooth="yes"/>
      <point x="547" y="310"/>
      <point x="425" y="345"/>
      <point x="287" y="399" type="curve" smooth="yes"/>
      <point x="211" y="429"/>
      <point x="195" y="454"/>
      <point x="195" y="502" type="curve" smooth="yes"/>
      <point x="195" y="544"/>
      <point x="220" y="577"/>
      <point x="283" y="577" type="curve" smooth="yes"/>
      <point x="340" y="577"/>
      <point x="366" y="546"/>
      <point x="366" y="472" type="curve" smooth="yes"/>
      <point x="366" y="450"/>
      <point x="364" y="425"/>
      <point x="360" y="396" type="curve"/>
      <point x="538" y="396" type="line"/>
      <point x="545" y="430"/>
      <point x="549" y="462"/>
      <point x="549" y="491" type="curve" smooth="yes"/>
      <point x="549" y="630"/>
      <point x="466" y="705"/>
      <point x="289" y="705" type="curve" smooth="yes"/>
      <point x="94" y="705"/>
      <point x="18" y="597"/>
      <point x="18" y="488" type="curve" smooth="yes"/>
      <point x="18" y="325"/>
      <point x="140" y="286"/>
      <point x="241" y="247" type="curve" smooth="yes"/>
      <point x="331" y="212"/>
      <point x="369" y="206"/>
      <point x="369" y="165" type="curve" smooth="yes"/>
      <point x="369" y="132"/>
      <point x="347" y="113"/>
      <point x="274" y="113" type="curve" smooth="yes"/>
      <point x="224" y="113"/>
      <point x="192" y="141"/>
      <point x="192" y="190" type="curve" smooth="yes"/>
      <point x="192" y="203"/>
      <point x="194" y="216"/>
      <point x="198" y="231" type="curve"/>
      <point x="28" y="231" type="line"/>
      <point x="22" y="208"/>
      <point x="19" y="186"/>
      <point x="19" y="166" type="curve" smooth="yes"/>
      <point x="19" y="54"/>
      <point x="110" y="-10"/>
    </contour>
  </outline>
</glyph>
<glyph name="T" format="2">
  <advance width="494"/>
  <unicode hex="0054"/>
  <anchor x="248" y="13" name="bottom"/>
  <anchor x="245" y="347" name="center"/>
  <anchor x="246" y="693" name="top"/>
  <outline>
    <contour>
      <point x="155" y="2" type="curve"/>
      <point x="338" y="4" type="line"/>
      <point x="338" y="4"/>
      <point x="336" y="245"/>
      <point x="336" y="347" type="curve"/>
      <point x="336" y="447"/>
      <point x="338" y="688"/>
      <point x="338" y="688" type="curve"/>
      <point x="150" y="692" type="line"/>
      <point x="150" y="692"/>
      <point x="157" y="532"/>
      <point x="157" y="345" type="curve"/>
      <point x="157" y="156"/>
      <point x="156" y="102"/>
    </contour>
    <contour>
      <point x="-12" y="547" type="line"/>
      <point x="-12" y="547"/>
      <point x="167" y="552"/>
      <point x="244" y="553" type="curve"/>
      <point x="296" y="553"/>
      <point x="510" y="555"/>
      <point x="510" y="555" type="curve"/>
      <point x="507" y="704" type="line"/>
      <point x="507" y="704"/>
      <point x="282" y="702"/>
      <point x="231" y="702" type="curve"/>
      <point x="154" y="702"/>
      <point x="-9" y="701"/>
      <point x="-9" y="701" type="curve"/>
    </contour>
  </outline>
</glyph>
<glyph name="V" format="2">
  <advance width="568"/>
  <unicode hex="0056"/>
  <outline>
    <contour>
      <point x="0" y="704" type="line"/>
      <point x="29" y="605"/>
      <point x="64" y="475"/>
      <point x="98" y="350" type="curve" smooth="yes"/>
      <point x="132" y="225"/>
      <point x="165" y="98"/>
      <point x="191" y="-9" type="curve"/>
      <point x="381" y="-11" type="line"/>
      <point x="406" y="84"/>
      <point x="445" y="224"/>
      <point x="480" y="350" type="curve" smooth="yes"/>
      <point x="517" y="484"/>
      <point x="555" y="631"/>
      <point x="578" y="707" type="curve"/>
      <point x="392" y="696" type="line"/>
      <point x="384" y="658"/>
      <point x="361" y="541"/>
      <point x="334" y="401" type="curve" smooth="yes"/>
      <point x="321" y="334"/>
      <point x="305" y="262"/>
      <point x="290" y="190" type="curve"/>
      <point x="273" y="270"/>
      <point x="260" y="339"/>
      <point x="248" y="399" type="curve" smooth="yes"/>
      <point x="219" y="546"/>
      <point x="204" y="636"/>
      <point x="191" y="701" type="curve"/>
    </contour>
  </outline>
</glyph>
<glyph name="W" format="2">
  <advance width="958"/>
  <unicode hex="0057"/>
  <anchor x="482" y="693" name="top"/>
  <outline>
    <contour>
      <point x="366" y="-11" type="line"/>
      <point x="377" y="34"/>
      <point x="413" y="176"/>
      <point x="442" y="291" type="curve" smooth="yes"/>
      <point x="461" y="365"/>
      <point x="477" y="427"/>
      <point x="483" y="448" type="curve"/>
      <point x="495" y="407"/>
      <point x="508" y="358"/>
      <point x="521" y="308" type="curve" smooth="yes"/>
      <point x="551" y="194"/>
      <point x="581" y="69"/>
      <point x="599" y="-11" type="curve"/>
      <point x="781" y="-9" type="line"/>
      <point x="793" y="45"/>
      <point x="832" y="215"/>
      <point x="870" y="377" type="curve" smooth="yes"/>
      <point x="907" y="536"/>
      <point x="942" y="687"/>
      <point x="948" y="709" type="curve"/>
      <point x="756" y="707" type="line"/>
      <point x="747" y="608"/>
      <point x="733" y="503"/>
      <point x="721" y="406" type="curve" smooth="yes"/>
      <point x="711" y="328"/>
      <point x="700" y="256"/>
      <point x="690" y="199" type="curve"/>
      <point x="678" y="249"/>
      <point x="663" y="315"/>
      <point x="646" y="387" type="curve" smooth="yes"/>
      <point x="626" y="473"/>
      <point x="605" y="568"/>
      <point x="586" y="655" type="curve"/>
      <point x="379" y="655" type="line"/>
      <point x="363" y="579"/>
      <point x="340" y="477"/>
      <point x="319" y="383" type="curve" smooth="yes"/>
      <point x="303" y="313"/>
      <point x="287" y="247"/>
      <point x="275" y="199" type="curve"/>
      <point x="265" y="264"/>
      <point x="253" y="349"/>
      <point x="241" y="435" type="curve" smooth="yes"/>
      <point x="228" y="530"/>
      <point x="216" y="626"/>
      <point x="209" y="693" type="curve"/>
      <point x="17" y="695" type="line"/>
      <point x="24" y="671"/>
      <point x="59" y="523"/>
      <point x="96" y="365" type="curve" smooth="yes"/>
      <point x="130" y="218"/>
      <point x="168" y="63"/>
      <point x="184" y="-9" type="curve"/>
    </contour>
  </outline>
</glyph>
<glyph name="X" format="2">
  <advance width="547"/>
  <unicode hex="0058"/>
  <outline>
    <contour>
      <point x="-23" y="-2" type="curve"/>
      <point x="160" y="-1" type="line"/>
      <point x="211" y="87"/>
      <point x="269" y="185"/>
      <point x="326" y="282" type="curve" smooth="yes"/>
      <point x="417" y="437"/>
      <point x="510" y="588"/>
      <point x="573" y="691" type="curve"/>
      <point x="390" y="692" type="line"/>
      <point x="351" y="620"/>
      <point x="294" y="522"/>
      <point x="232" y="418" type="curve" smooth="yes"/>
      <point x="144" y="270"/>
      <point x="46" y="109"/>
    </contour>
    <contour>
      <point x="386" y="-11" type="curve"/>
      <point x="575" y="-7" type="line"/>
      <point x="501" y="123"/>
      <point x="413" y="274"/>
      <point x="334" y="412" type="curve" smooth="yes"/>
      <point x="274" y="517"/>
      <point x="217" y="613"/>
      <point x="174" y="688" type="curve"/>
      <point x="-14" y="690" type="line"/>
      <point x="70" y="544"/>
      <point x="154" y="399"/>
      <point x="231" y="264" type="curve" smooth="yes"/>
      <point x="287" y="166"/>
      <point x="340" y="73"/>
    </contour>
  </outline>
</glyph>
<glyph name="Y" format="2">
  <advance width="515"/>
  <unicode hex="0059"/>
  <anchor x="256" y="0" name="bottom"/>
  <anchor x="258" y="693" name="top"/>
  <outline>
    <contour>
      <point x="170" y="0" type="curve"/>
      <point x="350" y="1" type="line"/>
      <point x="346" y="70"/>
      <point x="346" y="129"/>
      <point x="344" y="224" type="curve"/>
      <point x="171" y="234" type="line"/>
      <point x="174" y="115"/>
      <point x="172" y="48"/>
    </contour>
    <contour>
      <point x="-21" y="704" type="line"/>
      <point x="3" y="646"/>
      <point x="39" y="554"/>
      <point x="76" y="460" type="curve" smooth="yes"/>
      <point x="126" y="333"/>
      <point x="177" y="200"/>
      <point x="199" y="137" type="curve"/>
      <point x="318" y="136" type="line"/>
      <point x="339" y="192"/>
      <point x="387" y="310"/>
      <point x="435" y="427" type="curve" smooth="yes"/>
      <point x="478" y="531"/>
      <point x="521" y="635"/>
      <point x="548" y="698" type="curve"/>
      <point x="359" y="694" type="line"/>
      <point x="342" y="632"/>
      <point x="325" y="578"/>
      <point x="308" y="525" type="curve" smooth="yes"/>
      <point x="294" y="481"/>
      <point x="278" y="438"/>
      <point x="261" y="392" type="curve"/>
      <point x="244" y="442"/>
      <point x="231" y="484"/>
      <point x="218" y="527" type="curve" smooth="yes"/>
      <point x="202" y="579"/>
      <point x="188" y="632"/>
      <point x="170" y="704" type="curve"/>
    </contour>
  </outline>
</glyph>
<glyph name="Z" format="2">
  <advance width="459"/>
  <unicode hex="005A"/>
  <anchor x="222" y="693" name="top"/>
  <outline>
    <contour>
      <point x="9" y="693" type="curve"/>
      <point x="5" y="552" type="line"/>
      <point x="41" y="554"/>
      <point x="92" y="555"/>
      <point x="167" y="555" type="curve" smooth="yes"/>
      <point x="188" y="555"/>
      <point x="231" y="554"/>
      <point x="250" y="555" type="curve"/>
      <point x="219" y="500"/>
      <point x="179" y="432"/>
      <point x="137" y="363" type="curve" smooth="yes"/>
      <point x="89" y="285"/>
      <point x="39" y="206"/>
      <point x="-4" y="140" type="curve"/>
      <point x="3" y="1" type="line"/>
      <point x="-2" y="1"/>
      <point x="142" y="3"/>
      <point x="227" y="3" type="curve" smooth="yes"/>
      <point x="306" y="3"/>
      <point x="409" y="0"/>
      <point x="459" y="0" type="curve"/>
      <point x="460" y="143" type="line"/>
      <point x="405" y="143"/>
      <point x="368" y="140"/>
      <point x="292" y="140" type="curve" smooth="yes"/>
      <point x="262" y="140"/>
      <point x="216" y="140"/>
      <point x="189" y="140" type="curve"/>
      <point x="224" y="199"/>
      <point x="257" y="253"/>
      <point x="288" y="303" type="curve" smooth="yes"/>
      <point x="341" y="389"/>
      <point x="390" y="467"/>
      <point x="445" y="552" type="curve"/>
      <point x="446" y="695" type="line"/>
      <point x="381" y="694"/>
      <point x="307" y="693"/>
      <point x="236" y="692" type="curve" smooth="yes"/>
      <point x="185" y="691"/>
      <point x="78" y="694"/>
    </contour>
  </outline>
</glyph>
<glyph name="bracketleft" format="2">
  <advance width="557"/>
  <unicode hex="005B"/>
  <outline>
    <contour>
      <point x="127" y="-139" type="curve"/>
      <point x="271" y="-128" type="line"/>
      <point x="266" y="123"/>
      <point x="266" y="172"/>
      <point x="266" y="296" type="curve" smooth="yes"/>
      <point x="266" y="393"/>
      <point x="269" y="460"/>
      <point x="271" y="671" type="curve"/>
      <point x="128" y="692" type="line"/>
      <point x="128" y="700"/>
      <point x="132" y="509"/>
      <point x="132" y="303" type="curve" smooth="yes"/>
      <point x="132" y="98"/>
      <point x="130" y="-85"/>
    </contour>
    <contour>
      <point x="127" y="-139" type="line"/>
      <point x="115" y="-139"/>
      <point x="161" y="-138"/>
      <point x="413" y="-130" type="curve"/>
      <point x="421" y="-9" type="line"/>
      <point x="280" y="-16"/>
      <point x="177" y="-21"/>
      <point x="155" y="-24" type="curve"/>
    </contour>
    <contour>
      <point x="144" y="594" type="line"/>
      <point x="190" y="595"/>
      <point x="425" y="596"/>
      <point x="420" y="596" type="curve"/>
      <point x="409" y="702" type="line"/>
      <point x="268" y="695"/>
      <point x="145" y="692"/>
      <point x="128" y="692" type="curve"/>
    </contour>
  </outline>
</glyph>
<glyph name="backslash" format="2">
  <advance width="412"/>
  <unicode hex="005C"/>
  <outline>
    <contour>
      <point x="430" y="-1" type="line"/>
      <point x="368" y="128"/>
      <point x="322" y="241"/>
      <point x="270" y="367" type="curve" smooth="yes"/>
      <point x="222" y="483"/>
      <point x="189" y="579"/>
      <point x="153" y="700" type="curve"/>
      <point x="-18" y="698" type="line"/>
      <point x="23" y="597"/>
      <point x="61" y="492"/>
      <point x="114" y="366" type="curve" smooth="yes"/>
      <point x="169" y="236"/>
      <point x="217" y="119"/>
      <point x="261" y="0" type="curve"/>
    </contour>
  </outline>
</glyph>
<glyph name="bracketright" format="2">
  <advance width="557"/>
  <unicode hex="005D"/>
  <outline>
    <contour>
      <point x="430" y="-129" type="line"/>
      <point x="430" y="-137"/>
      <point x="426" y="54"/>
      <point x="426" y="260" type="curve" smooth="yes"/>
      <point x="426" y="465"/>
      <point x="428" y="648"/>
      <point x="431" y="702" type="curve"/>
      <point x="287" y="691" type="line"/>
      <point x="292" y="440"/>
      <point x="292" y="391"/>
      <point x="292" y="267" type="curve" smooth="yes"/>
      <point x="292" y="170"/>
      <point x="289" y="103"/>
      <point x="287" y="-108" type="curve"/>
    </contour>
    <contour>
      <point x="149" y="-139" type="line"/>
      <point x="290" y="-132"/>
      <point x="413" y="-129"/>
      <point x="430" y="-129" type="curve"/>
      <point x="414" y="-31" type="line"/>
      <point x="368" y="-32"/>
      <point x="133" y="-33"/>
      <point x="138" y="-33" type="curve"/>
    </contour>
    <contour>
      <point x="137" y="572" type="line"/>
      <point x="278" y="579"/>
      <point x="369" y="584"/>
      <point x="391" y="587" type="curve"/>
      <point x="431" y="702" type="line"/>
      <point x="443" y="702"/>
      <point x="385" y="701"/>
      <point x="145" y="693" type="curve"/>
    </contour>
  </outline>
</glyph>
<glyph name="asciicircum" format="2">
  <advance width="607"/>
  <unicode hex="005E"/>
  <outline>
    <contour>
      <point x="414" y="397" type="curve"/>
      <point x="545" y="399" type="line"/>
      <point x="518" y="441"/>
      <point x="474" y="516"/>
      <point x="430" y="593" type="curve" smooth="yes"/>
      <point x="393" y="659"/>
      <point x="355" y="725"/>
      <point x="329" y="771" type="curve"/>
      <point x="219" y="766" type="line"/>
      <point x="251" y="710"/>
      <point x="295" y="627"/>
      <point x="333" y="554" type="curve" smooth="yes"/>
      <point x="370" y="485"/>
      <point x="402" y="423"/>
    </contour>
    <contour>
      <point x="158" y="400" type="line"/>
      <point x="182" y="452"/>
      <point x="207" y="508"/>
      <point x="233" y="565" type="curve" smooth="yes"/>
      <point x="264" y="633"/>
      <point x="297" y="702"/>
      <point x="331" y="771" type="curve"/>
      <point x="221" y="766" type="line"/>
      <point x="195" y="711"/>
      <point x="167" y="655"/>
      <point x="136" y="597" type="curve" smooth="yes"/>
      <point x="105" y="536"/>
      <point x="70" y="473"/>
      <point x="32" y="406" type="curve"/>
    </contour>
  </outline>
</glyph>
<glyph name="underscore" format="2">
  <advance width="534"/>
  <unicode hex="005F"/>
  <outline>
    <contour>
      <point x="47" y="-149" type="line"/>
      <point x="47" y="-149"/>
      <point x="201" y="-146"/>
      <point x="268" y="-145" type="curve" smooth="yes"/>
      <point x="340" y="-144"/>
      <point x="487" y="-146"/>
      <point x="487" y="-146" type="curve"/>
      <point x="489" y="-32" type="line"/>
      <point x="489" y="-32"/>
      <point x="337" y="-35"/>
      <point x="262" y="-36" type="curve" smooth="yes"/>
      <point x="188" y="-37"/>
      <point x="45" y="-34"/>
      <point x="45" y="-34" type="curve"/>
    </contour>
  </outline>
</glyph>
<glyph name="a" format="2">
  <advance width="488"/>
  <unicode hex="0061"/>
  <anchor x="237" y="0" name="bottom"/>
  <anchor x="387" y="0" name="ogonek"/>
  <anchor x="250" y="515" name="top"/>
  <outline>
    <contour>
      <point x="315" y="0" type="line"/>
      <point x="463" y="0" type="line"/>
      <point x="458" y="244" type="line"/>
      <point x="461" y="333" type="line" smooth="yes"/>
      <point x="464" y="418"/>
      <point x="436" y="525"/>
      <point x="256" y="525" type="curve" smooth="yes"/>
      <point x="131" y="525"/>
      <point x="45" y="473"/>
      <point x="45" y="373" type="curve" smooth="yes"/>
      <point x="45" y="358"/>
      <point x="47" y="343"/>
      <point x="51" y="326" type="curve"/>
      <point x="214" y="333" type="line"/>
      <point x="210" y="344"/>
      <point x="208" y="353"/>
      <point x="208" y="362" type="curve" smooth="yes"/>
      <point x="208" y="384"/>
      <point x="222" y="399"/>
      <point x="254" y="399" type="curve" smooth="yes"/>
      <point x="286" y="399"/>
      <point x="300" y="382"/>
      <point x="300" y="357" type="curve" smooth="yes"/>
      <point x="304" y="85" type="line"/>
    </contour>
    <contour>
      <point x="162" y="-9" type="curve" smooth="yes"/>
      <point x="323" y="-9"/>
      <point x="352" y="159"/>
      <point x="352" y="301" type="curve"/>
      <point x="301" y="263" type="line"/>
      <point x="301" y="159"/>
      <point x="266" y="115"/>
      <point x="222" y="115" type="curve" smooth="yes"/>
      <point x="200" y="115"/>
      <point x="187" y="130"/>
      <point x="187" y="149" type="curve" smooth="yes"/>
      <point x="187" y="172"/>
      <point x="200" y="184"/>
      <point x="250" y="201" type="curve" smooth="yes"/>
      <point x="310" y="221"/>
      <point x="350" y="239"/>
      <point x="355" y="315" type="curve"/>
      <point x="300" y="357" type="line"/>
      <point x="300" y="336"/>
      <point x="278" y="309"/>
      <point x="218" y="293" type="curve" smooth="yes"/>
      <point x="123" y="268"/>
      <point x="24" y="243"/>
      <point x="24" y="122" type="curve" smooth="yes"/>
      <point x="24" y="41"/>
      <point x="74" y="-9"/>
    </contour>
  </outline>
</glyph>
<glyph name="b" format="2">
  <advance width="557"/>
  <unicode hex="0062"/>
  <outline>
    <contour>
      <point x="321" y="-7" type="curve" smooth="yes"/>
      <point x="391" y="-7"/>
      <point x="454" y="40"/>
      <point x="487" y="112" type="curve" smooth="yes"/>
      <point x="519" y="182"/>
      <point x="528" y="291"/>
      <point x="513" y="369" type="curve" smooth="yes"/>
      <point x="495" y="464"/>
      <point x="436" y="525"/>
      <point x="343" y="525" type="curve" smooth="yes"/>
      <point x="201" y="525"/>
      <point x="160" y="368"/>
      <point x="160" y="250" type="curve"/>
      <point x="227" y="292" type="line"/>
      <point x="227" y="360"/>
      <point x="250" y="399"/>
      <point x="287" y="399" type="curve" smooth="yes"/>
      <point x="318" y="399"/>
      <point x="334" y="373"/>
      <point x="341" y="333" type="curve" smooth="yes"/>
      <point x="348" y="292"/>
      <point x="345" y="202"/>
      <point x="332" y="159" type="curve" smooth="yes"/>
      <point x="323" y="130"/>
      <point x="307" y="111"/>
      <point x="282" y="111" type="curve" smooth="yes"/>
      <point x="244" y="111"/>
      <point x="227" y="149"/>
      <point x="227" y="238" type="curve"/>
      <point x="160" y="256" type="line"/>
      <point x="160" y="174"/>
      <point x="184" y="-7"/>
    </contour>
    <contour>
      <point x="207" y="-2" type="line"/>
      <point x="225" y="100" type="line"/>
      <point x="227" y="185"/>
      <point x="227" y="277"/>
      <point x="227" y="343" type="curve"/>
      <point x="227" y="465"/>
      <point x="229" y="584"/>
      <point x="230" y="690" type="curve"/>
      <point x="50" y="686" type="line"/>
      <point x="56" y="555"/>
      <point x="56" y="452"/>
      <point x="58" y="344" type="curve" smooth="yes"/>
      <point x="59" y="284"/>
      <point x="55" y="41"/>
      <point x="53" y="0" type="curve"/>
    </contour>
  </outline>
</glyph>
<glyph name="c" format="2">
  <advance width="524"/>
  <unicode hex="0063"/>
  <anchor x="278" y="0" name="bottom"/>
  <anchor x="276" y="515" name="top"/>
  <outline>
    <contour>
      <point x="264" y="-12" type="curve" smooth="yes"/>
      <point x="398" y="-12"/>
      <point x="482" y="38"/>
      <point x="482" y="143" type="curve" smooth="yes"/>
      <point x="482" y="151"/>
      <point x="482" y="159"/>
      <point x="481" y="168" type="curve"/>
      <point x="313" y="168" type="line"/>
      <point x="314" y="163"/>
      <point x="315" y="159"/>
      <point x="315" y="155" type="curve" smooth="yes"/>
      <point x="315" y="127"/>
      <point x="293" y="113"/>
      <point x="269" y="113" type="curve" smooth="yes"/>
      <point x="246" y="113"/>
      <point x="234" y="127"/>
      <point x="227" y="157" type="curve" smooth="yes"/>
      <point x="221" y="182"/>
      <point x="219" y="219"/>
      <point x="219" y="270" type="curve" smooth="yes"/>
      <point x="219" y="308"/>
      <point x="222" y="337"/>
      <point x="227" y="358" type="curve" smooth="yes"/>
      <point x="235" y="391"/>
      <point x="251" y="405"/>
      <point x="273" y="405" type="curve" smooth="yes"/>
      <point x="299" y="405"/>
      <point x="311" y="386"/>
      <point x="311" y="345" type="curve" smooth="yes"/>
      <point x="311" y="330"/>
      <point x="310" y="311"/>
      <point x="306" y="289" type="curve"/>
      <point x="476" y="286" type="line"/>
      <point x="480" y="308"/>
      <point x="482" y="329"/>
      <point x="482" y="349" type="curve" smooth="yes"/>
      <point x="482" y="458"/>
      <point x="417" y="524"/>
      <point x="278" y="524" type="curve" smooth="yes"/>
      <point x="192" y="524"/>
      <point x="131" y="491"/>
      <point x="93" y="434" type="curve" smooth="yes"/>
      <point x="62" y="388"/>
      <point x="47" y="327"/>
      <point x="47" y="255" type="curve" smooth="yes"/>
      <point x="47" y="186"/>
      <point x="60" y="123"/>
      <point x="90" y="76" type="curve" smooth="yes"/>
      <point x="125" y="22"/>
      <point x="181" y="-12"/>
    </contour>
  </outline>
</glyph>
<glyph name="d" format="2">
  <advance width="555"/>
  <unicode hex="0064"/>
  <anchor x="388" y="605" name="center"/>
  <anchor x="483" y="416" name="topright"/>
  <outline>
    <contour>
      <point x="44" y="253" type="curve" smooth="yes"/>
      <point x="44" y="184"/>
      <point x="55" y="121"/>
      <point x="79" y="75" type="curve" smooth="yes"/>
      <point x="107" y="22"/>
      <point x="151" y="-10"/>
      <point x="215" y="-10" type="curve" smooth="yes"/>
      <point x="294" y="-10"/>
      <point x="323" y="31"/>
      <point x="346" y="69" type="curve"/>
      <point x="351" y="-2" type="line"/>
      <point x="507" y="0" type="line"/>
      <point x="503" y="86"/>
      <point x="501" y="228"/>
      <point x="502" y="324" type="curve" smooth="yes"/>
      <point x="503" y="415"/>
      <point x="503" y="531"/>
      <point x="510" y="696" type="curve"/>
      <point x="337" y="690" type="line"/>
      <point x="338" y="643"/>
      <point x="338" y="523"/>
      <point x="339" y="476" type="curve"/>
      <point x="322" y="504"/>
      <point x="290" y="525"/>
      <point x="238" y="525" type="curve" smooth="yes"/>
      <point x="170" y="525"/>
      <point x="117" y="488"/>
      <point x="84" y="429" type="curve" smooth="yes"/>
      <point x="57" y="381"/>
      <point x="44" y="320"/>
    </contour>
    <contour>
      <point x="215" y="257" type="curve" smooth="yes"/>
      <point x="215" y="297"/>
      <point x="218" y="332"/>
      <point x="226" y="359" type="curve" smooth="yes"/>
      <point x="235" y="391"/>
      <point x="252" y="410"/>
      <point x="277" y="410" type="curve" smooth="yes"/>
      <point x="308" y="410"/>
      <point x="323" y="392"/>
      <point x="328" y="352" type="curve" smooth="yes"/>
      <point x="331" y="329"/>
      <point x="333" y="298"/>
      <point x="333" y="259" type="curve" smooth="yes"/>
      <point x="333" y="226"/>
      <point x="330" y="197"/>
      <point x="325" y="175" type="curve" smooth="yes"/>
      <point x="317" y="139"/>
      <point x="299" y="119"/>
      <point x="272" y="119" type="curve" smooth="yes"/>
      <point x="244" y="119"/>
      <point x="229" y="136"/>
      <point x="221" y="172" type="curve" smooth="yes"/>
      <point x="216" y="194"/>
      <point x="215" y="222"/>
    </contour>
  </outline>
</glyph>
<glyph name="e" format="2">
  <advance width="524"/>
  <unicode hex="0065"/>
  <anchor x="271" y="0" name="bottom"/>
  <anchor x="297" y="-8" name="ogonek"/>
  <anchor x="272" y="515" name="top"/>
  <outline>
    <contour>
      <point x="266" y="-12" type="curve" smooth="yes"/>
      <point x="384" y="-12"/>
      <point x="487" y="40"/>
      <point x="487" y="132" type="curve" smooth="yes"/>
      <point x="487" y="141"/>
      <point x="485" y="152"/>
      <point x="483" y="162" type="curve"/>
      <point x="314" y="162" type="line"/>
      <point x="316" y="154"/>
      <point x="317" y="148"/>
      <point x="317" y="143" type="curve" smooth="yes"/>
      <point x="317" y="117"/>
      <point x="296" y="112"/>
      <point x="271" y="112" type="curve" smooth="yes"/>
      <point x="244" y="112"/>
      <point x="228" y="127"/>
      <point x="220" y="155" type="curve" smooth="yes"/>
      <point x="212" y="182"/>
      <point x="210" y="222"/>
      <point x="210" y="271" type="curve" smooth="yes"/>
      <point x="210" y="315"/>
      <point x="213" y="354"/>
      <point x="226" y="379" type="curve" smooth="yes"/>
      <point x="235" y="396"/>
      <point x="248" y="406"/>
      <point x="267" y="406" type="curve" smooth="yes"/>
      <point x="306" y="406"/>
      <point x="316" y="385"/>
      <point x="316" y="342" type="curve" smooth="yes"/>
      <point x="316" y="330"/>
      <point x="315" y="317"/>
      <point x="314" y="303" type="curve"/>
      <point x="478" y="210" type="line"/>
      <point x="482" y="241"/>
      <point x="484" y="270"/>
      <point x="484" y="298" type="curve" smooth="yes"/>
      <point x="484" y="435"/>
      <point x="430" y="524"/>
      <point x="277" y="524" type="curve" smooth="yes"/>
      <point x="196" y="524"/>
      <point x="136" y="498"/>
      <point x="96" y="450" type="curve" smooth="yes"/>
      <point x="57" y="403"/>
      <point x="38" y="337"/>
      <point x="38" y="255" type="curve" smooth="yes"/>
      <point x="38" y="180"/>
      <point x="53" y="118"/>
      <point x="84" y="73" type="curve" smooth="yes"/>
      <point x="121" y="20"/>
      <point x="180" y="-12"/>
    </contour>
    <contour>
      <point x="75" y="202" type="line"/>
      <point x="195" y="209"/>
      <point x="478" y="210"/>
      <point x="478" y="210" type="curve"/>
      <point x="449" y="324" type="line"/>
      <point x="71" y="322" type="line"/>
    </contour>
  </outline>
</glyph>
<glyph name="g" format="2">
  <advance width="542"/>
  <unicode hex="0067"/>
  <anchor x="266" y="515" name="top"/>
  <outline>
    <contour>
      <point x="250" y="-174" type="curve" smooth="yes"/>
      <point x="455" y="-174"/>
      <point x="488" y="-46"/>
      <point x="488" y="46" type="curve" smooth="yes"/>
      <point x="488" y="153"/>
      <point x="488" y="164"/>
      <point x="488" y="278" type="curve" smooth="yes"/>
      <point x="488" y="373"/>
      <point x="497" y="426"/>
      <point x="507" y="515" type="curve"/>
      <point x="360" y="515" type="line"/>
      <point x="346" y="460"/>
      <point x="320" y="380"/>
      <point x="320" y="277" type="curve"/>
      <point x="320" y="146"/>
      <point x="320" y="70"/>
      <point x="320" y="17" type="curve" smooth="yes"/>
      <point x="320" y="-29"/>
      <point x="304" y="-70"/>
      <point x="262" y="-70" type="curve" smooth="yes"/>
      <point x="244" y="-70"/>
      <point x="226" y="-66"/>
      <point x="216" y="-50" type="curve" smooth="yes"/>
      <point x="214" y="-47"/>
      <point x="212" y="-43"/>
      <point x="211" y="-38" type="curve"/>
      <point x="47" y="-54" type="line"/>
      <point x="48" y="-64"/>
      <point x="50" y="-73"/>
      <point x="53" y="-81" type="curve" smooth="yes"/>
      <point x="78" y="-147"/>
      <point x="152" y="-174"/>
    </contour>
    <contour>
      <point x="203" y="-10" type="curve" smooth="yes"/>
      <point x="367" y="-10"/>
      <point x="377" y="194"/>
      <point x="377" y="249" type="curve"/>
      <point x="320" y="257" type="line"/>
      <point x="320" y="160"/>
      <point x="301" y="117"/>
      <point x="261" y="117" type="curve" smooth="yes"/>
      <point x="237" y="117"/>
      <point x="224" y="134"/>
      <point x="217" y="163" type="curve" smooth="yes"/>
      <point x="211" y="188"/>
      <point x="210" y="223"/>
      <point x="211" y="263" type="curve" smooth="yes"/>
      <point x="212" y="291"/>
      <point x="214" y="318"/>
      <point x="220" y="341" type="curve" smooth="yes"/>
      <point x="229" y="376"/>
      <point x="242" y="400"/>
      <point x="266" y="400" type="curve" smooth="yes"/>
      <point x="308" y="400"/>
      <point x="320" y="354"/>
      <point x="320" y="257" type="curve"/>
      <point x="377" y="249" type="line"/>
      <point x="377" y="459"/>
      <point x="327" y="523"/>
      <point x="228" y="523" type="curve" smooth="yes"/>
      <point x="164" y="523"/>
      <point x="113" y="487"/>
      <point x="80" y="430" type="curve" smooth="yes"/>
      <point x="54" y="385"/>
      <point x="39" y="326"/>
      <point x="39" y="261" type="curve" smooth="yes"/>
      <point x="39" y="192"/>
      <point x="49" y="126"/>
      <point x="73" y="77" type="curve" smooth="yes"/>
      <point x="99" y="24"/>
      <point x="140" y="-10"/>
    </contour>
  </outline>
</glyph>
<glyph name="h" format="2">
  <advance width="558"/>
  <unicode hex="0068"/>
  <anchor x="275" y="0" name="bottom"/>
  <anchor x="211" y="596" name="center"/>
  <anchor x="120" y="669" name="top"/>
  <outline>
    <contour>
      <point x="50" y="1" type="curve"/>
      <point x="229" y="1" type="line"/>
      <point x="228" y="82"/>
      <point x="225" y="131"/>
      <point x="225" y="246" type="curve"/>
      <point x="219" y="377"/>
      <point x="220" y="446"/>
      <point x="220" y="690" type="curve"/>
      <point x="54" y="690" type="line"/>
      <point x="55" y="640"/>
      <point x="56" y="375"/>
      <point x="56" y="246" type="curve" smooth="yes"/>
      <point x="56" y="119"/>
      <point x="54" y="76"/>
    </contour>
    <contour>
      <point x="511" y="0" type="line"/>
      <point x="508" y="81"/>
      <point x="506" y="113"/>
      <point x="506" y="191" type="curve" smooth="yes"/>
      <point x="506" y="231"/>
      <point x="506" y="268"/>
      <point x="506" y="332" type="curve" smooth="yes"/>
      <point x="506" y="462"/>
      <point x="441" y="521"/>
      <point x="351" y="521" type="curve" smooth="yes"/>
      <point x="221" y="521"/>
      <point x="156" y="388"/>
      <point x="156" y="197" type="curve"/>
      <point x="225" y="246" type="line"/>
      <point x="225" y="346"/>
      <point x="249" y="393"/>
      <point x="294" y="393" type="curve" smooth="yes"/>
      <point x="322" y="393"/>
      <point x="337" y="373"/>
      <point x="337" y="327" type="curve" smooth="yes"/>
      <point x="337" y="264"/>
      <point x="337" y="227"/>
      <point x="337" y="187" type="curve" smooth="yes"/>
      <point x="337" y="106"/>
      <point x="335" y="79"/>
      <point x="331" y="1" type="curve"/>
    </contour>
  </outline>
</glyph>
<glyph name="i" format="2">
  <advance width="275"/>
  <unicode hex="0069"/>
  <anchor x="135" y="0" name="bottom"/>
  <anchor x="133" y="1" name="ogonek"/>
  <outline>
    <contour>
      <point x="226" y="0" type="line"/>
      <point x="222" y="91"/>
      <point x="220" y="172"/>
      <point x="220" y="265" type="curve" smooth="yes"/>
      <point x="220" y="384"/>
      <point x="222" y="473"/>
      <point x="224" y="514" type="curve"/>
      <point x="44" y="515" type="line"/>
      <point x="46" y="467"/>
      <point x="52" y="385"/>
      <point x="52" y="266" type="curve" smooth="yes"/>
      <point x="52" y="163"/>
      <point x="49" y="81"/>
      <point x="44" y="2" type="curve"/>
    </contour>
    <contour>
      <point x="222" y="623" type="line"/>
      <point x="222" y="743" type="line"/>
      <point x="46" y="735" type="line"/>
      <point x="49" y="614" type="line"/>
    </contour>
  </outline>
</glyph>
<glyph name="j" format="2">
  <advance width="263"/>
  <unicode hex="006A"/>
  <outline>
    <contour>
      <point x="-86" y="-167" type="line"/>
      <point x="65" y="-187"/>
      <point x="212" y="-144"/>
      <point x="216" y="53" type="curve" smooth="yes"/>
      <point x="218" y="154"/>
      <point x="216" y="123"/>
      <point x="216" y="266" type="curve"/>
      <point x="217" y="406"/>
      <point x="215" y="473"/>
      <point x="218" y="515" type="curve"/>
      <point x="39" y="515" type="line"/>
      <point x="44" y="442"/>
      <point x="48" y="354"/>
      <point x="51" y="251" type="curve" smooth="yes"/>
      <point x="54" y="156"/>
      <point x="55" y="126"/>
      <point x="52" y="67" type="curve" smooth="yes"/>
      <point x="47" y="-25"/>
      <point x="5" y="-58"/>
      <point x="-88" y="-45" type="curve"/>
    </contour>
    <contour>
      <point x="41" y="614" type="line"/>
      <point x="215" y="623" type="line"/>
      <point x="215" y="743" type="line"/>
      <point x="38" y="735" type="line"/>
    </contour>
  </outline>
</glyph>
<glyph name="l" format="2">
  <advance width="264"/>
  <unicode hex="006C"/>
  <anchor x="132" y="0" name="bottom"/>
  <anchor x="130" y="359" name="center"/>
  <anchor x="131" y="693" name="top"/>
  <anchor x="271" y="473" name="topright"/>
  <outline>
    <contour>
      <point x="39" y="0" type="curve"/>
      <point x="213" y="11" type="line"/>
      <point x="212" y="58"/>
      <point x="211" y="160"/>
      <point x="211" y="264" type="curve" smooth="yes"/>
      <point x="211" y="396"/>
      <point x="213" y="547"/>
      <point x="214" y="691" type="curve"/>
      <point x="42" y="692" type="line"/>
      <point x="44" y="599"/>
      <point x="47" y="403"/>
      <point x="47" y="266" type="curve" smooth="yes"/>
      <point x="47" y="117"/>
      <point x="44" y="73"/>
    </contour>
  </outline>
</glyph>
<glyph name="m" format="2">
  <advance width="840"/>
  <unicode hex="006D"/>
  <outline>
    <contour>
      <point x="329" y="1" type="curve"/>
      <point x="514" y="1" type="line"/>
      <point x="511" y="82"/>
      <point x="509" y="138"/>
      <point x="509" y="246" type="curve" smooth="yes"/>
      <point x="509" y="413"/>
      <point x="469" y="521"/>
      <point x="345" y="521" type="curve" smooth="yes"/>
      <point x="199" y="521"/>
      <point x="168" y="384"/>
      <point x="168" y="197" type="curve"/>
      <point x="221" y="246" type="line"/>
      <point x="221" y="360"/>
      <point x="255" y="393"/>
      <point x="290" y="393" type="curve" smooth="yes"/>
      <point x="322" y="393"/>
      <point x="335" y="370"/>
      <point x="335" y="320" type="curve" smooth="yes"/>
      <point x="335" y="257"/>
      <point x="335" y="227"/>
      <point x="335" y="187" type="curve" smooth="yes"/>
      <point x="335" y="76"/>
      <point x="333" y="79"/>
    </contour>
    <contour>
      <point x="46" y="1" type="curve"/>
      <point x="225" y="1" type="line"/>
      <point x="224" y="82"/>
      <point x="221" y="131"/>
      <point x="221" y="246" type="curve"/>
      <point x="215" y="377"/>
      <point x="214" y="498"/>
      <point x="213" y="522" type="curve"/>
      <point x="50" y="515" type="line"/>
      <point x="51" y="465"/>
      <point x="52" y="375"/>
      <point x="52" y="246" type="curve" smooth="yes"/>
      <point x="52" y="119"/>
      <point x="50" y="76"/>
    </contour>
    <contour>
      <point x="782" y="0" type="line"/>
      <point x="785" y="39"/>
      <point x="786" y="82"/>
      <point x="790" y="145" type="curve" smooth="yes"/>
      <point x="793" y="193"/>
      <point x="795" y="260"/>
      <point x="795" y="294" type="curve" smooth="yes"/>
      <point x="795" y="426"/>
      <point x="758" y="521"/>
      <point x="641" y="521" type="curve" smooth="yes"/>
      <point x="484" y="521"/>
      <point x="435" y="390"/>
      <point x="437" y="197" type="curve"/>
      <point x="509" y="246" type="line"/>
      <point x="509" y="354"/>
      <point x="539" y="393"/>
      <point x="582" y="393" type="curve" smooth="yes"/>
      <point x="612" y="393"/>
      <point x="625" y="375"/>
      <point x="625" y="329" type="curve" smooth="yes"/>
      <point x="625" y="299"/>
      <point x="624" y="229"/>
      <point x="622" y="193" type="curve" smooth="yes"/>
      <point x="618" y="125"/>
      <point x="615" y="101"/>
      <point x="606" y="13" type="curve"/>
    </contour>
  </outline>
</glyph>
<glyph name="n" format="2">
  <advance width="562"/>
  <unicode hex="006E"/>
  <anchor x="285" y="0" name="bottom"/>
  <anchor x="293" y="515" name="top"/>
  <anchor x="150" y="525" name="topright"/>
  <outline>
    <contour>
      <point x="515" y="0" type="line"/>
      <point x="512" y="81"/>
      <point x="510" y="113"/>
      <point x="510" y="191" type="curve" smooth="yes"/>
      <point x="510" y="231"/>
      <point x="510" y="268"/>
      <point x="510" y="332" type="curve" smooth="yes"/>
      <point x="510" y="462"/>
      <point x="445" y="521"/>
      <point x="355" y="521" type="curve" smooth="yes"/>
      <point x="225" y="521"/>
      <point x="160" y="388"/>
      <point x="160" y="197" type="curve"/>
      <point x="229" y="246" type="line"/>
      <point x="229" y="346"/>
      <point x="253" y="393"/>
      <point x="298" y="393" type="curve" smooth="yes"/>
      <point x="326" y="393"/>
      <point x="341" y="373"/>
      <point x="341" y="327" type="curve" smooth="yes"/>
      <point x="341" y="264"/>
      <point x="341" y="227"/>
      <point x="341" y="187" type="curve" smooth="yes"/>
      <point x="341" y="106"/>
      <point x="339" y="79"/>
      <point x="335" y="1" type="curve"/>
    </contour>
    <contour>
      <point x="54" y="1" type="curve"/>
      <point x="233" y="1" type="line"/>
      <point x="232" y="82"/>
      <point x="229" y="131"/>
      <point x="229" y="246" type="curve"/>
      <point x="223" y="377"/>
      <point x="222" y="498"/>
      <point x="221" y="522" type="curve"/>
      <point x="58" y="515" type="line"/>
      <point x="59" y="465"/>
      <point x="60" y="375"/>
      <point x="60" y="246" type="curve" smooth="yes"/>
      <point x="60" y="119"/>
      <point x="58" y="76"/>
    </contour>
  </outline>
</glyph>
<glyph name="o" format="2">
  <advance width="536"/>
  <unicode hex="006F"/>
  <anchor x="266" y="0" name="bottom"/>
  <anchor x="270" y="256" name="center"/>
  <anchor x="290" y="-4" name="ogonek"/>
  <anchor x="264" y="515" name="top"/>
  <anchor x="349" y="514" name="topright"/>
  <outline>
    <contour>
      <point x="261" y="-10" type="curve" smooth="yes"/>
      <point x="354" y="-10"/>
      <point x="416" y="23"/>
      <point x="454" y="83" type="curve" smooth="yes"/>
      <point x="483" y="129"/>
      <point x="496" y="190"/>
      <point x="496" y="264" type="curve" smooth="yes"/>
      <point x="496" y="325"/>
      <point x="486" y="379"/>
      <point x="465" y="422" type="curve" smooth="yes"/>
      <point x="432" y="488"/>
      <point x="372" y="528"/>
      <point x="280" y="528" type="curve" smooth="yes"/>
      <point x="200" y="528"/>
      <point x="140" y="503"/>
      <point x="99" y="457" type="curve" smooth="yes"/>
      <point x="60" y="411"/>
      <point x="40" y="346"/>
      <point x="40" y="265" type="curve" smooth="yes"/>
      <point x="40" y="193"/>
      <point x="52" y="132"/>
      <point x="78" y="86" type="curve" smooth="yes"/>
      <point x="112" y="25"/>
      <point x="171" y="-10"/>
    </contour>
    <contour>
      <point x="269" y="117" type="curve" smooth="yes"/>
      <point x="247" y="117"/>
      <point x="233" y="129"/>
      <point x="225" y="150" type="curve" smooth="yes"/>
      <point x="215" y="175"/>
      <point x="212" y="212"/>
      <point x="212" y="258" type="curve" smooth="yes"/>
      <point x="212" y="300"/>
      <point x="215" y="338"/>
      <point x="224" y="364" type="curve" smooth="yes"/>
      <point x="232" y="390"/>
      <point x="246" y="405"/>
      <point x="269" y="405" type="curve" smooth="yes"/>
      <point x="296" y="405"/>
      <point x="309" y="390"/>
      <point x="316" y="361" type="curve" smooth="yes"/>
      <point x="322" y="336"/>
      <point x="323" y="301"/>
      <point x="324" y="258" type="curve" smooth="yes"/>
      <point x="325" y="221"/>
      <point x="324" y="190"/>
      <point x="319" y="166" type="curve" smooth="yes"/>
      <point x="312" y="135"/>
      <point x="298" y="117"/>
    </contour>
  </outline>
</glyph>
<glyph name="p" format="2">
  <advance width="564"/>
  <unicode hex="0070"/>
  <outline>
    <contour>
      <point x="53" y="-166" type="curve"/>
      <point x="238" y="-160" type="line"/>
      <point x="232" y="37" type="line"/>
      <point x="246" y="13"/>
      <point x="275" y="-12"/>
      <point x="327" y="-12" type="curve" smooth="yes"/>
      <point x="399" y="-12"/>
      <point x="451" y="25"/>
      <point x="483" y="85" type="curve" smooth="yes"/>
      <point x="508" y="132"/>
      <point x="522" y="194"/>
      <point x="522" y="262" type="curve" smooth="yes"/>
      <point x="522" y="323"/>
      <point x="513" y="379"/>
      <point x="494" y="423" type="curve" smooth="yes"/>
      <point x="468" y="484"/>
      <point x="419" y="522"/>
      <point x="345" y="522" type="curve" smooth="yes"/>
      <point x="291" y="522"/>
      <point x="251" y="494"/>
      <point x="227" y="449" type="curve"/>
      <point x="228" y="520" type="line"/>
      <point x="59" y="515" type="line"/>
      <point x="59" y="443"/>
      <point x="62" y="288"/>
      <point x="62" y="184" type="curve" smooth="yes"/>
      <point x="62" y="62"/>
      <point x="53" y="-166"/>
    </contour>
    <contour>
      <point x="231" y="213" type="curve" smooth="yes"/>
      <point x="231" y="270" type="line" smooth="yes"/>
      <point x="231" y="360"/>
      <point x="261" y="394"/>
      <point x="293" y="394" type="curve" smooth="yes"/>
      <point x="320" y="394"/>
      <point x="335" y="380"/>
      <point x="343" y="349" type="curve" smooth="yes"/>
      <point x="349" y="327"/>
      <point x="351" y="297"/>
      <point x="351" y="258" type="curve" smooth="yes"/>
      <point x="351" y="213"/>
      <point x="347" y="176"/>
      <point x="337" y="150" type="curve" smooth="yes"/>
      <point x="326" y="122"/>
      <point x="311" y="107"/>
      <point x="288" y="107" type="curve" smooth="yes"/>
      <point x="259" y="107"/>
      <point x="231" y="127"/>
    </contour>
  </outline>
</glyph>
<glyph name="q" format="2">
  <advance width="556"/>
  <unicode hex="0071"/>
  <outline>
    <contour>
      <point x="44" y="255" type="curve" smooth="yes"/>
      <point x="44" y="192"/>
      <point x="55" y="135"/>
      <point x="78" y="90" type="curve" smooth="yes"/>
      <point x="109" y="29"/>
      <point x="158" y="-10"/>
      <point x="226" y="-10" type="curve" smooth="yes"/>
      <point x="284" y="-10"/>
      <point x="326" y="24"/>
      <point x="343" y="51" type="curve"/>
      <point x="346" y="-160" type="line"/>
      <point x="509" y="-164" type="line"/>
      <point x="505" y="-53"/>
      <point x="502" y="81"/>
      <point x="502" y="199" type="curve" smooth="yes"/>
      <point x="502" y="322"/>
      <point x="508" y="528"/>
      <point x="508" y="528" type="curve"/>
      <point x="349" y="525" type="line"/>
      <point x="350" y="454" type="line"/>
      <point x="330" y="492"/>
      <point x="296" y="526"/>
      <point x="233" y="526" type="curve" smooth="yes"/>
      <point x="164" y="526"/>
      <point x="114" y="492"/>
      <point x="83" y="437" type="curve" smooth="yes"/>
      <point x="57" y="390"/>
      <point x="44" y="327"/>
    </contour>
    <contour>
      <point x="211" y="261" type="curve" smooth="yes"/>
      <point x="211" y="294"/>
      <point x="214" y="322"/>
      <point x="220" y="344" type="curve" smooth="yes"/>
      <point x="230" y="380"/>
      <point x="247" y="399"/>
      <point x="273" y="399" type="curve" smooth="yes"/>
      <point x="296" y="399"/>
      <point x="314" y="381"/>
      <point x="325" y="349" type="curve" smooth="yes"/>
      <point x="333" y="326"/>
      <point x="337" y="296"/>
      <point x="337" y="260" type="curve" smooth="yes"/>
      <point x="337" y="222"/>
      <point x="334" y="190"/>
      <point x="328" y="166" type="curve" smooth="yes"/>
      <point x="319" y="128"/>
      <point x="303" y="108"/>
      <point x="277" y="108" type="curve" smooth="yes"/>
      <point x="255" y="108"/>
      <point x="237" y="125"/>
      <point x="226" y="156" type="curve" smooth="yes"/>
      <point x="217" y="182"/>
      <point x="211" y="218"/>
    </contour>
  </outline>
</glyph>
<glyph name="r" format="2">
  <advance width="472"/>
  <unicode hex="0072"/>
  <anchor x="131" y="0" name="bottom"/>
  <anchor x="265" y="524" name="top"/>
  <outline>
    <contour>
      <point x="286" y="207" type="curve"/>
      <point x="441" y="208" type="line"/>
      <point x="460" y="260"/>
      <point x="471" y="313"/>
      <point x="471" y="360" type="curve" smooth="yes"/>
      <point x="471" y="456"/>
      <point x="427" y="531"/>
      <point x="327" y="531" type="curve" smooth="yes"/>
      <point x="223" y="531"/>
      <point x="157" y="447"/>
      <point x="157" y="233" type="curve"/>
      <point x="214" y="276" type="line"/>
      <point x="213" y="339"/>
      <point x="219" y="405"/>
      <point x="268" y="405" type="curve" smooth="yes"/>
      <point x="297" y="405"/>
      <point x="310" y="387"/>
      <point x="310" y="348" type="curve" smooth="yes"/>
      <point x="310" y="304"/>
      <point x="300" y="255"/>
    </contour>
    <contour>
      <point x="36" y="-2" type="curve"/>
      <point x="218" y="0" type="line"/>
      <point x="216" y="98"/>
      <point x="214" y="162"/>
      <point x="214" y="276" type="curve"/>
      <point x="207" y="391"/>
      <point x="205" y="467"/>
      <point x="204" y="527" type="curve"/>
      <point x="37" y="520" type="line"/>
      <point x="41" y="467"/>
      <point x="48" y="374"/>
      <point x="45" y="245" type="curve" smooth="yes"/>
      <point x="43" y="145"/>
      <point x="41" y="98"/>
    </contour>
  </outline>
</glyph>
<glyph name="s" format="2">
  <advance width="480"/>
  <unicode hex="0073"/>
  <anchor x="248" y="0" name="bottom"/>
  <anchor x="238" y="515" name="top"/>
  <outline>
    <contour>
      <point x="231" y="-10" type="curve"/>
      <point x="396" y="-10"/>
      <point x="463" y="54"/>
      <point x="463" y="145" type="curve" smooth="yes"/>
      <point x="463" y="270"/>
      <point x="329" y="294"/>
      <point x="243" y="321" type="curve" smooth="yes"/>
      <point x="195" y="336"/>
      <point x="188" y="350"/>
      <point x="188" y="372" type="curve" smooth="yes"/>
      <point x="188" y="396"/>
      <point x="204" y="412"/>
      <point x="236" y="412" type="curve" smooth="yes"/>
      <point x="271" y="412"/>
      <point x="290" y="397"/>
      <point x="290" y="365" type="curve" smooth="yes"/>
      <point x="290" y="355"/>
      <point x="288" y="343"/>
      <point x="284" y="329" type="curve"/>
      <point x="453" y="329" type="line"/>
      <point x="457" y="345"/>
      <point x="459" y="359"/>
      <point x="459" y="374" type="curve" smooth="yes"/>
      <point x="459" y="469"/>
      <point x="369" y="533"/>
      <point x="245" y="533" type="curve" smooth="yes"/>
      <point x="92" y="533"/>
      <point x="18" y="454"/>
      <point x="18" y="362" type="curve" smooth="yes"/>
      <point x="18" y="240"/>
      <point x="115" y="208"/>
      <point x="200" y="182" type="curve" smooth="yes"/>
      <point x="263" y="163"/>
      <point x="290" y="159"/>
      <point x="290" y="139" type="curve" smooth="yes"/>
      <point x="290" y="118"/>
      <point x="263" y="113"/>
      <point x="239" y="113" type="curve" smooth="yes"/>
      <point x="209" y="113"/>
      <point x="188" y="125"/>
      <point x="188" y="150" type="curve" smooth="yes"/>
      <point x="188" y="156"/>
      <point x="189" y="162"/>
      <point x="191" y="169" type="curve"/>
      <point x="22" y="168" type="line"/>
      <point x="20" y="156"/>
      <point x="19" y="145"/>
      <point x="19" y="134" type="curve" smooth="yes"/>
      <point x="19" y="35"/>
      <point x="105" y="-10"/>
    </contour>
  </outline>
</glyph>
<glyph name="t" format="2">
  <advance width="493"/>
  <unicode hex="0074"/>
  <anchor x="258" y="0" name="bottom"/>
  <anchor x="202" y="310" name="center"/>
  <anchor x="280" y="555" name="topright"/>
  <outline>
    <contour>
      <point x="247" y="-10" type="curve" smooth="yes"/>
      <point x="404" y="-10"/>
      <point x="477" y="62"/>
      <point x="477" y="167" type="curve" smooth="yes"/>
      <point x="477" y="189"/>
      <point x="473" y="212"/>
      <point x="467" y="237" type="curve"/>
      <point x="302" y="238" type="line"/>
      <point x="309" y="220"/>
      <point x="314" y="196"/>
      <point x="314" y="172" type="curve" smooth="yes"/>
      <point x="314" y="147"/>
      <point x="309" y="115"/>
      <point x="274" y="115" type="curve" smooth="yes"/>
      <point x="235" y="115"/>
      <point x="234" y="146"/>
      <point x="234" y="191" type="curve" smooth="yes"/>
      <point x="234" y="218"/>
      <point x="235" y="257"/>
      <point x="237" y="288" type="curve" smooth="yes"/>
      <point x="243" y="385"/>
      <point x="252" y="493"/>
      <point x="262" y="621" type="curve"/>
      <point x="80" y="620" type="line"/>
      <point x="80" y="496"/>
      <point x="71" y="395"/>
      <point x="65" y="298" type="curve" smooth="yes"/>
      <point x="63" y="267"/>
      <point x="61" y="235"/>
      <point x="61" y="205" type="curve" smooth="yes"/>
      <point x="61" y="91"/>
      <point x="89" y="-10"/>
    </contour>
    <contour>
      <point x="4" y="375" type="line"/>
      <point x="4" y="375"/>
      <point x="114" y="381"/>
      <point x="164" y="382" type="curve" smooth="yes"/>
      <point x="214" y="383"/>
      <point x="458" y="385"/>
      <point x="458" y="385" type="curve"/>
      <point x="462" y="515" type="line"/>
      <point x="462" y="515"/>
      <point x="199" y="512"/>
      <point x="150" y="512" type="curve" smooth="yes"/>
      <point x="121" y="512"/>
      <point x="36" y="513"/>
      <point x="14" y="513" type="curve"/>
    </contour>
  </outline>
</glyph>
<glyph name="u" format="2">
  <advance width="541"/>
  <unicode hex="0075"/>
  <anchor x="274" y="0" name="bottom"/>
  <anchor x="418" y="-1" name="ogonek"/>
  <anchor x="281" y="515" name="top"/>
  <anchor x="384" y="537" name="topright"/>
  <outline>
    <contour>
      <point x="206" y="-10" type="curve" smooth="yes"/>
      <point x="339" y="-10"/>
      <point x="397" y="126"/>
      <point x="399" y="311" type="curve"/>
      <point x="337" y="309" type="line"/>
      <point x="337" y="149"/>
      <point x="290" y="113"/>
      <point x="251" y="113" type="curve" smooth="yes"/>
      <point x="213" y="113"/>
      <point x="199" y="143"/>
      <point x="199" y="240" type="curve" smooth="yes"/>
      <point x="199" y="272"/>
      <point x="198" y="307"/>
      <point x="200" y="345" type="curve" smooth="yes"/>
      <point x="203" y="411"/>
      <point x="209" y="445"/>
      <point x="218" y="525" type="curve"/>
      <point x="51" y="519" type="line"/>
      <point x="47" y="452"/>
      <point x="46" y="429"/>
      <point x="44" y="371" type="curve" smooth="yes"/>
      <point x="42" y="315"/>
      <point x="42" y="262"/>
      <point x="42" y="216" type="curve" smooth="yes"/>
      <point x="42" y="76"/>
      <point x="83" y="-10"/>
    </contour>
    <contour>
      <point x="349" y="0" type="line"/>
      <point x="499" y="0" type="line"/>
      <point x="499" y="2"/>
      <point x="493" y="199"/>
      <point x="493" y="282" type="curve" smooth="yes"/>
      <point x="493" y="372"/>
      <point x="499" y="407"/>
      <point x="505" y="526" type="curve"/>
      <point x="337" y="528" type="line"/>
      <point x="337" y="492"/>
      <point x="337" y="390"/>
      <point x="337" y="309" type="curve" smooth="yes"/>
      <point x="337" y="246"/>
      <point x="338" y="173"/>
      <point x="339" y="112" type="curve"/>
    </contour>
  </outline>
</glyph>
<glyph name="v" format="2">
  <advance width="480"/>
  <unicode hex="0076"/>
  <outline>
    <contour>
      <point x="10" y="526" type="line"/>
      <point x="30" y="456"/>
      <point x="51" y="390"/>
      <point x="80" y="277" type="curve" smooth="yes"/>
      <point x="104" y="184"/>
      <point x="131" y="86"/>
      <point x="151" y="0" type="curve"/>
      <point x="332" y="-4" type="line"/>
      <point x="352" y="79"/>
      <point x="378" y="176"/>
      <point x="405" y="275" type="curve" smooth="yes"/>
      <point x="432" y="373"/>
      <point x="449" y="432"/>
      <point x="477" y="522" type="curve"/>
      <point x="303" y="515" type="line"/>
      <point x="296" y="466"/>
      <point x="291" y="439"/>
      <point x="281" y="378" type="curve" smooth="yes"/>
      <point x="268" y="298"/>
      <point x="254" y="220"/>
      <point x="244" y="166" type="curve"/>
      <point x="235" y="218"/>
      <point x="223" y="291"/>
      <point x="212" y="368" type="curve" smooth="yes"/>
      <point x="202" y="435"/>
      <point x="198" y="463"/>
      <point x="189" y="525" type="curve"/>
    </contour>
  </outline>
</glyph>
<glyph name="w" format="2">
  <advance width="773"/>
  <unicode hex="0077"/>
  <anchor x="388" y="515" name="top"/>
  <outline>
    <contour>
      <point x="163" y="0" type="curve"/>
      <point x="344" y="-4" type="line"/>
      <point x="347" y="23"/>
      <point x="358" y="92"/>
      <point x="372" y="170" type="curve" smooth="yes"/>
      <point x="379" y="210"/>
      <point x="385" y="251"/>
      <point x="391" y="290" type="curve"/>
      <point x="397" y="243"/>
      <point x="404" y="202"/>
      <point x="410" y="164" type="curve" smooth="yes"/>
      <point x="419" y="107"/>
      <point x="428" y="55"/>
      <point x="436" y="-4" type="curve"/>
      <point x="618" y="0" type="line"/>
      <point x="629" y="50"/>
      <point x="661" y="174"/>
      <point x="692" y="296" type="curve" smooth="yes"/>
      <point x="720" y="407"/>
      <point x="741" y="476"/>
      <point x="757" y="523" type="curve"/>
      <point x="580" y="523" type="line"/>
      <point x="567" y="436"/>
      <point x="561" y="401"/>
      <point x="550" y="334" type="curve" smooth="yes"/>
      <point x="540" y="275"/>
      <point x="531" y="222"/>
      <point x="522" y="173" type="curve"/>
      <point x="515" y="214"/>
      <point x="507" y="255"/>
      <point x="500" y="298" type="curve" smooth="yes"/>
      <point x="489" y="364"/>
      <point x="485" y="396"/>
      <point x="476" y="478" type="curve"/>
      <point x="307" y="478" type="line"/>
      <point x="297" y="395"/>
      <point x="293" y="368"/>
      <point x="283" y="308" type="curve" smooth="yes"/>
      <point x="275" y="262"/>
      <point x="267" y="219"/>
      <point x="259" y="173" type="curve"/>
      <point x="250" y="222"/>
      <point x="242" y="267"/>
      <point x="233" y="321" type="curve" smooth="yes"/>
      <point x="222" y="389"/>
      <point x="216" y="426"/>
      <point x="203" y="516" type="curve"/>
      <point x="26" y="516" type="line"/>
      <point x="49" y="440"/>
      <point x="68" y="376"/>
      <point x="95" y="273" type="curve" smooth="yes"/>
      <point x="121" y="175"/>
      <point x="145" y="76"/>
    </contour>
  </outline>
</glyph>
<glyph name="x" format="2">
  <advance width="446"/>
  <unicode hex="0078"/>
  <outline>
    <contour>
      <point x="155" y="-4" type="line"/>
      <point x="215" y="103"/>
      <point x="234" y="136"/>
      <point x="308" y="261" type="curve" smooth="yes"/>
      <point x="381" y="385"/>
      <point x="397" y="415"/>
      <point x="456" y="518" type="curve"/>
      <point x="287" y="518" type="line"/>
      <point x="269" y="484"/>
      <point x="221" y="398"/>
      <point x="158" y="288" type="curve" smooth="yes"/>
      <point x="77" y="146"/>
      <point x="-4" y="15"/>
      <point x="-15" y="-2" type="curve"/>
    </contour>
    <contour>
      <point x="304" y="0" type="curve"/>
      <point x="472" y="3" type="line"/>
      <point x="460" y="20"/>
      <point x="379" y="148"/>
      <point x="296" y="290" type="curve" smooth="yes"/>
      <point x="235" y="394"/>
      <point x="187" y="475"/>
      <point x="164" y="518" type="curve"/>
      <point x="-12" y="515" type="line"/>
      <point x="47" y="419"/>
      <point x="68" y="382"/>
      <point x="144" y="261" type="curve" smooth="yes"/>
      <point x="220" y="140"/>
      <point x="254" y="85"/>
    </contour>
  </outline>
</glyph>
<glyph name="y" format="2">
  <advance width="480"/>
  <unicode hex="0079"/>
  <anchor x="394" y="30" name="bottom"/>
  <anchor x="233" y="515" name="top"/>
  <outline>
    <contour>
      <point x="279" y="-164" type="line"/>
      <point x="308" y="-51"/>
      <point x="360" y="126"/>
      <point x="411" y="287" type="curve" smooth="yes"/>
      <point x="445" y="394"/>
      <point x="468" y="453"/>
      <point x="492" y="523" type="curve"/>
      <point x="311" y="523" type="line"/>
      <point x="284" y="400"/>
      <point x="267" y="321"/>
      <point x="231" y="196" type="curve" smooth="yes"/>
      <point x="199" y="85"/>
      <point x="157" y="-31"/>
      <point x="112" y="-156" type="curve"/>
    </contour>
    <contour>
      <point x="186" y="-35" type="curve"/>
      <point x="305" y="45" type="line"/>
      <point x="271" y="150"/>
      <point x="243" y="238"/>
      <point x="218" y="323" type="curve" smooth="yes"/>
      <point x="195" y="400"/>
      <point x="185" y="434"/>
      <point x="163" y="513" type="curve"/>
      <point x="-22" y="511" type="line"/>
      <point x="13" y="429"/>
      <point x="38" y="370"/>
      <point x="75" y="270" type="curve" smooth="yes"/>
      <point x="114" y="164"/>
      <point x="155" y="56"/>
    </contour>
  </outline>
</glyph>
<glyph name="z" format="2">
  <advance width="397"/>
  <unicode hex="007A"/>
  <anchor x="191" y="515" name="top"/>
  <outline>
    <contour>
      <point x="116" y="10" type="line"/>
      <point x="159" y="71"/>
      <point x="212" y="145"/>
      <point x="266" y="218" type="curve" smooth="yes"/>
      <point x="306" y="272"/>
      <point x="345" y="325"/>
      <point x="381" y="373" type="curve"/>
      <point x="265" y="495" type="line"/>
      <point x="226" y="434"/>
      <point x="173" y="357"/>
      <point x="121" y="285" type="curve" smooth="yes"/>
      <point x="80" y="229"/>
      <point x="41" y="174"/>
      <point x="8" y="132" type="curve"/>
    </contour>
    <contour>
      <point x="9" y="-4" type="line"/>
      <point x="9" y="-4"/>
      <point x="108" y="0"/>
      <point x="198" y="0" type="curve"/>
      <point x="242" y="-1"/>
      <point x="385" y="0"/>
      <point x="385" y="0" type="curve"/>
      <point x="390" y="134" type="line"/>
      <point x="390" y="134"/>
      <point x="267" y="132"/>
      <point x="213" y="131" type="curve"/>
      <point x="125" y="131"/>
      <point x="8" y="132"/>
      <point x="8" y="132" type="curve"/>
    </contour>
    <contour>
      <point x="11" y="373" type="line"/>
      <point x="11" y="373"/>
      <point x="127" y="375"/>
      <point x="182" y="375" type="curve"/>
      <point x="281" y="375"/>
      <point x="381" y="373"/>
      <point x="381" y="373" type="curve"/>
      <point x="378" y="515" type="line"/>
      <point x="378" y="515"/>
      <point x="280" y="512"/>
      <point x="198" y="512" type="curve"/>
      <point x="148" y="511"/>
      <point x="16" y="512"/>
      <point x="16" y="512" type="curve"/>
    </contour>
  </outline>
</glyph>
<glyph name="braceleft" format="2">
  <advance width="684"/>
  <unicode hex="007B"/>
  <outline>
    <contour>
      <point x="404" y="-147" type="curve" smooth="yes"/>
      <point x="459" y="-147"/>
      <point x="521" y="-135"/>
      <point x="584" y="-112" type="curve"/>
      <point x="560" y="17" type="line"/>
      <point x="501" y="-7"/>
      <point x="451" y="-23"/>
      <point x="415" y="-23" type="curve" smooth="yes"/>
      <point x="377" y="-23"/>
      <point x="355" y="-4"/>
      <point x="355" y="44" type="curve" smooth="yes"/>
      <point x="355" y="67"/>
      <point x="376" y="131"/>
      <point x="376" y="177" type="curve" smooth="yes"/>
      <point x="376" y="228"/>
      <point x="337" y="255"/>
      <point x="282" y="279" type="curve"/>
      <point x="336" y="300"/>
      <point x="374" y="322"/>
      <point x="374" y="374" type="curve" smooth="yes"/>
      <point x="374" y="432"/>
      <point x="343" y="498"/>
      <point x="343" y="532" type="curve" smooth="yes"/>
      <point x="343" y="579"/>
      <point x="373" y="597"/>
      <point x="414" y="597" type="curve" smooth="yes"/>
      <point x="451" y="597"/>
      <point x="497" y="583"/>
      <point x="540" y="560" type="curve"/>
      <point x="570" y="685" type="line"/>
      <point x="511" y="708"/>
      <point x="450" y="721"/>
      <point x="394" y="721" type="curve" smooth="yes"/>
      <point x="272" y="721"/>
      <point x="186" y="670"/>
      <point x="186" y="550" type="curve" smooth="yes"/>
      <point x="186" y="493"/>
      <point x="218" y="443"/>
      <point x="218" y="384" type="curve" smooth="yes"/>
      <point x="218" y="335"/>
      <point x="158" y="316"/>
      <point x="88" y="323" type="curve"/>
      <point x="100" y="224" type="line"/>
      <point x="164" y="231"/>
      <point x="218" y="212"/>
      <point x="218" y="161" type="curve" smooth="yes"/>
      <point x="218" y="112"/>
      <point x="196" y="73"/>
      <point x="196" y="23" type="curve" smooth="yes"/>
      <point x="196" y="-96"/>
      <point x="280" y="-147"/>
    </contour>
  </outline>
</glyph>
<glyph name="braceright" format="2">
  <advance width="684"/>
  <unicode hex="007D"/>
  <outline>
    <contour>
      <point x="289" y="-147" type="curve" smooth="yes"/>
      <point x="411" y="-147"/>
      <point x="497" y="-96"/>
      <point x="497" y="24" type="curve" smooth="yes"/>
      <point x="497" y="81"/>
      <point x="465" y="131"/>
      <point x="465" y="190" type="curve" smooth="yes"/>
      <point x="465" y="239"/>
      <point x="525" y="258"/>
      <point x="595" y="251" type="curve"/>
      <point x="583" y="350" type="line"/>
      <point x="519" y="343"/>
      <point x="465" y="362"/>
      <point x="465" y="413" type="curve" smooth="yes"/>
      <point x="465" y="462"/>
      <point x="487" y="501"/>
      <point x="487" y="551" type="curve" smooth="yes"/>
      <point x="487" y="670"/>
      <point x="403" y="721"/>
      <point x="279" y="721" type="curve" smooth="yes"/>
      <point x="224" y="721"/>
      <point x="162" y="709"/>
      <point x="99" y="686" type="curve"/>
      <point x="123" y="557" type="line"/>
      <point x="182" y="581"/>
      <point x="232" y="597"/>
      <point x="268" y="597" type="curve" smooth="yes"/>
      <point x="306" y="597"/>
      <point x="328" y="578"/>
      <point x="328" y="530" type="curve" smooth="yes"/>
      <point x="328" y="507"/>
      <point x="307" y="443"/>
      <point x="307" y="397" type="curve" smooth="yes"/>
      <point x="307" y="346"/>
      <point x="346" y="319"/>
      <point x="401" y="295" type="curve"/>
      <point x="347" y="274"/>
      <point x="309" y="252"/>
      <point x="309" y="200" type="curve" smooth="yes"/>
      <point x="309" y="142"/>
      <point x="340" y="76"/>
      <point x="340" y="42" type="curve" smooth="yes"/>
      <point x="340" y="-5"/>
      <point x="310" y="-23"/>
      <point x="269" y="-23" type="curve" smooth="yes"/>
      <point x="232" y="-23"/>
      <point x="186" y="-9"/>
      <point x="143" y="14" type="curve"/>
      <point x="113" y="-111" type="line"/>
      <point x="172" y="-134"/>
      <point x="233" y="-147"/>
    </contour>
  </outline>
</glyph>
<glyph name="exclamdown" format="2">
  <advance width="402"/>
  <unicode hex="00A1"/>
  <outline>
    <contour>
      <point x="96" y="-158" type="curve"/>
      <point x="272" y="-150" type="line"/>
      <point x="267" y="-44"/>
      <point x="263" y="1"/>
      <point x="260" y="70" type="curve" smooth="yes"/>
      <point x="257" y="141"/>
      <point x="253" y="214"/>
      <point x="249" y="323" type="curve"/>
      <point x="127" y="321" type="line"/>
      <point x="123" y="200"/>
      <point x="120" y="145"/>
      <point x="115" y="76" type="curve" smooth="yes"/>
      <point x="109" y="-9"/>
      <point x="107" y="-37"/>
    </contour>
    <contour>
      <point x="115" y="382" type="line"/>
      <point x="265" y="385" type="line"/>
      <point x="269" y="554" type="line"/>
      <point x="104" y="544" type="line"/>
    </contour>
  </outline>
</glyph>
<glyph name="cent" format="2">
  <advance width="640"/>
  <unicode hex="00A2"/>
  <outline>
    <contour>
      <point x="306" y="28" type="curve" smooth="yes"/>
      <point x="442" y="28"/>
      <point x="524" y="80"/>
      <point x="524" y="199" type="curve" smooth="yes"/>
      <point x="524" y="208"/>
      <point x="524" y="218"/>
      <point x="523" y="228" type="curve"/>
      <point x="355" y="228" type="line"/>
      <point x="357" y="217"/>
      <point x="358" y="208"/>
      <point x="358" y="199" type="curve" smooth="yes"/>
      <point x="358" y="170"/>
      <point x="346" y="153"/>
      <point x="311" y="153" type="curve" smooth="yes"/>
      <point x="284" y="153"/>
      <point x="272" y="167"/>
      <point x="266" y="195" type="curve" smooth="yes"/>
      <point x="260" y="227"/>
      <point x="260" y="332"/>
      <point x="267" y="362" type="curve" smooth="yes"/>
      <point x="273" y="390"/>
      <point x="287" y="405"/>
      <point x="315" y="405" type="curve" smooth="yes"/>
      <point x="345" y="405"/>
      <point x="353" y="379"/>
      <point x="353" y="351" type="curve" smooth="yes"/>
      <point x="353" y="337"/>
      <point x="351" y="322"/>
      <point x="348" y="309" type="curve"/>
      <point x="518" y="306" type="line"/>
      <point x="522" y="325"/>
      <point x="524" y="344"/>
      <point x="524" y="361" type="curve" smooth="yes"/>
      <point x="524" y="458"/>
      <point x="459" y="524"/>
      <point x="320" y="524" type="curve" smooth="yes"/>
      <point x="245" y="524"/>
      <point x="190" y="503"/>
      <point x="152" y="465" type="curve" smooth="yes"/>
      <point x="73" y="384"/>
      <point x="67" y="188"/>
      <point x="136" y="99" type="curve" smooth="yes"/>
      <point x="170" y="54"/>
      <point x="225" y="28"/>
    </contour>
    <contour>
      <point x="356" y="-45" type="line"/>
      <point x="350" y="69"/>
      <point x="347" y="159"/>
      <point x="347" y="311" type="curve" smooth="yes"/>
      <point x="347" y="462"/>
      <point x="353" y="500"/>
      <point x="360" y="604" type="curve"/>
      <point x="272" y="608" type="line"/>
      <point x="273" y="524"/>
      <point x="275" y="549"/>
      <point x="275" y="322" type="curve" smooth="yes"/>
      <point x="275" y="96"/>
      <point x="273" y="43"/>
      <point x="268" y="-44" type="curve"/>
    </contour>
  </outline>
</glyph>
<glyph name="brokenbar" format="2">
  <advance width="289"/>
  <unicode hex="00A6"/>
  <outline>
    <contour>
      <point x="77" y="352" type="curve"/>
      <point x="205" y="352" type="line"/>
      <point x="207" y="518"/>
      <point x="211" y="608"/>
      <point x="214" y="694" type="curve"/>
      <point x="75" y="693" type="line"/>
      <point x="75" y="589"/>
      <point x="77" y="516"/>
    </contour>
    <contour>
      <point x="74" y="-134" type="curve"/>
      <point x="215" y="-136" type="line"/>
      <point x="212" y="-65"/>
      <point x="208" y="29"/>
      <point x="206" y="187" type="curve"/>
      <point x="77" y="187" type="line"/>
      <point x="74" y="47"/>
      <point x="73" y="-85"/>
    </contour>
  </outline>
</glyph>
<glyph name="dieresis" format="2">
  <advance width="391"/>
  <unicode hex="00A8"/>
  <anchor x="183" y="552" name="_top"/>
  <outline>
    <contour>
      <point x="364" y="623" type="line"/>
      <point x="363" y="746" type="line"/>
      <point x="243" y="740" type="line"/>
      <point x="251" y="630" type="line"/>
    </contour>
    <contour>
      <point x="122" y="623" type="line"/>
      <point x="122" y="746" type="line"/>
      <point x="2" y="740" type="line"/>
      <point x="9" y="630" type="line"/>
    </contour>
  </outline>
</glyph>
<glyph name="copyright" format="2">
  <advance width="807"/>
  <unicode hex="00A9"/>
  <outline>
    <contour>
      <point x="385" y="20" type="curve" smooth="yes"/>
      <point x="642" y="20"/>
      <point x="778" y="165"/>
      <point x="778" y="405" type="curve" smooth="yes"/>
      <point x="778" y="594"/>
      <point x="668" y="751"/>
      <point x="412" y="751" type="curve" smooth="yes"/>
      <point x="163" y="751"/>
      <point x="29" y="591"/>
      <point x="29" y="374" type="curve" smooth="yes"/>
      <point x="29" y="179"/>
      <point x="133" y="20"/>
    </contour>
    <contour>
      <point x="400" y="181" type="curve" smooth="yes"/>
      <point x="518" y="181"/>
      <point x="560" y="249"/>
      <point x="560" y="310" type="curve" smooth="yes"/>
      <point x="560" y="315"/>
      <point x="560" y="320"/>
      <point x="559" y="325" type="curve"/>
      <point x="461" y="325" type="line"/>
      <point x="462" y="320"/>
      <point x="463" y="314"/>
      <point x="463" y="307" type="curve" smooth="yes"/>
      <point x="463" y="285"/>
      <point x="453" y="257"/>
      <point x="404" y="257" type="curve" smooth="yes"/>
      <point x="373" y="257"/>
      <point x="356" y="274"/>
      <point x="347" y="301" type="curve" smooth="yes"/>
      <point x="339" y="325"/>
      <point x="338" y="357"/>
      <point x="338" y="390" type="curve" smooth="yes"/>
      <point x="338" y="423"/>
      <point x="341" y="456"/>
      <point x="350" y="481" type="curve" smooth="yes"/>
      <point x="359" y="507"/>
      <point x="375" y="525"/>
      <point x="403" y="525" type="curve" smooth="yes"/>
      <point x="453" y="525"/>
      <point x="462" y="488"/>
      <point x="462" y="446" type="curve" smooth="yes"/>
      <point x="462" y="435"/>
      <point x="462" y="424"/>
      <point x="461" y="413" type="curve"/>
      <point x="560" y="410" type="line"/>
      <point x="561" y="420"/>
      <point x="561" y="431"/>
      <point x="561" y="441" type="curve" smooth="yes"/>
      <point x="561" y="522"/>
      <point x="532" y="598"/>
      <point x="406" y="598" type="curve" smooth="yes"/>
      <point x="341" y="598"/>
      <point x="299" y="573"/>
      <point x="274" y="534" type="curve" smooth="yes"/>
      <point x="248" y="495"/>
      <point x="239" y="442"/>
      <point x="239" y="388" type="curve" smooth="yes"/>
      <point x="239" y="340"/>
      <point x="246" y="289"/>
      <point x="270" y="249" type="curve" smooth="yes"/>
      <point x="294" y="209"/>
      <point x="334" y="181"/>
    </contour>
    <contour>
      <point x="392" y="123" type="curve" smooth="yes"/>
      <point x="213" y="123"/>
      <point x="152" y="218"/>
      <point x="152" y="383" type="curve" smooth="yes"/>
      <point x="152" y="466"/>
      <point x="186" y="648"/>
      <point x="407" y="648" type="curve" smooth="yes"/>
      <point x="581" y="648"/>
      <point x="650" y="555"/>
      <point x="650" y="389" type="curve" smooth="yes"/>
      <point x="650" y="227"/>
      <point x="568" y="123"/>
    </contour>
  </outline>
</glyph>
<glyph name="ordfeminine" format="2">
  <advance width="440"/>
  <unicode hex="00AA"/>
  <outline>
    <contour>
      <point x="84" y="534" type="curve" smooth="yes"/>
      <point x="84" y="492"/>
      <point x="125" y="472"/>
      <point x="171" y="472" type="curve" smooth="yes"/>
      <point x="208" y="472"/>
      <point x="248" y="484"/>
      <point x="274" y="508" type="curve"/>
      <point x="279" y="495"/>
      <point x="285" y="482"/>
      <point x="301" y="472" type="curve"/>
      <point x="369" y="500" type="line"/>
      <point x="356" y="511"/>
      <point x="352" y="531"/>
      <point x="352" y="545" type="curve" smooth="yes"/>
      <point x="352" y="619" type="line" smooth="yes"/>
      <point x="352" y="674"/>
      <point x="311" y="703"/>
      <point x="226" y="703" type="curve" smooth="yes"/>
      <point x="131" y="703"/>
      <point x="90" y="665"/>
      <point x="93" y="618" type="curve"/>
      <point x="165" y="618" type="line"/>
      <point x="162" y="635"/>
      <point x="173" y="653"/>
      <point x="221" y="653" type="curve" smooth="yes"/>
      <point x="257" y="653"/>
      <point x="271" y="644"/>
      <point x="271" y="631" type="curve" smooth="yes"/>
      <point x="271" y="611"/>
      <point x="236" y="609"/>
      <point x="195" y="603" type="curve" smooth="yes"/>
      <point x="144" y="595"/>
      <point x="84" y="587"/>
    </contour>
    <contour>
      <point x="164" y="539" type="curve" smooth="yes"/>
      <point x="164" y="554"/>
      <point x="182" y="556"/>
      <point x="204" y="561" type="curve" smooth="yes"/>
      <point x="228" y="566"/>
      <point x="256" y="570"/>
      <point x="270" y="577" type="curve"/>
      <point x="270" y="566" type="line" smooth="yes"/>
      <point x="270" y="536"/>
      <point x="231" y="523"/>
      <point x="200" y="523" type="curve" smooth="yes"/>
      <point x="180" y="523"/>
      <point x="164" y="528"/>
    </contour>
  </outline>
</glyph>
<glyph name="logicalnot" format="2">
  <advance width="693"/>
  <unicode hex="00AC"/>
  <outline>
    <contour>
      <point x="18" y="318" type="line"/>
      <point x="138" y="319"/>
      <point x="248" y="324"/>
      <point x="332" y="322" type="curve" smooth="yes"/>
      <point x="382" y="321"/>
      <point x="537" y="321"/>
      <point x="635" y="317" type="curve"/>
      <point x="645" y="433" type="line"/>
      <point x="536" y="429"/>
      <point x="381" y="430"/>
      <point x="323" y="431" type="curve" smooth="yes"/>
      <point x="230" y="433"/>
      <point x="130" y="430"/>
      <point x="9" y="433" type="curve"/>
    </contour>
    <contour>
      <point x="531" y="121" type="curve"/>
      <point x="647" y="125" type="line"/>
      <point x="646" y="179"/>
      <point x="641" y="240"/>
      <point x="642" y="299" type="curve"/>
      <point x="641" y="363"/>
      <point x="645" y="389"/>
      <point x="645" y="433" type="curve"/>
      <point x="529" y="403" type="line"/>
      <point x="534" y="348"/>
      <point x="534" y="348"/>
      <point x="534" y="290" type="curve" smooth="yes"/>
      <point x="534" y="224"/>
      <point x="531" y="166"/>
    </contour>
  </outline>
</glyph>
<glyph name="macron" format="2">
  <advance width="337"/>
  <unicode hex="00AF"/>
  <anchor x="157" y="552" name="_top"/>
  <outline>
    <contour>
      <point x="13" y="635" type="line"/>
      <point x="301" y="638" type="line"/>
      <point x="296" y="725" type="line"/>
      <point x="13" y="728" type="line"/>
    </contour>
  </outline>
</glyph>
<glyph name="plusminus" format="2">
  <advance width="638"/>
  <unicode hex="00B1"/>
  <outline>
    <contour>
      <point x="370" y="255" type="line"/>
      <point x="363" y="313"/>
      <point x="360" y="395"/>
      <point x="360" y="469" type="curve" smooth="yes"/>
      <point x="360" y="546"/>
      <point x="365" y="630"/>
      <point x="367" y="675" type="curve"/>
      <point x="248" y="671" type="line"/>
      <point x="251" y="626"/>
      <point x="252" y="540"/>
      <point x="253" y="467" type="curve" smooth="yes"/>
      <point x="254" y="398"/>
      <point x="253" y="304"/>
      <point x="249" y="249" type="curve"/>
    </contour>
    <contour>
      <point x="65" y="90" type="line"/>
      <point x="100" y="90"/>
      <point x="253" y="95"/>
      <point x="311" y="95" type="curve" smooth="yes"/>
      <point x="373" y="95"/>
      <point x="510" y="93"/>
      <point x="551" y="93" type="curve"/>
      <point x="556" y="208" type="line"/>
      <point x="510" y="208"/>
      <point x="367" y="205"/>
      <point x="303" y="202" type="curve" smooth="yes"/>
      <point x="239" y="200"/>
      <point x="108" y="201"/>
      <point x="61" y="205" type="curve"/>
    </contour>
    <contour>
      <point x="59" y="398" type="line"/>
      <point x="100" y="399"/>
      <point x="254" y="405"/>
      <point x="321" y="405" type="curve" smooth="yes"/>
      <point x="388" y="405"/>
      <point x="519" y="399"/>
      <point x="551" y="399" type="curve"/>
      <point x="560" y="516" type="line"/>
      <point x="510" y="515"/>
      <point x="384" y="513"/>
      <point x="320" y="512" type="curve" smooth="yes"/>
      <point x="259" y="510"/>
      <point x="97" y="513"/>
      <point x="62" y="513" type="curve"/>
    </contour>
  </outline>
</glyph>
<glyph name="twosuperior" format="2">
  <advance width="382"/>
  <unicode hex="00B2"/>
  <outline>
    <contour>
      <point x="161" y="589" type="line"/>
      <point x="233" y="603"/>
      <point x="320" y="639"/>
      <point x="320" y="719" type="curve" smooth="yes"/>
      <point x="320" y="763"/>
      <point x="289" y="805"/>
      <point x="195" y="805" type="curve" smooth="yes"/>
      <point x="113" y="805"/>
      <point x="71" y="763"/>
      <point x="71" y="706" type="curve" smooth="yes"/>
      <point x="71" y="696"/>
      <point x="72" y="687"/>
      <point x="74" y="677" type="curve"/>
      <point x="168" y="680" type="line"/>
      <point x="165" y="691"/>
      <point x="163" y="701"/>
      <point x="163" y="709" type="curve" smooth="yes"/>
      <point x="163" y="730"/>
      <point x="173" y="743"/>
      <point x="194" y="743" type="curve" smooth="yes"/>
      <point x="217" y="743"/>
      <point x="225" y="731"/>
      <point x="225" y="710" type="curve" smooth="yes"/>
      <point x="225" y="658"/>
      <point x="169" y="635"/>
      <point x="73" y="612" type="curve"/>
    </contour>
    <contour>
      <point x="72" y="556" type="line"/>
      <point x="120" y="556"/>
      <point x="153" y="555"/>
      <point x="195" y="555" type="curve" smooth="yes"/>
      <point x="223" y="555"/>
      <point x="266" y="555"/>
      <point x="324" y="554" type="curve"/>
      <point x="323" y="614" type="line"/>
      <point x="310" y="613"/>
      <point x="248" y="612"/>
      <point x="200" y="612" type="curve" smooth="yes"/>
      <point x="153" y="612"/>
      <point x="89" y="612"/>
      <point x="73" y="612" type="curve"/>
    </contour>
  </outline>
</glyph>
<glyph name="threesuperior" format="2">
  <advance width="382"/>
  <unicode hex="00B3"/>
  <outline>
    <contour>
      <point x="185" y="560" type="curve" smooth="yes"/>
      <point x="260" y="560"/>
      <point x="315" y="577"/>
      <point x="315" y="626" type="curve" smooth="yes"/>
      <point x="315" y="652"/>
      <point x="294" y="666"/>
      <point x="263" y="668" type="curve"/>
      <point x="292" y="679"/>
      <point x="319" y="698"/>
      <point x="319" y="733" type="curve" smooth="yes"/>
      <point x="319" y="776"/>
      <point x="275" y="806"/>
      <point x="195" y="806" type="curve" smooth="yes"/>
      <point x="117" y="806"/>
      <point x="68" y="773"/>
      <point x="68" y="729" type="curve" smooth="yes"/>
      <point x="68" y="723"/>
      <point x="69" y="716"/>
      <point x="71" y="709" type="curve"/>
      <point x="163" y="709" type="line"/>
      <point x="162" y="712"/>
      <point x="161" y="716"/>
      <point x="161" y="719" type="curve" smooth="yes"/>
      <point x="161" y="732"/>
      <point x="170" y="743"/>
      <point x="195" y="743" type="curve" smooth="yes"/>
      <point x="223" y="743"/>
      <point x="230" y="735"/>
      <point x="230" y="717" type="curve" smooth="yes"/>
      <point x="230" y="695"/>
      <point x="214" y="686"/>
      <point x="195" y="686" type="curve" smooth="yes"/>
      <point x="180" y="686"/>
      <point x="144" y="685"/>
      <point x="124" y="685" type="curve"/>
      <point x="124" y="645" type="line"/>
      <point x="144" y="645"/>
      <point x="181" y="645"/>
      <point x="191" y="645" type="curve" smooth="yes"/>
      <point x="214" y="645"/>
      <point x="223" y="642"/>
      <point x="223" y="631" type="curve" smooth="yes"/>
      <point x="223" y="613"/>
      <point x="208" y="607"/>
      <point x="191" y="607" type="curve" smooth="yes"/>
      <point x="172" y="607"/>
      <point x="157" y="610"/>
      <point x="157" y="629" type="curve"/>
      <point x="64" y="629" type="line"/>
      <point x="66" y="584"/>
      <point x="106" y="560"/>
    </contour>
  </outline>
</glyph>
<glyph name="acute" format="2">
  <advance width="237"/>
  <unicode hex="00B4"/>
  <anchor x="88" y="552" name="_top"/>
  <outline>
    <contour>
      <point x="34" y="594" type="line"/>
      <point x="68" y="613"/>
      <point x="101" y="628"/>
      <point x="135" y="645" type="curve" smooth="yes"/>
      <point x="171" y="661"/>
      <point x="209" y="677"/>
      <point x="249" y="694" type="curve"/>
      <point x="190" y="782" type="line"/>
      <point x="156" y="759"/>
      <point x="121" y="737"/>
      <point x="87" y="716" type="curve" smooth="yes"/>
      <point x="53" y="696"/>
      <point x="19" y="678"/>
      <point x="-13" y="660" type="curve"/>
    </contour>
  </outline>
</glyph>
<glyph name="paragraph" format="2">
  <advance width="680"/>
  <unicode hex="00B6"/>
  <outline>
    <contour>
      <point x="367" y="193" type="curve"/>
      <point x="434" y="710" type="line"/>
      <point x="396" y="714"/>
      <point x="257" y="715"/>
      <point x="202" y="715" type="curve" smooth="yes"/>
      <point x="77" y="715"/>
      <point x="33" y="632"/>
      <point x="33" y="450" type="curve" smooth="yes"/>
      <point x="33" y="264"/>
      <point x="102" y="187"/>
    </contour>
    <contour>
      <point x="291" y="-113" type="curve"/>
      <point x="431" y="-100" type="line"/>
      <point x="430" y="24"/>
      <point x="431" y="183"/>
      <point x="431" y="357" type="curve" smooth="yes"/>
      <point x="431" y="532"/>
      <point x="434" y="597"/>
      <point x="434" y="710" type="curve"/>
      <point x="295" y="703" type="line"/>
      <point x="295" y="614"/>
      <point x="301" y="477"/>
      <point x="301" y="359" type="curve" smooth="yes"/>
      <point x="301" y="321"/>
      <point x="298" y="101"/>
    </contour>
    <contour>
      <point x="498" y="-113" type="curve"/>
      <point x="634" y="-100" type="line"/>
      <point x="632" y="58"/>
      <point x="630" y="183"/>
      <point x="630" y="357" type="curve" smooth="yes"/>
      <point x="630" y="532"/>
      <point x="632" y="607"/>
      <point x="633" y="710" type="curve"/>
      <point x="501" y="703" type="line"/>
      <point x="501" y="538"/>
      <point x="500" y="509"/>
      <point x="500" y="359" type="curve" smooth="yes"/>
      <point x="500" y="277"/>
      <point x="503" y="114"/>
    </contour>
  </outline>
</glyph>
<glyph name="periodcentered" format="2">
  <advance width="364"/>
  <unicode hex="00B7"/>
  <outline>
    <contour>
      <point x="234" y="235" type="line"/>
      <point x="232" y="429" type="line"/>
      <point x="96" y="420" type="line"/>
      <point x="100" y="238" type="line"/>
    </contour>
  </outline>
</glyph>
<glyph name="cedilla" format="2">
  <advance width="301"/>
  <unicode hex="00B8"/>
  <anchor x="153" y="0" name="_bottom"/>
  <outline>
    <contour>
      <point x="107" y="-172" type="curve" smooth="yes"/>
      <point x="196" y="-172"/>
      <point x="281" y="-153"/>
      <point x="281" y="-94" type="curve" smooth="yes"/>
      <point x="281" y="-48"/>
      <point x="221" y="-31"/>
      <point x="103" y="-32" type="curve"/>
      <point x="79" y="-82" type="line"/>
      <point x="157" y="-80"/>
      <point x="173" y="-85"/>
      <point x="173" y="-96" type="curve" smooth="yes"/>
      <point x="173" y="-110"/>
      <point x="145" y="-110"/>
      <point x="133" y="-110" type="curve" smooth="yes"/>
      <point x="100" y="-110"/>
      <point x="52" y="-108"/>
      <point x="43" y="-106" type="curve"/>
      <point x="24" y="-167" type="line"/>
      <point x="51" y="-169"/>
      <point x="77" y="-172"/>
    </contour>
    <contour>
      <point x="170" y="0" type="line"/>
      <point x="105" y="0" type="line"/>
      <point x="79" y="-82" type="line"/>
      <point x="143" y="-82" type="line"/>
    </contour>
  </outline>
</glyph>
<glyph name="onesuperior" format="2">
  <advance width="382"/>
  <unicode hex="00B9"/>
  <outline>
    <contour>
      <point x="180" y="567" type="curve"/>
      <point x="285" y="567" type="line"/>
      <point x="282" y="662"/>
      <point x="282" y="717"/>
      <point x="286" y="801" type="curve"/>
      <point x="226" y="801" type="line"/>
      <point x="183" y="736" type="line"/>
      <point x="185" y="671"/>
      <point x="184" y="623"/>
    </contour>
    <contour>
      <point x="81" y="686" type="line"/>
      <point x="137" y="682"/>
      <point x="217" y="690"/>
      <point x="251" y="706" type="curve"/>
      <point x="226" y="801" type="line"/>
      <point x="206" y="773"/>
      <point x="125" y="754"/>
      <point x="75" y="754" type="curve"/>
    </contour>
  </outline>
</glyph>
<glyph name="ordmasculine" format="2">
  <advance width="440"/>
  <unicode hex="00BA"/>
  <outline>
    <contour>
      <point x="218" y="469" type="curve" smooth="yes"/>
      <point x="319" y="469"/>
      <point x="357" y="528"/>
      <point x="357" y="593" type="curve" smooth="yes"/>
      <point x="357" y="655"/>
      <point x="322" y="703"/>
      <point x="223" y="703" type="curve" smooth="yes"/>
      <point x="121" y="703"/>
      <point x="83" y="642"/>
      <point x="83" y="587" type="curve" smooth="yes"/>
      <point x="83" y="525"/>
      <point x="118" y="469"/>
    </contour>
    <contour>
      <point x="218" y="533" type="curve" smooth="yes"/>
      <point x="176" y="533"/>
      <point x="166" y="558"/>
      <point x="166" y="589" type="curve" smooth="yes"/>
      <point x="166" y="616"/>
      <point x="176" y="642"/>
      <point x="222" y="642" type="curve" smooth="yes"/>
      <point x="266" y="642"/>
      <point x="274" y="616"/>
      <point x="274" y="593" type="curve" smooth="yes"/>
      <point x="274" y="555"/>
      <point x="261" y="533"/>
    </contour>
  </outline>
</glyph>
<glyph name="guillemetright" format="2">
  <advance width="953"/>
  <unicode hex="00BB"/>
  <outline>
    <contour>
      <point x="842" y="207" type="curve"/>
      <point x="844" y="313" type="line"/>
      <point x="786" y="344"/>
      <point x="727" y="376"/>
      <point x="670" y="408" type="curve" smooth="yes"/>
      <point x="616" y="437"/>
      <point x="564" y="467"/>
      <point x="518" y="494" type="curve"/>
      <point x="459" y="415" type="line"/>
      <point x="514" y="387"/>
      <point x="567" y="358"/>
      <point x="620" y="329" type="curve" smooth="yes"/>
      <point x="691" y="291"/>
      <point x="763" y="250"/>
    </contour>
    <contour>
      <point x="495" y="207" type="curve"/>
      <point x="497" y="313" type="line"/>
      <point x="439" y="344"/>
      <point x="380" y="376"/>
      <point x="323" y="408" type="curve" smooth="yes"/>
      <point x="269" y="437"/>
      <point x="217" y="467"/>
      <point x="171" y="494" type="curve"/>
      <point x="112" y="415" type="line"/>
      <point x="167" y="387"/>
      <point x="220" y="358"/>
      <point x="273" y="329" type="curve" smooth="yes"/>
      <point x="344" y="291"/>
      <point x="416" y="250"/>
    </contour>
    <contour>
      <point x="517" y="34" type="line"/>
      <point x="569" y="64"/>
      <point x="621" y="93"/>
      <point x="676" y="122" type="curve" smooth="yes"/>
      <point x="728" y="150"/>
      <point x="783" y="178"/>
      <point x="842" y="207" type="curve"/>
      <point x="844" y="313" type="line"/>
      <point x="768" y="274"/>
      <point x="704" y="241"/>
      <point x="641" y="209" type="curve" smooth="yes"/>
      <point x="582" y="180"/>
      <point x="524" y="151"/>
      <point x="457" y="119" type="curve"/>
    </contour>
    <contour>
      <point x="170" y="34" type="line"/>
      <point x="222" y="64"/>
      <point x="274" y="93"/>
      <point x="329" y="122" type="curve" smooth="yes"/>
      <point x="381" y="150"/>
      <point x="436" y="178"/>
      <point x="495" y="207" type="curve"/>
      <point x="497" y="313" type="line"/>
      <point x="421" y="274"/>
      <point x="357" y="241"/>
      <point x="294" y="209" type="curve" smooth="yes"/>
      <point x="235" y="180"/>
      <point x="177" y="151"/>
      <point x="110" y="119" type="curve"/>
    </contour>
  </outline>
</glyph>
<glyph name="onequarter" format="2">
  <advance width="890"/>
  <unicode hex="00BC"/>
  <outline>
    <contour>
      <point x="111" y="7" type="curve"/>
      <point x="266" y="-7" type="line"/>
      <point x="348" y="106"/>
      <point x="428" y="221"/>
      <point x="513" y="332" type="curve" smooth="yes"/>
      <point x="604" y="451"/>
      <point x="695" y="569"/>
      <point x="786" y="688" type="curve"/>
      <point x="631" y="704" type="line"/>
      <point x="547" y="585"/>
      <point x="467" y="466"/>
      <point x="379" y="347" type="curve" smooth="yes"/>
      <point x="293" y="231"/>
      <point x="200" y="120"/>
    </contour>
    <contour>
      <point x="180" y="463" type="curve"/>
      <point x="285" y="463" type="line"/>
      <point x="282" y="558"/>
      <point x="282" y="613"/>
      <point x="286" y="697" type="curve"/>
      <point x="226" y="697" type="line"/>
      <point x="206" y="669"/>
      <point x="125" y="650"/>
      <point x="75" y="650" type="curve"/>
      <point x="81" y="582" type="line"/>
      <point x="112" y="580"/>
      <point x="150" y="581"/>
      <point x="184" y="586" type="curve"/>
      <point x="184" y="542"/>
      <point x="183" y="505"/>
    </contour>
    <contour>
      <point x="675" y="-1" type="line"/>
      <point x="751" y="0" type="line"/>
      <point x="751" y="40" type="line"/>
      <point x="793" y="40" type="line"/>
      <point x="793" y="100" type="line"/>
      <point x="750" y="99" type="line"/>
      <point x="750" y="127" type="line" smooth="yes"/>
      <point x="750" y="169"/>
      <point x="751" y="214"/>
      <point x="751" y="235" type="curve"/>
      <point x="629" y="236" type="line"/>
      <point x="614" y="211"/>
      <point x="599" y="188"/>
      <point x="577" y="157" type="curve" smooth="yes"/>
      <point x="535" y="98" type="line"/>
      <point x="540" y="39" type="line"/>
      <point x="675" y="40" type="line"/>
    </contour>
    <contour>
      <point x="613" y="97" type="line"/>
      <point x="676" y="182" type="line"/>
      <point x="676" y="97" type="line"/>
    </contour>
  </outline>
</glyph>
<glyph name="onehalf" format="2">
  <advance width="890"/>
  <unicode hex="00BD"/>
  <outline>
    <contour>
      <point x="111" y="7" type="curve"/>
      <point x="266" y="-7" type="line"/>
      <point x="348" y="106"/>
      <point x="428" y="221"/>
      <point x="513" y="332" type="curve" smooth="yes"/>
      <point x="604" y="451"/>
      <point x="695" y="569"/>
      <point x="786" y="688" type="curve"/>
      <point x="631" y="704" type="line"/>
      <point x="547" y="585"/>
      <point x="467" y="466"/>
      <point x="379" y="347" type="curve" smooth="yes"/>
      <point x="293" y="231"/>
      <point x="200" y="120"/>
    </contour>
    <contour>
      <point x="542" y="0" type="line"/>
      <point x="590" y="0"/>
      <point x="623" y="-1"/>
      <point x="665" y="-1" type="curve"/>
      <point x="794" y="-2" type="line"/>
      <point x="793" y="58" type="line"/>
      <point x="783" y="57"/>
      <point x="745" y="56"/>
      <point x="706" y="56" type="curve"/>
      <point x="753" y="77"/>
      <point x="790" y="111"/>
      <point x="790" y="163" type="curve" smooth="yes"/>
      <point x="790" y="207"/>
      <point x="759" y="249"/>
      <point x="665" y="249" type="curve" smooth="yes"/>
      <point x="583" y="249"/>
      <point x="541" y="207"/>
      <point x="541" y="150" type="curve" smooth="yes"/>
      <point x="541" y="140"/>
      <point x="542" y="131"/>
      <point x="544" y="121" type="curve"/>
      <point x="638" y="124" type="line"/>
      <point x="635" y="135"/>
      <point x="633" y="145"/>
      <point x="633" y="153" type="curve" smooth="yes"/>
      <point x="633" y="174"/>
      <point x="643" y="187"/>
      <point x="664" y="187" type="curve" smooth="yes"/>
      <point x="687" y="187"/>
      <point x="695" y="175"/>
      <point x="695" y="154" type="curve" smooth="yes"/>
      <point x="695" y="102"/>
      <point x="639" y="79"/>
      <point x="543" y="56" type="curve"/>
    </contour>
    <contour>
      <point x="180" y="463" type="curve"/>
      <point x="285" y="463" type="line"/>
      <point x="282" y="558"/>
      <point x="282" y="613"/>
      <point x="286" y="697" type="curve"/>
      <point x="226" y="697" type="line"/>
      <point x="206" y="669"/>
      <point x="125" y="650"/>
      <point x="75" y="650" type="curve"/>
      <point x="81" y="582" type="line"/>
      <point x="112" y="580"/>
      <point x="150" y="581"/>
      <point x="184" y="586" type="curve"/>
      <point x="184" y="542"/>
      <point x="183" y="505"/>
    </contour>
  </outline>
</glyph>
<glyph name="threequarters" format="2">
  <advance width="890"/>
  <unicode hex="00BE"/>
  <outline>
    <contour>
      <point x="111" y="7" type="curve"/>
      <point x="266" y="-7" type="line"/>
      <point x="348" y="106"/>
      <point x="428" y="221"/>
      <point x="513" y="332" type="curve" smooth="yes"/>
      <point x="604" y="451"/>
      <point x="695" y="569"/>
      <point x="786" y="688" type="curve"/>
      <point x="631" y="704" type="line"/>
      <point x="547" y="585"/>
      <point x="467" y="466"/>
      <point x="379" y="347" type="curve" smooth="yes"/>
      <point x="293" y="231"/>
      <point x="200" y="120"/>
    </contour>
    <contour>
      <point x="195" y="457" type="curve" smooth="yes"/>
      <point x="270" y="457"/>
      <point x="325" y="474"/>
      <point x="325" y="523" type="curve" smooth="yes"/>
      <point x="325" y="549"/>
      <point x="304" y="563"/>
      <point x="273" y="565" type="curve"/>
      <point x="302" y="576"/>
      <point x="329" y="595"/>
      <point x="329" y="630" type="curve" smooth="yes"/>
      <point x="329" y="673"/>
      <point x="285" y="703"/>
      <point x="205" y="703" type="curve" smooth="yes"/>
      <point x="127" y="703"/>
      <point x="78" y="670"/>
      <point x="78" y="626" type="curve" smooth="yes"/>
      <point x="78" y="620"/>
      <point x="79" y="613"/>
      <point x="81" y="606" type="curve"/>
      <point x="173" y="606" type="line"/>
      <point x="172" y="609"/>
      <point x="171" y="613"/>
      <point x="171" y="616" type="curve" smooth="yes"/>
      <point x="171" y="629"/>
      <point x="180" y="640"/>
      <point x="205" y="640" type="curve" smooth="yes"/>
      <point x="233" y="640"/>
      <point x="240" y="632"/>
      <point x="240" y="614" type="curve" smooth="yes"/>
      <point x="240" y="592"/>
      <point x="224" y="583"/>
      <point x="205" y="583" type="curve" smooth="yes"/>
      <point x="190" y="583"/>
      <point x="154" y="582"/>
      <point x="134" y="582" type="curve"/>
      <point x="134" y="542" type="line"/>
      <point x="154" y="542"/>
      <point x="191" y="542"/>
      <point x="201" y="542" type="curve" smooth="yes"/>
      <point x="224" y="542"/>
      <point x="233" y="539"/>
      <point x="233" y="528" type="curve" smooth="yes"/>
      <point x="233" y="510"/>
      <point x="218" y="504"/>
      <point x="201" y="504" type="curve" smooth="yes"/>
      <point x="182" y="504"/>
      <point x="167" y="507"/>
      <point x="167" y="526" type="curve"/>
      <point x="74" y="526" type="line"/>
      <point x="76" y="481"/>
      <point x="116" y="457"/>
    </contour>
    <contour>
      <point x="675" y="-1" type="line"/>
      <point x="751" y="0" type="line"/>
      <point x="751" y="40" type="line"/>
      <point x="793" y="40" type="line"/>
      <point x="793" y="100" type="line"/>
      <point x="750" y="99" type="line"/>
      <point x="750" y="127" type="line" smooth="yes"/>
      <point x="750" y="169"/>
      <point x="751" y="214"/>
      <point x="751" y="235" type="curve"/>
      <point x="629" y="236" type="line"/>
      <point x="614" y="211"/>
      <point x="599" y="188"/>
      <point x="577" y="157" type="curve" smooth="yes"/>
      <point x="535" y="98" type="line"/>
      <point x="540" y="39" type="line"/>
      <point x="675" y="40" type="line"/>
    </contour>
    <contour>
      <point x="613" y="97" type="line"/>
      <point x="676" y="182" type="line"/>
      <point x="676" y="97" type="line"/>
    </contour>
  </outline>
</glyph>
<glyph name="questiondown" format="2">
  <advance width="696"/>
  <unicode hex="00BF"/>
  <outline>
    <contour>
      <point x="274" y="340" type="line"/>
      <point x="282" y="305"/>
      <point x="285" y="283"/>
      <point x="285" y="267" type="curve" smooth="yes"/>
      <point x="285" y="235"/>
      <point x="240" y="214"/>
      <point x="192" y="185" type="curve" smooth="yes"/>
      <point x="137" y="152"/>
      <point x="78" y="107"/>
      <point x="78" y="22" type="curve" smooth="yes"/>
      <point x="78" y="-92"/>
      <point x="169" y="-163"/>
      <point x="340" y="-163" type="curve" smooth="yes"/>
      <point x="533" y="-163"/>
      <point x="618" y="-63"/>
      <point x="618" y="41" type="curve" smooth="yes"/>
      <point x="618" y="66"/>
      <point x="613" y="92"/>
      <point x="603" y="117" type="curve"/>
      <point x="435" y="118" type="line"/>
      <point x="443" y="99"/>
      <point x="448" y="78"/>
      <point x="448" y="56" type="curve" smooth="yes"/>
      <point x="448" y="0"/>
      <point x="414" y="-27"/>
      <point x="346" y="-27" type="curve" smooth="yes"/>
      <point x="294" y="-27"/>
      <point x="245" y="-11"/>
      <point x="245" y="35" type="curve" smooth="yes"/>
      <point x="245" y="72"/>
      <point x="271" y="96"/>
      <point x="303" y="117" type="curve" smooth="yes"/>
      <point x="359" y="154"/>
      <point x="435" y="185"/>
      <point x="435" y="268" type="curve" smooth="yes"/>
      <point x="435" y="287"/>
      <point x="432" y="307"/>
      <point x="425" y="339" type="curve"/>
    </contour>
    <contour>
      <point x="419" y="553" type="line"/>
      <point x="274" y="556" type="line"/>
      <point x="286" y="386" type="line"/>
      <point x="418" y="388" type="line"/>
    </contour>
  </outline>
</glyph>
<glyph name="AE" format="2">
  <advance width="786"/>
  <unicode hex="00C6"/>
  <anchor x="477" y="693" name="top"/>
  <outline>
    <contour>
      <point x="-41" y="7" type="curve"/>
      <point x="145" y="6" type="line"/>
      <point x="159" y="39"/>
      <point x="173" y="73"/>
      <point x="187" y="106" type="curve"/>
      <point x="340" y="110" type="line"/>
      <point x="338" y="-1" type="line"/>
      <point x="752" y="0" type="line"/>
      <point x="751" y="126" type="line"/>
      <point x="520" y="129" type="line"/>
      <point x="520" y="213" type="line"/>
      <point x="747" y="216" type="line"/>
      <point x="749" y="354" type="line"/>
      <point x="519" y="357" type="line"/>
      <point x="519" y="402" type="line" smooth="yes"/>
      <point x="519" y="452"/>
      <point x="520" y="510"/>
      <point x="521" y="560" type="curve"/>
      <point x="740" y="561" type="line"/>
      <point x="740" y="693" type="line"/>
      <point x="250" y="704" type="line"/>
      <point x="212" y="609"/>
      <point x="155" y="472"/>
      <point x="103" y="346" type="curve" smooth="yes"/>
      <point x="48" y="212"/>
      <point x="-7" y="83"/>
    </contour>
    <contour>
      <point x="341" y="244" type="line"/>
      <point x="238" y="245" type="line"/>
      <point x="251" y="278"/>
      <point x="264" y="312"/>
      <point x="277" y="345" type="curve" smooth="yes"/>
      <point x="302" y="408"/>
      <point x="314" y="443"/>
      <point x="339" y="506" type="curve"/>
      <point x="341" y="447"/>
      <point x="343" y="408"/>
      <point x="342" y="342" type="curve" smooth="yes"/>
    </contour>
  </outline>
</glyph>
<glyph name="Eth" format="2">
  <advance width="571"/>
  <unicode hex="00D0"/>
  <outline>
    <contour>
      <point x="-18" y="291" type="line"/>
      <point x="2" y="292"/>
      <point x="69" y="293"/>
      <point x="176" y="293" type="curve"/>
      <point x="220" y="293"/>
      <point x="286" y="292"/>
      <point x="324" y="291" type="curve"/>
      <point x="322" y="405" type="line"/>
      <point x="291" y="403"/>
      <point x="231" y="401"/>
      <point x="182" y="402" type="curve"/>
      <point x="113" y="403"/>
      <point x="29" y="404"/>
      <point x="-15" y="405" type="curve"/>
    </contour>
    <component base="D"/>
  </outline>
</glyph>
<glyph name="multiply" format="2">
  <advance width="638"/>
  <unicode hex="00D7"/>
  <outline>
    <contour>
      <point x="545" y="170" type="line"/>
      <point x="481" y="223"/>
      <point x="382" y="307"/>
      <point x="329" y="360" type="curve" smooth="yes"/>
      <point x="275" y="415"/>
      <point x="172" y="518"/>
      <point x="128" y="570" type="curve"/>
      <point x="47" y="478" type="line"/>
      <point x="100" y="430"/>
      <point x="204" y="339"/>
      <point x="257" y="287" type="curve" smooth="yes"/>
      <point x="308" y="238"/>
      <point x="404" y="143"/>
      <point x="463" y="78" type="curve"/>
    </contour>
    <contour>
      <point x="125" y="56" type="line"/>
      <point x="156" y="92"/>
      <point x="299" y="243"/>
      <point x="348" y="291" type="curve" smooth="yes"/>
      <point x="395" y="339"/>
      <point x="554" y="494"/>
      <point x="552" y="493" type="curve"/>
      <point x="472" y="569" type="line"/>
      <point x="431" y="523"/>
      <point x="320" y="408"/>
      <point x="275" y="362" type="curve" smooth="yes"/>
      <point x="232" y="316"/>
      <point x="68" y="158"/>
      <point x="43" y="135" type="curve"/>
    </contour>
  </outline>
</glyph>
<glyph name="Oslash" format="2">
  <advance width="557"/>
  <unicode hex="00D8"/>
  <anchor x="279" y="0" name="bottom"/>
  <anchor x="279" y="693" name="top"/>
  <outline>
    <contour>
      <point x="272" y="-5" type="curve"/>
      <point x="372" y="-5"/>
      <point x="437" y="36"/>
      <point x="477" y="102" type="curve" smooth="yes"/>
      <point x="516" y="166"/>
      <point x="530" y="256"/>
      <point x="530" y="356" type="curve" smooth="yes"/>
      <point x="530" y="429"/>
      <point x="523" y="494"/>
      <point x="506" y="548" type="curve" smooth="yes"/>
      <point x="475" y="645"/>
      <point x="409" y="706"/>
      <point x="284" y="706" type="curve" smooth="yes"/>
      <point x="165" y="706"/>
      <point x="94" y="647"/>
      <point x="58" y="553" type="curve" smooth="yes"/>
      <point x="37" y="498"/>
      <point x="27" y="431"/>
      <point x="27" y="357" type="curve" smooth="yes"/>
      <point x="27" y="265"/>
      <point x="36" y="183"/>
      <point x="64" y="121" type="curve" smooth="yes"/>
      <point x="99" y="43"/>
      <point x="162" y="-5"/>
    </contour>
    <contour>
      <point x="280" y="141" type="curve"/>
      <point x="248" y="141"/>
      <point x="230" y="162"/>
      <point x="220" y="205" type="curve" smooth="yes"/>
      <point x="212" y="238"/>
      <point x="210" y="286"/>
      <point x="210" y="346" type="curve" smooth="yes"/>
      <point x="210" y="407"/>
      <point x="212" y="456"/>
      <point x="220" y="493" type="curve" smooth="yes"/>
      <point x="229" y="537"/>
      <point x="248" y="561"/>
      <point x="281" y="561" type="curve" smooth="yes"/>
      <point x="313" y="561"/>
      <point x="331" y="536"/>
      <point x="340" y="487" type="curve" smooth="yes"/>
      <point x="346" y="455"/>
      <point x="348" y="412"/>
      <point x="348" y="359" type="curve" smooth="yes"/>
      <point x="348" y="296"/>
      <point x="344" y="240"/>
      <point x="334" y="201" type="curve" smooth="yes"/>
      <point x="324" y="163"/>
      <point x="306" y="141"/>
    </contour>
    <contour>
      <point x="179" y="-72" type="line"/>
      <point x="179" y="-72"/>
      <point x="274" y="195"/>
      <point x="321" y="317" type="curve" smooth="yes"/>
      <point x="368" y="440"/>
      <point x="504" y="738"/>
      <point x="504" y="738" type="curve"/>
      <point x="401" y="772" type="line"/>
      <point x="401" y="772"/>
      <point x="317" y="531"/>
      <point x="246" y="352" type="curve" smooth="yes"/>
      <point x="175" y="173"/>
      <point x="77" y="-41"/>
      <point x="77" y="-41" type="curve"/>
    </contour>
  </outline>
</glyph>
<glyph name="Thorn" format="2">
  <advance width="519"/>
  <unicode hex="00DE"/>
  <outline>
    <contour>
      <point x="145" y="116" type="line"/>
      <point x="362" y="116"/>
      <point x="517" y="161"/>
      <point x="517" y="371" type="curve" smooth="yes"/>
      <point x="517" y="535"/>
      <point x="413" y="588"/>
      <point x="225" y="588" type="curve" smooth="yes"/>
      <point x="180" y="588"/>
      <point x="115" y="586"/>
      <point x="62" y="582" type="curve"/>
      <point x="113" y="440" type="line"/>
      <point x="160" y="446"/>
      <point x="209" y="450"/>
      <point x="247" y="450" type="curve" smooth="yes"/>
      <point x="311" y="450"/>
      <point x="334" y="424"/>
      <point x="334" y="368" type="curve" smooth="yes"/>
      <point x="334" y="256"/>
      <point x="290" y="247"/>
      <point x="145" y="256" type="curve"/>
    </contour>
    <contour>
      <point x="32" y="-5" type="curve"/>
      <point x="219" y="5" type="line"/>
      <point x="218" y="113"/>
      <point x="216" y="283"/>
      <point x="216" y="354" type="curve"/>
      <point x="214" y="430"/>
      <point x="213" y="635"/>
      <point x="218" y="702" type="curve"/>
      <point x="28" y="712" type="line"/>
      <point x="31" y="631"/>
      <point x="36" y="477"/>
      <point x="36" y="352" type="curve"/>
      <point x="36" y="228"/>
      <point x="34" y="75"/>
    </contour>
  </outline>
</glyph>
<glyph name="germandbls" format="2">
  <advance width="607"/>
  <unicode hex="00DF"/>
  <outline>
    <contour>
      <point x="29" y="-2" type="curve"/>
      <point x="213" y="1" type="line"/>
      <point x="210" y="36"/>
      <point x="206" y="123"/>
      <point x="206" y="271" type="curve" smooth="yes"/>
      <point x="206" y="373"/>
      <point x="208" y="435"/>
      <point x="208" y="473" type="curve" smooth="yes"/>
      <point x="208" y="555"/>
      <point x="263" y="576"/>
      <point x="305" y="576" type="curve" smooth="yes"/>
      <point x="361" y="576"/>
      <point x="386" y="558"/>
      <point x="386" y="521" type="curve" smooth="yes"/>
      <point x="386" y="459"/>
      <point x="245" y="428"/>
      <point x="245" y="338" type="curve" smooth="yes"/>
      <point x="245" y="278"/>
      <point x="303" y="245"/>
      <point x="355" y="215" type="curve" smooth="yes"/>
      <point x="396" y="191"/>
      <point x="433" y="169"/>
      <point x="433" y="139" type="curve" smooth="yes"/>
      <point x="433" y="108"/>
      <point x="395" y="75"/>
      <point x="261" y="105" type="curve"/>
      <point x="253" y="-1" type="line"/>
      <point x="504" y="-35"/>
      <point x="604" y="44"/>
      <point x="604" y="151" type="curve" smooth="yes"/>
      <point x="604" y="229"/>
      <point x="532" y="267"/>
      <point x="477" y="296" type="curve" smooth="yes"/>
      <point x="443" y="313"/>
      <point x="415" y="328"/>
      <point x="415" y="346" type="curve" smooth="yes"/>
      <point x="415" y="387"/>
      <point x="555" y="421"/>
      <point x="555" y="541" type="curve" smooth="yes"/>
      <point x="555" y="638"/>
      <point x="470" y="701"/>
      <point x="325" y="701" type="curve" smooth="yes"/>
      <point x="133" y="701"/>
      <point x="46" y="616"/>
      <point x="40" y="468" type="curve" smooth="yes"/>
      <point x="39" y="442"/>
      <point x="38" y="329"/>
      <point x="38" y="270" type="curve" smooth="yes"/>
      <point x="38" y="119"/>
      <point x="31" y="22"/>
    </contour>
  </outline>
</glyph>
<glyph name="ae" format="2">
  <advance width="803"/>
  <unicode hex="00E6"/>
  <anchor x="416" y="515" name="top"/>
  <outline>
    <contour>
      <point x="176" y="-9" type="curve" smooth="yes"/>
      <point x="276" y="-9"/>
      <point x="338" y="30"/>
      <point x="376" y="87" type="curve"/>
      <point x="404" y="24"/>
      <point x="459" y="-12"/>
      <point x="557" y="-12" type="curve" smooth="yes"/>
      <point x="662" y="-12"/>
      <point x="758" y="40"/>
      <point x="758" y="132" type="curve" smooth="yes"/>
      <point x="758" y="141"/>
      <point x="756" y="152"/>
      <point x="754" y="162" type="curve"/>
      <point x="585" y="162" type="line"/>
      <point x="587" y="154"/>
      <point x="588" y="148"/>
      <point x="588" y="143" type="curve" smooth="yes"/>
      <point x="588" y="117"/>
      <point x="567" y="112"/>
      <point x="542" y="112" type="curve" smooth="yes"/>
      <point x="515" y="112"/>
      <point x="499" y="127"/>
      <point x="491" y="155" type="curve" smooth="yes"/>
      <point x="487" y="169"/>
      <point x="484" y="186"/>
      <point x="483" y="207" type="curve"/>
      <point x="574" y="209"/>
      <point x="688" y="210"/>
      <point x="749" y="210" type="curve"/>
      <point x="753" y="241"/>
      <point x="755" y="270"/>
      <point x="755" y="298" type="curve" smooth="yes"/>
      <point x="755" y="435"/>
      <point x="708" y="524"/>
      <point x="568" y="524" type="curve" smooth="yes"/>
      <point x="496" y="524"/>
      <point x="445" y="504"/>
      <point x="410" y="467" type="curve"/>
      <point x="386" y="501"/>
      <point x="339" y="525"/>
      <point x="250" y="525" type="curve" smooth="yes"/>
      <point x="155" y="525"/>
      <point x="59" y="473"/>
      <point x="59" y="373" type="curve" smooth="yes"/>
      <point x="59" y="358"/>
      <point x="61" y="343"/>
      <point x="65" y="326" type="curve"/>
      <point x="228" y="333" type="line"/>
      <point x="224" y="344"/>
      <point x="222" y="353"/>
      <point x="222" y="362" type="curve" smooth="yes"/>
      <point x="222" y="384"/>
      <point x="236" y="399"/>
      <point x="268" y="399" type="curve" smooth="yes"/>
      <point x="300" y="399"/>
      <point x="314" y="382"/>
      <point x="314" y="357" type="curve" smooth="yes"/>
      <point x="314" y="336"/>
      <point x="292" y="309"/>
      <point x="232" y="293" type="curve" smooth="yes"/>
      <point x="137" y="268"/>
      <point x="38" y="243"/>
      <point x="38" y="122" type="curve" smooth="yes"/>
      <point x="38" y="41"/>
      <point x="88" y="-9"/>
    </contour>
    <contour>
      <point x="236" y="115" type="curve" smooth="yes"/>
      <point x="214" y="115"/>
      <point x="201" y="130"/>
      <point x="201" y="149" type="curve" smooth="yes"/>
      <point x="201" y="172"/>
      <point x="214" y="184"/>
      <point x="264" y="201" type="curve" smooth="yes"/>
      <point x="282" y="207"/>
      <point x="299" y="213"/>
      <point x="313" y="220" type="curve"/>
      <point x="313" y="216"/>
      <point x="313" y="211"/>
      <point x="313" y="207" type="curve" smooth="yes"/>
      <point x="313" y="141"/>
      <point x="271" y="115"/>
    </contour>
    <contour>
      <point x="483" y="323" type="line"/>
      <point x="485" y="345"/>
      <point x="489" y="364"/>
      <point x="497" y="379" type="curve" smooth="yes"/>
      <point x="506" y="396"/>
      <point x="519" y="406"/>
      <point x="538" y="406" type="curve" smooth="yes"/>
      <point x="577" y="406"/>
      <point x="587" y="385"/>
      <point x="587" y="342" type="curve" smooth="yes"/>
      <point x="587" y="336"/>
      <point x="586" y="329"/>
      <point x="586" y="323" type="curve"/>
    </contour>
  </outline>
</glyph>
<glyph name="eth" format="2">
  <advance width="531"/>
  <unicode hex="00F0"/>
  <outline>
    <contour>
      <point x="254" y="-10" type="curve" smooth="yes"/>
      <point x="482" y="-10"/>
      <point x="492" y="163"/>
      <point x="492" y="312" type="curve" smooth="yes"/>
      <point x="492" y="590"/>
      <point x="325" y="707"/>
      <point x="168" y="733" type="curve"/>
      <point x="128" y="616" type="line"/>
      <point x="261" y="593"/>
      <point x="320" y="506"/>
      <point x="320" y="371" type="curve" smooth="yes"/>
      <point x="320" y="266"/>
      <point x="320" y="235"/>
      <point x="320" y="222" type="curve" smooth="yes"/>
      <point x="320" y="134"/>
      <point x="296" y="110"/>
      <point x="267" y="110" type="curve" smooth="yes"/>
      <point x="242" y="110"/>
      <point x="215" y="116"/>
      <point x="215" y="211" type="curve" smooth="yes"/>
      <point x="215" y="310"/>
      <point x="251" y="313"/>
      <point x="272" y="313" type="curve" smooth="yes"/>
      <point x="297" y="313"/>
      <point x="320" y="304"/>
      <point x="320" y="222" type="curve"/>
      <point x="359" y="290" type="line"/>
      <point x="361" y="387"/>
      <point x="309" y="437"/>
      <point x="233" y="437" type="curve" smooth="yes"/>
      <point x="125" y="437"/>
      <point x="45" y="347"/>
      <point x="45" y="207" type="curve" smooth="yes"/>
      <point x="45" y="89"/>
      <point x="99" y="-10"/>
    </contour>
    <contour>
      <point x="202" y="465" type="line"/>
      <point x="247" y="491"/>
      <point x="300" y="520"/>
      <point x="353" y="549" type="curve" smooth="yes"/>
      <point x="401" y="575"/>
      <point x="449" y="601"/>
      <point x="489" y="622" type="curve"/>
      <point x="441" y="702" type="line"/>
      <point x="393" y="673"/>
      <point x="338" y="642"/>
      <point x="287" y="614" type="curve" smooth="yes"/>
      <point x="237" y="587"/>
      <point x="190" y="562"/>
      <point x="153" y="544" type="curve"/>
    </contour>
  </outline>
</glyph>
<glyph name="Hbar" format="2">
  <advance width="623"/>
  <unicode hex="0126"/>
  <anchor x="311" y="459" name="_center"/>
  <outline>
    <contour>
      <point x="26" y="404" type="line"/>
      <point x="26" y="404"/>
      <point x="140" y="406"/>
      <point x="320" y="406" type="curve"/>
      <point x="380" y="406"/>
      <point x="622" y="404"/>
      <point x="622" y="404" type="curve"/>
      <point x="620" y="510" type="line"/>
      <point x="620" y="510"/>
      <point x="393" y="506"/>
      <point x="326" y="507" type="curve"/>
      <point x="232" y="508"/>
      <point x="29" y="510"/>
      <point x="29" y="510" type="curve"/>
    </contour>
    <component base="H"/>
  </outline>
</glyph>
<glyph name="kgreenlandic" format="2">
  <advance width="482"/>
  <unicode hex="0138"/>
  <outline>
    <contour>
      <point x="319" y="0" type="curve"/>
      <point x="529" y="3" type="line"/>
      <point x="452" y="103"/>
      <point x="388" y="189"/>
      <point x="328" y="278" type="curve"/>
      <point x="392" y="374"/>
      <point x="440" y="438"/>
      <point x="500" y="519" type="curve"/>
      <point x="306" y="521" type="line"/>
      <point x="262" y="445"/>
      <point x="225" y="386"/>
      <point x="140" y="268" type="curve"/>
      <point x="206" y="176"/>
      <point x="267" y="88"/>
    </contour>
    <contour>
      <point x="43" y="1" type="curve"/>
      <point x="217" y="1" type="line"/>
      <point x="216" y="52"/>
      <point x="215" y="159"/>
      <point x="215" y="264" type="curve"/>
      <point x="215" y="368"/>
      <point x="215" y="474"/>
      <point x="215" y="525" type="curve"/>
      <point x="48" y="515" type="line"/>
      <point x="48" y="471"/>
      <point x="49" y="373"/>
      <point x="49" y="266" type="curve"/>
      <point x="49" y="159"/>
      <point x="46" y="52"/>
    </contour>
  </outline>
</glyph>
<glyph name="lcaron" format="2">
  <advance width="290"/>
  <unicode hex="013E"/>
  <outline>
    <contour>
      <point x="39" y="0" type="curve"/>
      <point x="213" y="11" type="line"/>
      <point x="212" y="58"/>
      <point x="211" y="160"/>
      <point x="211" y="264" type="curve" smooth="yes"/>
      <point x="211" y="396"/>
      <point x="213" y="547"/>
      <point x="214" y="691" type="curve"/>
      <point x="42" y="692" type="line"/>
      <point x="44" y="599"/>
      <point x="47" y="403"/>
      <point x="47" y="266" type="curve" smooth="yes"/>
      <point x="47" y="117"/>
      <point x="44" y="73"/>
    </contour>
    <contour>
      <point x="286" y="443" type="line"/>
      <point x="339" y="483"/>
      <point x="351" y="529"/>
      <point x="351" y="584" type="curve" smooth="yes"/>
      <point x="351" y="622"/>
      <point x="351" y="660"/>
      <point x="351" y="698" type="curve"/>
      <point x="235" y="691" type="line"/>
      <point x="238" y="579" type="line"/>
      <point x="296" y="577" type="line"/>
      <point x="295" y="545"/>
      <point x="289" y="506"/>
      <point x="247" y="474" type="curve"/>
    </contour>
  </outline>
</glyph>
<glyph name="ldot" format="2">
  <advance width="296"/>
  <unicode hex="0140"/>
  <outline>
    <contour>
      <point x="39" y="0" type="curve"/>
      <point x="213" y="11" type="line"/>
      <point x="212" y="58"/>
      <point x="211" y="160"/>
      <point x="211" y="264" type="curve" smooth="yes"/>
      <point x="211" y="396"/>
      <point x="213" y="547"/>
      <point x="214" y="691" type="curve"/>
      <point x="42" y="692" type="line"/>
      <point x="44" y="599"/>
      <point x="47" y="403"/>
      <point x="47" y="266" type="curve" smooth="yes"/>
      <point x="47" y="117"/>
      <point x="44" y="73"/>
    </contour>
    <contour>
      <point x="323" y="292" type="line"/>
      <point x="322" y="421" type="line"/>
      <point x="232" y="415" type="line"/>
      <point x="237" y="294" type="line"/>
    </contour>
  </outline>
</glyph>
<glyph name="napostrophe" format="2">
  <advance width="562"/>
  <unicode hex="0149"/>
  <outline>
    <contour>
      <point x="92" y="546" type="line"/>
      <point x="122" y="569"/>
      <point x="145" y="637"/>
      <point x="145" y="694" type="curve"/>
      <point x="145" y="735"/>
      <point x="144" y="798"/>
      <point x="143" y="824" type="curve"/>
      <point x="24" y="817" type="line"/>
      <point x="31" y="703" type="line"/>
      <point x="91" y="702" type="line"/>
      <point x="92" y="656"/>
      <point x="78" y="602"/>
      <point x="51" y="570" type="curve"/>
    </contour>
    <component base="n"/>
  </outline>
</glyph>
<glyph name="Eng" format="2">
  <advance width="625"/>
  <unicode hex="014A"/>
  <outline>
    <contour>
      <point x="263" y="-167" type="line"/>
      <point x="414" y="-187"/>
      <point x="558" y="-144"/>
      <point x="562" y="53" type="curve" smooth="yes"/>
      <point x="564" y="152"/>
      <point x="565" y="203"/>
      <point x="565" y="246" type="curve" smooth="yes"/>
      <point x="565" y="375"/>
      <point x="568" y="668"/>
      <point x="570" y="715" type="curve"/>
      <point x="393" y="715" type="line"/>
      <point x="393" y="697"/>
      <point x="395" y="622"/>
      <point x="397" y="545" type="curve" smooth="yes"/>
      <point x="399" y="465"/>
      <point x="400" y="373"/>
      <point x="400" y="346" type="curve"/>
      <point x="377" y="392"/>
      <point x="350" y="448"/>
      <point x="323" y="505" type="curve" smooth="yes"/>
      <point x="290" y="575"/>
      <point x="256" y="647"/>
      <point x="230" y="704" type="curve"/>
      <point x="54" y="704" type="line"/>
      <point x="57" y="611"/>
      <point x="59" y="422"/>
      <point x="59" y="250" type="curve" smooth="yes"/>
      <point x="59" y="156"/>
      <point x="58" y="67"/>
      <point x="57" y="1" type="curve"/>
      <point x="231" y="0" type="line"/>
      <point x="230" y="16"/>
      <point x="230" y="83"/>
      <point x="229" y="154" type="curve" smooth="yes"/>
      <point x="228" y="221"/>
      <point x="228" y="293"/>
      <point x="228" y="330" type="curve"/>
      <point x="245" y="302"/>
      <point x="279" y="240"/>
      <point x="313" y="177" type="curve" smooth="yes"/>
      <point x="350" y="109"/>
      <point x="385" y="40"/>
      <point x="400" y="9" type="curve"/>
      <point x="400" y="-49"/>
      <point x="363" y="-67"/>
      <point x="261" y="-45" type="curve"/>
    </contour>
  </outline>
</glyph>
<glyph name="eng" format="2">
  <advance width="562"/>
  <unicode hex="014B"/>
  <outline>
    <contour>
      <point x="258" y="-167" type="line"/>
      <point x="409" y="-187"/>
      <point x="512" y="-144"/>
      <point x="512" y="53" type="curve" smooth="yes"/>
      <point x="512" y="122"/>
      <point x="511" y="160"/>
      <point x="510" y="223" type="curve"/>
      <point x="510" y="332" type="line" smooth="yes"/>
      <point x="510" y="462"/>
      <point x="445" y="521"/>
      <point x="355" y="521" type="curve" smooth="yes"/>
      <point x="299" y="521"/>
      <point x="254" y="496"/>
      <point x="223" y="452" type="curve"/>
      <point x="222" y="475"/>
      <point x="222" y="499"/>
      <point x="221" y="522" type="curve"/>
      <point x="58" y="515" type="line"/>
      <point x="59" y="465"/>
      <point x="60" y="375"/>
      <point x="60" y="246" type="curve" smooth="yes"/>
      <point x="60" y="119"/>
      <point x="58" y="76"/>
      <point x="54" y="1" type="curve"/>
      <point x="233" y="1" type="line"/>
      <point x="232" y="82"/>
      <point x="229" y="131"/>
      <point x="229" y="246" type="curve" smooth="yes"/>
      <point x="229" y="346"/>
      <point x="253" y="393"/>
      <point x="298" y="393" type="curve" smooth="yes"/>
      <point x="326" y="393"/>
      <point x="341" y="373"/>
      <point x="341" y="327" type="curve" smooth="yes"/>
      <point x="342" y="222" type="line" smooth="yes"/>
      <point x="342" y="161"/>
      <point x="342" y="105"/>
      <point x="342" y="67" type="curve" smooth="yes"/>
      <point x="342" y="-5"/>
      <point x="345" y="-58"/>
      <point x="256" y="-45" type="curve"/>
    </contour>
  </outline>
</glyph>
<glyph name="OE" format="2">
  <advance width="818"/>
  <unicode hex="0152"/>
  <outline>
    <contour>
      <point x="278" y="-5" type="curve" smooth="yes"/>
      <point x="359" y="-5"/>
      <point x="407" y="0"/>
      <point x="456" y="0" type="curve" smooth="yes"/>
      <point x="775" y="0" type="line"/>
      <point x="774" y="126" type="line"/>
      <point x="545" y="130" type="line"/>
      <point x="544" y="212" type="line"/>
      <point x="770" y="216" type="line"/>
      <point x="772" y="354" type="line"/>
      <point x="543" y="357" type="line"/>
      <point x="543" y="400" type="line" smooth="yes"/>
      <point x="543" y="471"/>
      <point x="544" y="482"/>
      <point x="545" y="560" type="curve"/>
      <point x="763" y="561" type="line"/>
      <point x="763" y="693" type="line"/>
      <point x="474" y="693" type="line" smooth="yes"/>
      <point x="417" y="693"/>
      <point x="368" y="706"/>
      <point x="290" y="706" type="curve" smooth="yes"/>
      <point x="108" y="706"/>
      <point x="33" y="565"/>
      <point x="33" y="357" type="curve" smooth="yes"/>
      <point x="33" y="143"/>
      <point x="83" y="-5"/>
    </contour>
    <contour>
      <point x="311" y="141" type="curve" smooth="yes"/>
      <point x="229" y="141"/>
      <point x="216" y="228"/>
      <point x="216" y="346" type="curve" smooth="yes"/>
      <point x="216" y="469"/>
      <point x="226" y="560"/>
      <point x="315" y="560" type="curve" smooth="yes"/>
      <point x="333" y="560"/>
      <point x="342" y="559"/>
      <point x="360" y="556" type="curve"/>
      <point x="363" y="488"/>
      <point x="365" y="436"/>
      <point x="365" y="342" type="curve" smooth="yes"/>
      <point x="365" y="255"/>
      <point x="364" y="211"/>
      <point x="363" y="147" type="curve"/>
      <point x="341" y="144"/>
      <point x="330" y="141"/>
    </contour>
  </outline>
</glyph>
<glyph name="oe" format="2">
  <advance width="846"/>
  <unicode hex="0153"/>
  <outline>
    <contour>
      <point x="279" y="-10" type="curve" smooth="yes"/>
      <point x="372" y="-10"/>
      <point x="434" y="23"/>
      <point x="472" y="83" type="curve" smooth="yes"/>
      <point x="501" y="129"/>
      <point x="514" y="190"/>
      <point x="514" y="264" type="curve" smooth="yes"/>
      <point x="514" y="325"/>
      <point x="504" y="379"/>
      <point x="483" y="422" type="curve" smooth="yes"/>
      <point x="450" y="488"/>
      <point x="390" y="528"/>
      <point x="298" y="528" type="curve" smooth="yes"/>
      <point x="218" y="528"/>
      <point x="158" y="503"/>
      <point x="117" y="457" type="curve" smooth="yes"/>
      <point x="78" y="411"/>
      <point x="58" y="346"/>
      <point x="58" y="265" type="curve" smooth="yes"/>
      <point x="58" y="193"/>
      <point x="70" y="132"/>
      <point x="96" y="86" type="curve" smooth="yes"/>
      <point x="130" y="25"/>
      <point x="189" y="-10"/>
    </contour>
    <contour>
      <point x="287" y="117" type="curve" smooth="yes"/>
      <point x="265" y="117"/>
      <point x="251" y="129"/>
      <point x="243" y="150" type="curve" smooth="yes"/>
      <point x="233" y="175"/>
      <point x="230" y="212"/>
      <point x="230" y="258" type="curve" smooth="yes"/>
      <point x="230" y="300"/>
      <point x="233" y="338"/>
      <point x="242" y="364" type="curve" smooth="yes"/>
      <point x="250" y="390"/>
      <point x="264" y="405"/>
      <point x="287" y="405" type="curve" smooth="yes"/>
      <point x="314" y="405"/>
      <point x="327" y="390"/>
      <point x="334" y="361" type="curve" smooth="yes"/>
      <point x="340" y="336"/>
      <point x="341" y="301"/>
      <point x="342" y="258" type="curve" smooth="yes"/>
      <point x="343" y="221"/>
      <point x="342" y="190"/>
      <point x="337" y="166" type="curve" smooth="yes"/>
      <point x="330" y="135"/>
      <point x="316" y="117"/>
    </contour>
    <contour>
      <point x="571" y="-12" type="curve" smooth="yes"/>
      <point x="689" y="-12"/>
      <point x="792" y="40"/>
      <point x="792" y="132" type="curve" smooth="yes"/>
      <point x="792" y="141"/>
      <point x="790" y="152"/>
      <point x="788" y="162" type="curve"/>
      <point x="619" y="162" type="line"/>
      <point x="621" y="154"/>
      <point x="622" y="148"/>
      <point x="622" y="143" type="curve" smooth="yes"/>
      <point x="622" y="117"/>
      <point x="601" y="112"/>
      <point x="576" y="112" type="curve" smooth="yes"/>
      <point x="549" y="112"/>
      <point x="533" y="127"/>
      <point x="525" y="155" type="curve" smooth="yes"/>
      <point x="517" y="182"/>
      <point x="515" y="222"/>
      <point x="515" y="271" type="curve" smooth="yes"/>
      <point x="515" y="315"/>
      <point x="518" y="354"/>
      <point x="531" y="379" type="curve" smooth="yes"/>
      <point x="540" y="396"/>
      <point x="553" y="406"/>
      <point x="572" y="406" type="curve" smooth="yes"/>
      <point x="611" y="406"/>
      <point x="621" y="385"/>
      <point x="621" y="342" type="curve" smooth="yes"/>
      <point x="621" y="330"/>
      <point x="620" y="317"/>
      <point x="619" y="303" type="curve"/>
      <point x="783" y="210" type="line"/>
      <point x="787" y="241"/>
      <point x="789" y="270"/>
      <point x="789" y="298" type="curve" smooth="yes"/>
      <point x="789" y="435"/>
      <point x="735" y="524"/>
      <point x="582" y="524" type="curve" smooth="yes"/>
      <point x="501" y="524"/>
      <point x="441" y="498"/>
      <point x="401" y="450" type="curve" smooth="yes"/>
      <point x="362" y="403"/>
      <point x="343" y="337"/>
      <point x="343" y="255" type="curve" smooth="yes"/>
      <point x="343" y="180"/>
      <point x="358" y="118"/>
      <point x="389" y="73" type="curve" smooth="yes"/>
      <point x="426" y="20"/>
      <point x="485" y="-12"/>
    </contour>
    <contour>
      <point x="380" y="202" type="line"/>
      <point x="500" y="209"/>
      <point x="783" y="210"/>
      <point x="783" y="210" type="curve"/>
      <point x="754" y="324" type="line"/>
      <point x="376" y="322" type="line"/>
    </contour>
  </outline>
</glyph>
<glyph name="longs" format="2">
  <advance width="369"/>
  <unicode hex="017F"/>
  <outline>
    <contour>
      <point x="-2" y="379" type="line"/>
      <point x="-2" y="379"/>
      <point x="90" y="382"/>
      <point x="166" y="382" type="curve"/>
      <point x="168" y="509" type="line"/>
      <point x="95" y="509"/>
      <point x="2" y="511"/>
      <point x="2" y="511" type="curve"/>
    </contour>
    <contour>
      <point x="297" y="716" type="curve" smooth="yes"/>
      <point x="118" y="716"/>
      <point x="85" y="604"/>
      <point x="85" y="512" type="curve" smooth="yes"/>
      <point x="85" y="394"/>
      <point x="84" y="392"/>
      <point x="84" y="271" type="curve" smooth="yes"/>
      <point x="84" y="125"/>
      <point x="78" y="-3"/>
      <point x="78" y="-3" type="curve"/>
      <point x="260" y="0" type="line"/>
      <point x="260" y="0"/>
      <point x="253" y="129"/>
      <point x="253" y="272" type="curve" smooth="yes"/>
      <point x="253" y="386"/>
      <point x="259" y="447"/>
      <point x="259" y="550" type="curve" smooth="yes"/>
      <point x="259" y="598"/>
      <point x="271" y="613"/>
      <point x="293" y="613" type="curve" smooth="yes"/>
      <point x="309" y="613"/>
      <point x="319" y="603"/>
      <point x="321" y="578" type="curve"/>
      <point x="481" y="574" type="line"/>
      <point x="480" y="659"/>
      <point x="424" y="716"/>
    </contour>
  </outline>
</glyph>
<glyph name="Schwa" format="2">
  <advance width="544"/>
  <unicode hex="018F"/>
  <outline>
    <contour>
      <point x="262" y="-8" type="curve" smooth="yes"/>
      <point x="377" y="-8"/>
      <point x="448" y="49"/>
      <point x="487" y="137" type="curve" smooth="yes"/>
      <point x="512" y="194"/>
      <point x="522" y="262"/>
      <point x="522" y="338" type="curve" smooth="yes"/>
      <point x="522" y="429"/>
      <point x="512" y="509"/>
      <point x="485" y="571" type="curve" smooth="yes"/>
      <point x="449" y="653"/>
      <point x="383" y="703"/>
      <point x="272" y="703" type="curve"/>
      <point x="118" y="703"/>
      <point x="34" y="643"/>
      <point x="34" y="509" type="curve" smooth="yes"/>
      <point x="34" y="499"/>
      <point x="35" y="488"/>
      <point x="36" y="477" type="curve"/>
      <point x="206" y="479" type="line"/>
      <point x="205" y="484"/>
      <point x="205" y="490"/>
      <point x="205" y="495" type="curve" smooth="yes"/>
      <point x="205" y="530"/>
      <point x="226" y="558"/>
      <point x="264" y="558" type="curve" smooth="yes"/>
      <point x="301" y="558"/>
      <point x="320" y="536"/>
      <point x="330" y="492" type="curve" smooth="yes"/>
      <point x="337" y="461"/>
      <point x="339" y="421"/>
      <point x="339" y="370" type="curve" smooth="yes"/>
      <point x="339" y="303"/>
      <point x="336" y="246"/>
      <point x="327" y="203" type="curve" smooth="yes"/>
      <point x="317" y="155"/>
      <point x="298" y="126"/>
      <point x="264" y="126" type="curve" smooth="yes"/>
      <point x="218" y="126"/>
      <point x="203" y="159"/>
      <point x="203" y="226" type="curve" smooth="yes"/>
      <point x="203" y="259"/>
      <point x="206" y="300"/>
      <point x="212" y="350" type="curve"/>
      <point x="37" y="350" type="line"/>
      <point x="31" y="308"/>
      <point x="28" y="269"/>
      <point x="28" y="234" type="curve" smooth="yes"/>
      <point x="28" y="81"/>
      <point x="90" y="-8"/>
    </contour>
    <contour>
      <point x="43" y="233" type="line"/>
      <point x="459" y="235" type="line"/>
      <point x="458" y="357" type="line"/>
      <point x="342" y="352"/>
      <point x="37" y="350"/>
      <point x="37" y="350" type="curve"/>
    </contour>
  </outline>
</glyph>
<glyph name="Nhookleft" format="2">
  <advance width="625"/>
  <unicode hex="019D"/>
  <outline>
    <contour>
      <point x="-76" y="-45" type="curve"/>
      <point x="-74" y="-167" type="line"/>
      <point x="77" y="-187"/>
      <point x="224" y="-144"/>
      <point x="228" y="53" type="curve" smooth="yes"/>
      <point x="229" y="108"/>
      <point x="229" y="150"/>
      <point x="229" y="200" type="curve" smooth="yes"/>
      <point x="229" y="237"/>
      <point x="228" y="277"/>
      <point x="228" y="330" type="curve"/>
      <point x="243" y="303"/>
      <point x="268" y="256"/>
      <point x="294" y="205" type="curve" smooth="yes"/>
      <point x="331" y="132"/>
      <point x="373" y="51"/>
      <point x="394" y="7" type="curve"/>
      <point x="561" y="14" type="line"/>
      <point x="562" y="86"/>
      <point x="564" y="260"/>
      <point x="565" y="419" type="curve" smooth="yes"/>
      <point x="566" y="548"/>
      <point x="568" y="668"/>
      <point x="570" y="715" type="curve"/>
      <point x="393" y="715" type="line"/>
      <point x="393" y="697"/>
      <point x="395" y="622"/>
      <point x="397" y="545" type="curve" smooth="yes"/>
      <point x="399" y="465"/>
      <point x="400" y="383"/>
      <point x="400" y="356" type="curve"/>
      <point x="370" y="413"/>
      <point x="344" y="464"/>
      <point x="319" y="515" type="curve" smooth="yes"/>
      <point x="290" y="574"/>
      <point x="262" y="633"/>
      <point x="230" y="704" type="curve"/>
      <point x="54" y="704" type="line"/>
      <point x="57" y="611"/>
      <point x="59" y="422"/>
      <point x="59" y="250" type="curve" smooth="yes"/>
      <point x="59" y="168"/>
      <point x="60" y="122"/>
      <point x="56" y="67" type="curve" smooth="yes"/>
      <point x="50" y="-14"/>
      <point x="38" y="-58"/>
    </contour>
  </outline>
</glyph>
